<svg width="180" height="172" viewBox="0 0 180 172" fill="none" xmlns="http://www.w3.org/2000/svg">
<g clip-path="url(#clip0_2238_7411)">
<path d="M179.964 134.924C180.109 120.14 174.092 103.215 158.831 98.1158C159.213 69.2872 142.251 57.0285 116.12 62.6967C116.981 54.6208 117.328 46.5296 116.021 38.4016C114.117 27.8696 106.817 23.3131 96.4376 25.4128C90.5671 26.3428 92.897 35.2393 98.4705 33.1606C119.947 24.6564 104.852 76.0191 103.801 85.6129C103.397 89.3738 101.367 96.9652 102.128 102.252C79.2311 101.338 56.3666 98.7203 33.4345 97.7704C26.2832 98.053 26.5908 109.01 33.8317 108.783C48.2221 108.247 64.5892 108.819 79.1529 109.201C100.769 109.88 122.624 109.985 144.191 107.953C147.663 107.707 151.479 107.233 154.993 106.924C172.731 110.807 173.541 132.506 172.87 147.349C165.538 146.648 158.214 147.667 150.925 147.555C150.623 147.545 150.204 147.525 149.756 147.5C149.721 147.28 149.684 147.059 149.641 146.837C146.41 124.798 113.585 130.109 111.777 148.837C110.255 149.083 108.727 149.416 107.466 149.397C100.114 149.904 92.676 149.675 85.3254 149.533C82.4138 149.429 78.8119 149.265 75.922 149.043C72.3462 149.317 66.6838 147.367 62.5027 147.69C60.1891 138.197 48.7998 133.373 39.6269 135.761C32.1999 137.289 26.8664 143.5 25.3932 150.64C14.5933 150.415 9.14418 137.395 11.0024 127.612C11.5269 113.014 10.3528 98.7819 10.453 84.3717C10.4834 79.6794 10.6592 75.0303 11.0795 70.4496C11.3764 67.3167 8.93791 64.5402 5.78853 64.4419C2.74411 64.3343 0.189669 66.7207 0.0902069 69.7655C-0.0855947 74.7562 0.00983 79.7043 0.253163 84.5974C0.970683 98.9379 3.06195 113.357 3.39924 127.531C2.54225 138.189 7.30909 150.421 17.7959 154.598C19.2251 155.161 22.2541 155.851 25.0225 155.887C25.1124 157.259 25.3473 158.632 25.7462 159.981C32.4539 177.807 56.851 173.662 62.0531 158.484C66.3146 159.278 72.3109 157.76 75.8358 158.081C79.0369 157.903 85.4649 157.508 88.6612 157.285C93.0746 157.001 103.423 156.108 107.717 156.182C109.137 156.142 110.991 156.404 112.769 156.474C113.77 159.295 115.329 161.936 117.339 164.138C128.099 175.294 146.893 167.35 149.642 153.719C155.886 154.039 162.138 153.379 168.305 153.607C172.238 153.483 178.609 156.453 179.408 150.649C179.817 145.512 180.105 140.291 179.964 134.924V134.924ZM132.252 102.19C125.914 102.529 119.581 102.624 113.253 102.548C113.29 101.456 113.111 100.309 112.768 99.2091C112.524 96.8657 112.597 94.5131 112.738 92.0633C113.142 84.6679 114.27 77.2805 115.248 69.8844C117.07 69.9317 118.887 69.9681 120.705 70.0617C142.103 70.6654 147.096 79.3208 148.798 99.5064C148.822 99.7343 148.859 99.9641 148.902 100.194C148.263 100.34 147.653 100.452 147.095 100.492C142.177 101.281 137.223 101.842 132.252 102.19V102.19ZM56.8007 152.801C55.8865 159.482 47.9229 160.881 42.33 160.592C36.8753 160.522 33.2184 156.478 34.1143 151.04C35.5298 138.506 58.641 138.933 56.8007 152.801ZM142.844 155.236C141.062 159.626 136.331 162.418 131.701 162.522C129.035 162.623 126.096 161.797 124.175 159.96C120.752 156.682 119.344 150.289 123.457 146.961C131.348 140.157 147.604 141.231 142.844 155.236V155.236Z" fill="white"/>
<path d="M83.054 0.84974C81.4989 -0.232596 79.4076 0.359037 78.504 1.98603C76.7603 4.51955 74.8243 7.40946 73.0898 9.97491C67.7666 17.8941 62.4426 25.844 56.6837 33.4178C39.8915 53.9151 40.3635 61.1435 17.8521 40.3471C15.0092 37.9292 11.9449 35.3274 8.77575 33.2732C5.98421 31.3431 2.38156 35.1501 4.57522 37.847C17.7482 58.1438 39.7018 78.8114 55.5783 48.1808L58.274 44.3542C65.8324 33.7808 69.9514 26.9723 76.8128 15.9573C79.114 12.3213 81.4138 8.69182 83.8456 5.15266C84.8182 3.74515 84.4611 1.82234 83.054 0.84974V0.84974Z" fill="#1951E7"/>
</g>
<defs>
<clipPath id="clip0_2238_7411">
<rect width="180" height="172" fill="white"/>
</clipPath>
</defs>
</svg>
