<svg width="755" height="763" viewBox="0 0 755 763" fill="none" xmlns="http://www.w3.org/2000/svg">
<path d="M725.502 639.928C764.63 643.843 760.261 668.574 736.552 692.747C690.962 739.23 628.189 758.765 583.219 761.841C553.942 763.845 534.143 751.729 526.65 725.602C520.908 705.581 528.373 677.086 546.286 647.392C570.793 606.765 614.193 560.698 628.547 537.588C629.156 536.612 629.81 535.259 630.455 533.676C622.057 538.597 612.655 545.525 602.365 552.773C551.337 588.709 491.567 643.006 458.574 661.337C449.691 666.249 392.794 698.664 368.495 701.128C347.154 703.292 333.507 694.11 326.144 683.087C316.96 669.338 314.719 652.732 320.338 634.574C328.817 607.174 363.94 571.943 374.478 558.778C416.918 506.244 462.551 457.256 505.033 405.327C522.59 383.867 539.634 361.923 555.58 338.918C559.019 333.956 574.937 314.125 586.013 293.785C586.785 292.37 587.569 290.759 588.316 289.078C581.676 291.293 575.212 295.126 568.871 299.397C542.597 317.102 519.475 344.828 502.033 361.901C453.162 409.829 406.489 461.063 356.545 508.475C322.039 541.232 286.043 572.255 246.496 599.004C223.69 615.155 161.621 655.552 111.785 668.574C72.842 678.75 40.0449 670.911 19.8951 646.606C3.72664 627.129 1.80562 599.211 10.6965 568.629C23.115 525.918 60.6707 476.522 76.0029 458.757C105.226 425.693 136.685 394.136 170.487 364.702C218.175 323.176 269.562 285.377 314.112 241.223C331.925 223.566 348.94 205.234 364.367 185.482C371.964 175.648 399.945 142.301 419.659 108.469C425.048 99.2179 426.157 86.4853 428.519 77.5752C425.34 78.2033 422.058 79.1082 418.817 79.8376C401.4 83.7549 384.332 91.9767 372.563 98.3615C329.51 121.744 294.053 143.998 260.868 169.745C228.386 194.946 198.252 223.625 165.068 259.766L82.1681 338.918C31.2838 389.702 -29.9033 326.982 18.0964 278.621L98.8744 200.154C136.985 161.173 171.595 130.544 208.48 103.606C245.899 76.2779 285.525 52.6036 333.685 28.0948C354.639 17.4041 387.081 4.09604 417.555 0.845246C446.421 -2.23245 473.644 3.08982 494.062 19.6282C512.512 34.5732 520.818 60.6139 511.241 94.0815C497.526 142.007 442.746 215.943 430.87 232.369C406.359 267.182 377.986 298.893 347.626 329.027C307.314 369.037 264.473 407.217 221.044 444.218C193.296 467.861 164.722 490.217 138.977 515.362C130.936 523.117 115.362 539.336 101.827 558.315C94.1134 569.133 86.5623 580.532 82.1681 591.761C80.7337 595.427 79.2729 598.891 78.7667 602.32C77.8432 608.598 83.7655 606.534 89.4851 607.001C101.851 605.669 115.682 601.534 129.38 595.986C163.695 582.087 197.313 560.787 212.305 551.022C249.048 526.104 282.599 497.318 314.466 466.639C363.803 419.142 409.257 367.314 457.24 319.041C480.292 295.803 513.005 256.882 549.139 237.644C571.074 225.965 594.334 220.914 617.918 225.109C646.995 230.272 658.283 247.831 659.745 270.764C660.503 282.654 656.855 297.8 649.842 313.319C637.899 339.746 615.942 368.653 611.583 375.167C595.029 399.906 577.344 423.576 559.012 446.671C519.951 495.882 477.935 542.427 438.487 591.757C477.564 565.476 538.226 511.105 585.463 483.102C610.597 468.203 633.562 460.285 650.311 460.43C679.917 460.688 694.117 474.835 700.786 492.354C704.272 501.513 705.393 512.72 703.496 524.611C700.773 541.668 691.972 560.755 684.907 571.648C671.885 591.664 636.513 628.774 610.551 664.714C601.997 676.555 585.463 692.747 589.991 698.77C594.519 704.792 679.95 656.452 679.95 656.452C684.891 653.581 692.49 648.611 699.79 645.283C701.562 644.137 703.533 643.114 705.71 642.243C711.513 639.921 721.843 639.562 725.502 639.928Z" fill="white" fill-opacity="0.15"/>
</svg>
