<svg width="102" height="80" viewBox="0 0 102 80" fill="none" xmlns="http://www.w3.org/2000/svg">
<path d="M8.56999 56.7513C9.91342 62.358 10.9642 70.5574 13.6115 74.0157C14.4547 75.1166 24.784 74.7908 28.1842 74.5735C35.9649 74.0748 43.7368 73.4223 51.4965 72.6652C61.5075 71.6889 94.005 63.6134 96.4011 57.6898C99.8088 49.264 93.2126 12.209 88.7016 6.00446C88.1197 5.20458 87.4611 4.41754 86.6327 3.8764C79.4952 -0.786333 74.917 11.5877 73.0055 15.799L72.1982 17.6553C71.6762 18.9034 71.1845 20.1647 70.6945 21.4257C70.6051 21.6564 69.2364 27.5346 67.5677 27.1178C65.8619 26.6916 63.3134 24.0668 62.3241 23.0194C57.3558 17.7595 55.4063 14.5788 49.4771 10.3743C48.3636 9.58468 44.6153 8.53744 42.8191 9.4477C34.0334 13.8981 30.939 32.989 28.5348 31.9238C21.1655 28.6592 15.5767 22.0645 8.4529 18.2314C7.36533 17.6462 4.74942 16.7277 3.52775 18.0446C2.04709 19.641 2.03795 23.5132 2.20254 25.214C3.28862 36.4025 5.8746 45.5059 8.56999 56.7513Z" fill="#F9ED11"/>
</svg>
