<svg width="58" height="56" viewBox="0 0 58 56" fill="none" xmlns="http://www.w3.org/2000/svg">
<path d="M57.1195 38.3936C55.9887 35.4614 53.5895 32.6723 50.3148 32.2171C49.5195 28.7019 48.9595 24.5882 46.1302 22.0118C43.043 19.4894 38.7096 19.9283 34.9518 20.0444C35.0234 16.7918 35.0964 13.5218 35.2381 10.4569C35.1722 8.2033 31.734 8.2784 31.7812 10.5443C31.8458 13.9308 32.1469 18.7861 32.3374 22.2123C32.4468 24.1457 32.5501 26.0754 32.6281 28.0036C32.6888 29.3736 32.7348 30.7425 32.7717 32.1119C25.4218 31.9936 18.0714 32.136 10.8311 33.1324C9.76292 33.2791 9.75186 34.9606 10.8609 35.0813C18.1434 36.3614 25.4877 35.4008 32.7729 34.7309C35.9525 34.5477 39.3262 34.4722 42.5096 34.4362C44.7943 34.4146 47.1338 34.4232 49.4219 34.5116C50.3086 34.6899 51.5199 34.7706 52.5958 35.9648C54.4638 37.8006 55.3866 40.6672 55.1952 43.2369C54.9713 46.0908 53.6101 47.2763 50.7984 46.8857C49.6782 46.8715 47.4898 46.3634 45.9999 46.6888C44.3652 39.4775 35.2736 41.3829 35.0691 47.9715C34.6358 48.0371 34.207 48.1149 33.8485 48.1035C31.2118 48.2211 28.5689 48.1054 25.9381 47.9896C23.8737 47.9063 21.8022 47.6314 19.7607 47.3805C19.7349 47.3815 19.7109 47.3852 19.6858 47.3871C19.4418 46.468 19.0147 45.5972 18.4125 44.8543C15.5511 41.2473 9.44605 41.8731 8.11429 46.5611C8.00521 46.8611 7.91997 47.1714 7.85708 47.4874C1.6816 47.9347 1.98408 41.0139 2.60515 36.2831C3.16817 30.3424 5.3334 24.2676 3.76874 18.3037C3.02108 16.0781 -0.366714 17.3199 0.529649 19.5102C1.48314 21.9721 1.23964 24.7399 1.07516 27.3809C0.837766 33.4279 -1.75583 42.1275 2.08843 47.3381C3.17393 48.676 4.87957 49.4516 6.53293 49.6982C6.89311 49.7409 7.34958 49.818 7.81711 49.8628C8.01684 51.0773 8.55901 52.2293 9.45825 53.0904C11.7846 55.4703 16.1147 55.9913 18.4595 53.3906C19.0895 52.6478 19.5114 51.7732 19.7352 50.8482C19.7838 50.8501 19.8321 50.8524 19.8828 50.8508C23.8606 50.7306 27.9403 50.4772 31.9079 50.2631C33.1062 50.2098 34.3018 50.2003 35.4942 50.3441C36.1522 52 37.3709 53.4728 39.0797 54.023C41.9411 54.8831 45.2373 52.9432 46.0555 50.1498C46.2142 50.1592 46.3767 50.148 46.5397 50.1112C47.8019 49.832 49.2192 50.056 50.6242 50.0891C57.6639 50.7436 59.2545 43.8133 57.1195 38.3936ZM34.5074 32.1448C34.6083 30.7642 34.6792 29.3824 34.7375 28.0018C34.8045 26.2253 34.8532 24.3808 34.8967 22.5115C44.9162 21.0649 46.4775 23.4393 48.0207 32.536C43.5368 32.4163 39.024 32.2405 34.5074 32.1448ZM17.9492 49.0166C17.8037 53.6239 9.71419 51.8609 10.5684 47.7039C11.1962 42.6885 18.338 44.4545 17.9492 49.0166ZM44.3177 49.1043C44.213 51.2795 41.369 52.8037 39.538 51.7379C38.6134 51.1377 37.9967 49.9632 37.9091 48.8673C37.8056 46.7188 40.2604 44.9426 42.2666 45.5816C43.6218 46.0476 44.3429 47.7286 44.3177 49.1043Z" fill="#A8ABBE"/>
<path d="M24.9702 10.5103C24.8667 7.79105 23.1413 5.50879 21.4124 3.55527C20.7595 2.79632 20.054 2.03346 19.4458 1.25528C18.5289 0.1775 17.0297 1.66245 18.064 2.62965C19.315 4.33795 21.2932 6.31301 21.8976 8.37665C15.664 8.22564 9.38405 8.11714 3.16526 7.8764C0.735222 7.75304 0.765976 11.5121 3.20696 11.3317C4.89256 11.1816 6.56446 11.0309 8.22944 10.8957C12.3374 10.5893 16.4979 10.2073 20.6101 10.5178C21.0444 10.5451 21.4719 10.6149 21.898 10.693C21.7533 11.1287 21.5173 11.5654 21.1696 12.0015C20.2884 13.1955 18.9577 13.9702 18.0723 15.2316C17.7219 15.7952 17.1092 16.5566 17.4306 17.2835C17.6666 17.7637 18.247 17.9617 18.7272 17.7258C20.1523 16.9744 21.6659 16.3155 22.9085 15.233C24.2383 14.0712 25.0288 12.278 24.9702 10.5103Z" fill="#F77A09"/>
</svg>
