<svg width="58" height="58" viewBox="0 0 58 58" fill="none" xmlns="http://www.w3.org/2000/svg">
<path d="M13.5689 6.5968C15.2296 6.57818 16.2827 5.22175 17.2719 4.00287C18.1716 2.87615 19.0932 1.67344 20.4648 0.942394C21.8421 0.205177 23.4568 0.227753 24.8586 0.728852C25.2021 0.837078 25.5448 0.987081 25.8718 1.13359C26.2073 1.30257 26.6096 1.50249 26.9263 1.68694C28.2625 2.31687 29.6882 1.86499 31.0631 1.39334C32.3385 0.957639 33.5738 0.44118 35.0277 0.322596C37.22 0.124298 39.0755 1.24031 40.3318 3.01056C40.5173 3.24691 40.7703 3.66259 40.9342 3.91978L40.9786 3.98995C41.1167 4.37456 41.3681 4.78791 41.6643 5.06849C41.7874 5.18823 41.9135 5.27761 41.9992 5.31938C42.0868 5.36395 42.1169 5.3508 42.0636 5.34755L42.2509 5.35825C45.3297 5.65093 49.0408 6.63194 50.7591 9.56732C51.199 10.2777 51.5209 11.1218 51.7318 11.9107C52.0975 13.1744 52.2168 14.4953 52.7356 15.5442C52.9259 15.9257 53.1904 16.2445 53.5151 16.5162L53.2225 16.333C56.4333 17.9262 59.0402 21.6238 57.5868 25.281C57.4204 25.7409 57.0934 26.4981 56.9136 26.9565C56.5143 27.9935 56.0722 29.077 56.1645 30.1044C56.2062 30.5604 56.3549 30.9742 56.6394 31.3595C57.6531 32.9902 57.8869 35.0574 57.3094 36.865C57.0257 37.7528 56.5669 38.581 55.9505 39.266C55.3459 39.9481 54.5859 40.4916 53.7551 40.8495C53.256 41.0661 52.676 40.8371 52.4593 40.3381C52.2702 39.9024 52.4208 39.4049 52.7943 39.1414C53.071 38.9483 53.3368 38.7397 53.5624 38.5016C54.184 37.8708 54.6095 37.0523 54.7629 36.1847C54.9706 35.0855 54.7251 33.9245 54.0766 33.0349L54.1436 33.1297C53.5554 32.4085 53.1254 31.4759 52.9871 30.5493C52.6645 28.2989 53.5154 26.3507 54.2695 24.3398C54.2962 24.2629 54.3612 24.087 54.386 24.0129C54.6678 23.1531 54.477 22.3076 53.9897 21.5136C53.4064 20.5861 52.4756 19.8067 51.4838 19.3002C51.1537 19.0216 50.8159 18.7085 50.5359 18.3766C50.2147 17.975 49.9292 17.5169 49.7169 17.0546C49.3762 16.3239 49.1694 15.5185 49.0177 14.7321C48.6835 12.9322 48.5894 11.1237 47.1374 9.88664C45.7351 8.68487 43.7605 8.24556 41.9547 7.9544C40.99 7.92228 39.8567 7.11431 39.1913 6.00167C39.0033 5.69794 38.8437 5.3778 38.7182 5.03206L38.7778 5.15786C38.001 3.76104 36.9077 2.5261 35.1731 2.65272C33.3444 2.78957 31.7884 3.68657 29.8657 4.0429C28.8641 4.24027 27.7031 4.254 26.7006 3.90453C26.4381 3.82714 26.1874 3.70181 25.9423 3.59161L25.7179 3.4622L25.4944 3.33175L25.4386 3.29905L25.3924 3.27531C24.0895 2.56567 22.5865 2.02943 21.2233 2.86894C20.784 3.1267 20.3697 3.49292 19.9731 3.91338C18.745 5.24083 17.5818 7.15422 15.7582 8.03714C15.0744 8.38532 14.3017 8.55034 13.5358 8.5657C12.9929 8.59293 12.5306 8.17492 12.5034 7.63205C12.4711 7.0368 12.9791 6.55817 13.5689 6.5968Z" fill="#A8ABBE"/>
<path d="M48.5765 50.9743C47.3963 51.7096 45.9764 52.0649 44.5946 51.9725C42.724 52.0398 41.5789 52.9069 40.18 54.5261C39.4277 55.3774 38.5894 56.2849 37.5676 56.8486C37.2483 57.0305 36.8506 57.1892 36.5006 57.3107C36.3201 57.3526 36.1218 57.4179 35.9393 57.4571C35.8938 57.4764 35.449 57.5296 35.3744 57.5457C33.8486 57.7168 32.2895 57.3362 30.892 56.8554C30.1999 56.6219 29.4346 56.2914 28.7665 55.9983C28.3788 55.8238 27.771 55.808 27.4745 56.1045C26.3488 56.9406 24.9986 57.5473 23.5702 57.6704C20.0534 58.0084 16.9965 55.4164 15.383 52.5268L15.3524 52.4743L15.3371 52.448C15.3363 52.4477 15.3392 52.4541 15.3404 52.4565C15.3752 52.5127 15.3669 52.4879 15.3225 52.4592C15.0579 52.281 14.7571 52.1925 14.3895 52.0597L14.6303 52.1159C13.9328 52.0349 13.2046 51.9646 12.4544 51.8529C9.75947 51.4907 7.31938 50.4196 6.42134 47.6145C6.09538 46.1953 6.03975 44.743 5.65514 43.4249C5.32279 42.2814 4.73895 41.4979 3.63748 41.079L3.59617 41.0545L3.19143 40.814C2.93367 40.6731 2.65542 40.4384 2.42279 40.2669C2.24335 40.1171 2.07484 39.941 1.90226 39.7838C1.72665 39.6006 1.59061 39.4208 1.43526 39.248C0.669645 38.2469 0.160866 37.0333 0.0406537 35.7758C-0.10295 34.5126 0.138406 33.2127 0.693152 32.07C0.999677 31.484 1.39895 30.9219 1.54162 30.2631C1.63286 29.8957 1.67196 29.514 1.66055 29.1255L1.73398 29.5499C1.14572 27.8011 0.445862 26.0057 0.243258 24.0797C0.201364 23.6297 0.193916 23.1431 0.241047 22.6908C0.392214 20.8897 1.4583 19.3597 2.70651 18.1655C3.65564 17.2494 4.64073 16.4994 5.62594 15.7746L5.12181 16.3729C5.51166 15.5173 5.74359 14.5064 5.98296 13.5449C6.38957 11.8962 6.81887 9.94622 7.89403 8.41442C9.22067 6.46309 11.3922 5.68816 13.6773 5.83991C14.6404 5.88611 15.3837 6.70433 15.3374 7.66754C15.2926 8.65996 14.4159 9.41778 13.4278 9.32212C12.6758 9.25858 11.9412 9.30967 11.3348 9.67345C10.7117 10.0652 10.3161 10.712 10.0028 11.4443C9.1946 13.3691 8.90274 15.7426 7.93616 17.7213L7.75252 18.0973C6.20687 19.2065 3.6106 20.8381 3.20749 22.7022L3.1763 22.8493C3.16781 22.902 3.15489 23.0287 3.14581 23.0793C3.08413 23.8565 3.21401 24.5517 3.40195 25.354C3.67519 26.4841 4.08016 27.6936 4.4614 28.8745C4.51435 30.2876 4.13032 31.7153 3.35749 32.9076C2.8557 33.6725 2.60596 34.6019 2.69347 35.5167C2.73432 36.143 2.95054 36.7543 3.25799 37.2993C3.30454 37.3638 3.45164 37.5896 3.50028 37.6611L3.68648 37.8836C3.71778 37.9203 3.74594 37.9601 3.77946 37.995C3.8821 38.095 3.99067 38.1996 4.09262 38.2982L4.32222 38.4776C4.36074 38.5073 4.39693 38.5401 4.43696 38.5678C4.50678 38.6102 4.73569 38.7539 4.80947 38.8019C6.26726 39.4233 7.52478 40.7541 8.04776 42.7376C8.26793 43.529 8.37628 44.2882 8.47321 45.0077C8.56864 45.7267 8.64859 46.4113 8.77671 47.0362L8.74343 46.913C9.27816 48.7365 11.0732 49.2783 12.812 49.5539C13.5182 49.6696 14.2788 49.7497 15.0408 49.8489C15.5716 50.0397 16.1696 50.2444 16.6809 50.622C16.8902 50.7784 17.1571 51.0261 17.3359 51.3524L17.3618 51.3981L17.4137 51.4896C18.6319 53.6461 20.7712 55.6972 23.3858 55.5053C24.3956 55.4265 25.3504 55.0082 26.1845 54.4069L26.1173 54.4598C26.6127 54.0357 27.2525 53.8001 27.8835 53.7565C28.4918 53.7146 29.0702 53.8196 29.6226 54.0598L30.1907 54.3093C30.5593 54.4824 30.9377 54.6183 31.3045 54.7633C32.8518 55.3452 34.7633 55.7647 36.078 55.196C36.5473 55.0103 36.9583 54.7084 37.3355 54.3714C38.0797 53.6792 38.6288 52.924 39.4113 52.0966C40.0802 51.3946 40.8326 50.766 41.7215 50.3372C42.6482 49.872 43.6753 49.6465 44.7046 49.6032C45.5924 49.6219 46.4685 49.3581 47.1885 48.8471C47.7625 48.4434 48.5552 48.5817 48.9587 49.1556C49.3828 49.7534 49.2046 50.5976 48.5765 50.9743Z" fill="#A8ABBE"/>
<path d="M24.4222 21.0706C24.5379 22.8865 23.7931 24.6266 22.192 25.5882C19.4537 27.2629 15.4932 25.8057 14.678 22.6495C13.8321 19.5688 15.5887 16.6139 18.8519 16.3276C21.764 16.103 24.3796 18.0588 24.4222 21.0706ZM22.4542 21.1338C22.6678 17.9002 17.9486 17.6704 17.2735 20.0652C17.1243 20.7178 17.3455 21.5184 17.7724 22.0338C18.5299 22.8522 19.77 22.8605 20.8039 22.7396C21.0382 22.7005 21.2786 22.6606 21.4992 22.5713C22.1158 22.3498 22.4367 21.7827 22.4542 21.1338Z" fill="#1951E7"/>
<path d="M33.6463 37.1803C33.6973 36.522 33.7904 35.8715 34.0223 35.1901C34.806 32.8337 37.2114 31.6488 39.5987 32.2357C41.8502 32.7368 43.6648 34.6121 43.6622 36.9837C43.631 40.5868 40.4751 42.917 37.0688 41.8538C35.011 41.2154 33.5372 39.3748 33.6463 37.1803ZM35.6121 37.293C35.287 40.1229 39.5375 40.934 40.6851 38.5335L40.6513 38.5956C40.8407 38.0672 40.9129 37.5754 40.7824 37.0912C40.5497 36.1945 39.5896 35.7822 38.7446 35.6266C38.0817 35.5351 37.4417 35.5351 36.8087 35.7015C36.1165 35.9269 35.7325 36.5654 35.6121 37.293Z" fill="#1951E7"/>
<path d="M21.0553 39.9222C23.8297 36.4782 25.9863 32.5805 28.1251 28.7274C30.1989 24.8983 32.1444 20.8641 33.6646 16.7894C34.0025 15.8847 35.0098 15.4252 35.9145 15.7631C36.8905 16.1199 37.3382 17.2825 36.8571 18.2024C35.825 20.2146 34.7569 22.1983 33.6533 24.1558C32.6146 25.9905 31.3347 28.1504 30.2325 29.9473C27.9274 33.7782 25.2904 37.3891 23.1713 41.3271C22.8493 41.9551 22.0791 42.2032 21.4511 41.8811C20.7259 41.5209 20.5288 40.5346 21.0553 39.9222Z" fill="#1951E7"/>
</svg>
