<svg width="219" height="89" viewBox="0 0 219 89" fill="none" xmlns="http://www.w3.org/2000/svg">
<path fill-rule="evenodd" clip-rule="evenodd" d="M210.947 3.2556C188.375 31.9833 67.3274 60.5873 6.04478 41.1656C0.380976 39.3568 -0.00185048 39.3152 0.127143 40.4775C0.237709 41.4738 4.44393 43.7806 8.6226 45.0819L11.5836 46.014C15.6341 75.3172 16.9382 84.4176 18.8478 84.2057C19.8025 84.0997 19.8025 84.0997 22.4737 79.3908C27.1149 71.2275 30.8933 65.135 34.5659 56.953C38.0677 49.1262 37.0437 49.7442 45.3413 50.2941L50.6317 50.6315C54.0524 63.6574 63.2187 87.5602 63.2233 87.6017C64.6435 91.3103 66.9918 86.343 86.3182 49.1926C90.3264 48.5797 93.0662 48.6538 93.0662 48.6538C93.0708 48.6953 101.003 60.3381 105.305 69.1899C107.426 73.5351 112.591 82.2071 113.153 82.3548C115.533 82.9732 120.405 72.725 123.982 59.5109C125.537 53.8332 128.878 43.0406 129.251 42.621C129.358 42.4411 132.227 41.7865 137.711 40.4635C141.354 44.8919 144.744 48.9282 148.336 53.6564C151.979 58.463 160.096 67.6059 162.439 70.9179C167.516 78.0448 170.861 67.6719 172.927 38.5724C173.602 28.7481 172.988 30.0349 178.066 28.0845L182.296 26.4384C212.966 49.4677 202.16 40.329 212.269 48.1161C224.948 57.8454 216.224 33.011 212.352 14.404L211.191 8.85972C213.299 6.27244 214.632 4.65365 215.357 3.60673C216.828 1.34223 214.776 -1.62382 210.947 3.2556ZM207.939 12.1207C208.197 14.4454 216.061 45.9303 215.563 45.9856C214.774 46.0732 208.539 39.495 185.045 25.0827C203.939 16.2202 207.805 10.9168 207.939 12.1207ZM34.1932 49.8084C34.5714 50.1866 29.5935 57.9671 23.4389 70.6689C19.6418 78.4864 19.9233 77.9933 19.6051 77.7765C19.4667 77.6658 18.5128 71.3421 17.416 63.7314C15.0659 47.0987 14.6185 46.8538 14.7846 46.8354C14.8261 46.8308 34.101 49.7345 34.1932 49.8084ZM170.954 31.017C170.958 31.0586 165.008 69.0779 164.971 69.124C164.934 69.1701 141.11 39.666 141.152 39.6614C141.313 39.6014 144.782 38.6702 148.827 37.6329C170.266 32.0178 170.852 30.1038 170.954 31.017ZM82.5406 49.6118C78.8912 56.4884 72.1739 69.0425 68.6767 76.1544C64.9812 83.7506 65.0596 83.6999 63.3076 78.1371C57.3878 59.253 57.1067 57.4776 54.5245 51.6287C53.796 49.9866 55.2072 51.3425 82.5406 49.6118ZM111.858 74.0938C111.854 74.0523 96.3642 48.0781 96.3596 48.0366C96.355 47.9951 126.548 43.2571 126.59 43.2525C111.217 73.2404 115.686 80.5609 111.858 74.0938Z" fill="#F77A09"/>
</svg>
