<svg width="125" height="125" viewBox="0 0 125 125" fill="none" xmlns="http://www.w3.org/2000/svg">
<path fill-rule="evenodd" clip-rule="evenodd" d="M36.4349 42.4627C35.6018 45.3756 30.7794 46.5969 28.0792 48.1559C22.5853 51.3278 17.1115 54.9699 15.3554 61.5255C14.9149 63.1694 15.2547 65.3738 15.7521 66.9549C16.4101 69.0463 16.9437 71.3864 18.5238 73.0203C23.8081 78.4857 33.5718 75.4164 39.5112 79.3382C41.9393 80.9411 37.6101 85.8577 36.939 87.2119C32.7621 95.6358 35.4229 101.862 37.9398 105.069C42.3661 110.708 50.0547 113.142 56.7467 110.455C60.9698 108.76 63.9272 104.618 66.823 101.352C69.2433 98.6232 71.5999 92.4965 75.9781 92.2335C79.9087 91.9978 85.1202 93.9892 88.8915 94.9997C92.3215 95.9184 97.2286 92.5936 99.754 90.7361C101.042 89.7881 102.529 88.1966 103.265 86.701C109.625 73.7787 94.285 71.1669 93.6017 69.647C92.4809 67.1543 98.0802 65.3498 100.94 62.1247C106.425 55.939 107.085 45.3509 100.996 39.4591C96.9379 35.5328 90.6787 35.9581 85.6919 36.9788C83.6439 37.3978 78.7266 41.1575 76.6246 39.2933C75.398 38.2056 70.986 28.0643 68.936 25.2002C61.1929 14.383 47.3333 18.0434 40.9761 24.6465C36.1044 29.7061 37.5384 38.6034 36.4349 42.4627Z" fill="#F9ED11"/>
</svg>
