<svg width="39" height="16" viewBox="0 0 39 16" fill="none" xmlns="http://www.w3.org/2000/svg">
<path d="M18.2407 7.43107V11.8897H16.8164V0.878914H20.5939C21.0448 0.86956 21.4931 0.948977 21.913 1.11258C22.3328 1.27619 22.7159 1.52074 23.04 1.83213C23.3674 2.12461 23.628 2.48332 23.8043 2.88412C23.9805 3.28493 24.0683 3.71856 24.0618 4.15587C24.0712 4.59552 23.9847 5.03198 23.8084 5.43534C23.632 5.83871 23.3699 6.19943 23.04 6.49279C22.3795 7.11831 21.5641 7.43078 20.5939 7.43019H18.2407V7.43107ZM18.2407 2.2345V6.07812H20.6293C20.8912 6.08583 21.1518 6.03918 21.3944 5.94115C21.6371 5.84312 21.8565 5.69587 22.0386 5.50883C22.2197 5.33394 22.3637 5.12476 22.462 4.89366C22.5603 4.66256 22.611 4.41422 22.611 4.16334C22.611 3.91246 22.5603 3.66412 22.462 3.43302C22.3637 3.20192 22.2197 2.99274 22.0386 2.81785C21.8588 2.62687 21.6401 2.47601 21.3972 2.37529C21.1542 2.27457 20.8925 2.22628 20.6293 2.23362H18.2407V2.2345Z" fill="white"/>
<path d="M27.3447 4.11011C28.3975 4.11011 29.2284 4.38948 29.8377 4.94824C30.4469 5.50699 30.7512 6.27308 30.7507 7.2465V11.8896H29.3883V10.8441H29.3263C28.7366 11.7051 27.9522 12.1356 26.9731 12.1356C26.1374 12.1356 25.4383 11.8896 24.8756 11.3976C24.6056 11.1718 24.3897 10.889 24.2437 10.5698C24.0977 10.2507 24.0253 9.90317 24.0316 9.55267C24.0316 8.77311 24.3283 8.15315 24.9216 7.6928C25.5149 7.23244 26.307 7.00168 27.2978 7.00051C28.1436 7.00051 28.8401 7.15425 29.3874 7.46174V7.13844C29.389 6.89949 29.337 6.66318 29.2353 6.44664C29.1335 6.23011 28.9845 6.03877 28.7991 5.88652C28.4224 5.54905 27.9316 5.36492 27.4243 5.37081C26.6287 5.37081 25.9991 5.70407 25.5356 6.37059L24.2811 5.58606C24.9712 4.60209 25.9923 4.11011 27.3447 4.11011ZM25.5019 9.58342C25.501 9.76343 25.5434 9.94107 25.6255 10.1015C25.7077 10.262 25.8273 10.4006 25.9744 10.5059C26.2894 10.752 26.6804 10.8823 27.0811 10.8749C27.6821 10.8739 28.2582 10.6363 28.6832 10.2142C29.155 9.77318 29.3909 9.25572 29.3909 8.66183C28.9468 8.31041 28.3276 8.1347 27.5331 8.1347C26.9546 8.1347 26.4721 8.27322 26.0858 8.55025C25.6957 8.83139 25.5019 9.17314 25.5019 9.58342Z" fill="white"/>
<path d="M38.5711 4.3562L33.8151 15.2106H32.3448L34.1097 11.4126L30.9824 4.3562H32.5306L34.7909 9.76801H34.8219L37.0203 4.3562H38.5711Z" fill="white"/>
<path d="M12.4857 6.46978C12.4862 6.03872 12.4495 5.60842 12.376 5.18359H6.36914V7.61979H9.80959C9.73919 8.00888 9.59018 8.37979 9.37155 8.71016C9.15291 9.04052 8.86918 9.3235 8.53745 9.54204V11.1234H10.5908C11.793 10.0226 12.4857 8.39466 12.4857 6.46978Z" fill="#F5F5F5"/>
<path d="M6.36877 12.6512C8.08768 12.6512 9.53498 12.0907 10.5904 11.1243L8.53708 9.54296C7.96559 9.92777 7.22955 10.1474 6.36877 10.1474C4.70738 10.1474 3.29722 9.03517 2.79296 7.53638H0.677734V9.16607C1.20788 10.2137 2.02081 11.0944 3.02576 11.7098C4.0307 12.3253 5.18811 12.6512 6.36877 12.6512Z" fill="#A9A9A9"/>
<path d="M2.79348 7.5363C2.52689 6.75093 2.52689 5.90042 2.79348 5.11505V3.48535H0.678247C0.232266 4.36666 0 5.33934 0 6.32568C0 7.31201 0.232266 8.28469 0.678247 9.166L2.79348 7.5363Z" fill="#6A6A6A"/>
<path d="M6.36877 2.50401C7.27714 2.48928 8.15485 2.83011 8.81221 3.45284L10.6302 1.64744C9.47741 0.572168 7.95022 -0.0181722 6.36877 0.000170871C5.18811 0.000224308 4.0307 0.326158 3.02576 0.941583C2.02081 1.55701 1.20788 2.4377 0.677734 3.48534L2.79296 5.11504C3.29722 3.61625 4.70738 2.50401 6.36877 2.50401Z" fill="#A9A9A9"/>
</svg>
