<svg width="182" height="39" viewBox="0 0 182 39" fill="none" xmlns="http://www.w3.org/2000/svg">
<g clip-path="url(#clip0_381_7538)">
<path fill-rule="evenodd" clip-rule="evenodd" d="M20.6248 16.0077C18.9502 15.9852 17.253 16.2219 15.7176 16.7517C12.1878 17.9767 9.77566 20.0434 7.75109 23.0682C5.24485 26.8296 2.33219 35.2541 7.97688 38.3729C10.1971 39.5978 13.0007 38.8952 15.0177 37.317C17.0347 35.7388 19.0066 34.5476 20.6285 34.5476C22.2504 34.5476 24.2223 35.7388 26.2506 37.317C28.2677 38.8952 31.0599 39.5978 33.2802 38.3729C38.9249 35.2503 36.0122 26.8258 33.506 23.0682C31.4889 20.0434 29.0805 17.9767 25.5469 16.7517C24.0003 16.2181 22.3144 15.9852 20.6285 16.0077H20.6248ZM38.0556 10.0106C44.1255 11.2994 40.7236 22.3655 34.8983 21.3435C31.09 20.6709 30.7702 14.6136 34.3 11.2882C35.0789 10.5517 36.5277 9.6912 38.0556 10.0106ZM29.0956 0.180742C32.3281 1.19153 33.6715 5.37749 32.6592 9.11629C32.2001 10.8297 31.3911 12.3102 30.3111 13.3661C29.2875 14.3656 27.4097 15.4967 25.4265 14.8992C20.5533 13.4413 20.2861 5.50524 24.1132 1.71384C25.2007 0.65044 27.1011 -0.43926 29.0956 0.180742ZM3.20524 10.0106C-2.86469 11.2994 0.52965 22.3655 6.35121 21.3435C10.1595 20.6709 10.4794 14.6136 6.96084 11.2882C6.18187 10.5517 4.72178 9.6912 3.20524 10.0106ZM12.1652 0.180742C8.93272 1.19153 7.58928 5.37749 8.60156 9.11629C9.06066 10.8297 9.86974 12.3102 10.9385 13.3661C11.962 14.3656 13.8511 15.4967 15.8343 14.8992C20.7 13.4413 20.9747 5.50524 17.1363 1.71384C16.0601 0.65044 14.1484 -0.43926 12.1652 0.180742Z" fill="#606C8C"/>
<path fill-rule="evenodd" clip-rule="evenodd" d="M7.75211 18.2437H2.7923C3.62395 19.371 4.78676 20.1074 6.10009 19.8745C6.98443 19.7242 7.49621 19.0741 7.75211 18.2437ZM33.5032 18.2437H38.4743C37.6426 19.371 36.4685 20.1074 35.1552 19.8745C34.2709 19.7242 33.7591 19.0741 33.5032 18.2437ZM30.933 3.78825H24.3287C24.5733 3.41625 24.8518 3.07431 25.1716 2.76618C25.6307 2.30776 26.2818 1.84933 27.0156 1.61636C27.5274 1.46606 28.0918 1.42473 28.6488 1.59382C29.6836 1.92448 30.4513 2.73237 30.933 3.78825ZM30.9556 9.57117H23.0417C22.9138 8.64305 22.9551 7.65481 23.1471 6.68535H31.5087C31.4975 7.67735 31.2942 8.63554 30.9556 9.57117ZM39.6936 15.3541H33.5484C33.8268 14.3095 34.38 13.2874 35.2229 12.457H39.2758C39.829 13.2874 39.8516 14.4072 39.6936 15.3541ZM24.2685 12.457H29.1116C28.2574 13.2235 27.0118 13.821 25.8565 13.4791C25.2281 13.2874 24.6937 12.9455 24.2685 12.457ZM29.1342 20.3592H12.1362C13.2877 19.4311 14.6198 18.6984 16.2003 18.1535C16.8514 17.928 17.5551 17.759 18.2926 17.6425C19.0829 17.526 19.8619 17.4734 20.6182 17.4809H20.6408C21.4085 17.4696 22.1875 17.5222 22.9664 17.6425C23.704 17.759 24.4077 17.9318 25.0663 18.1535C26.6468 18.6984 27.9676 19.4311 29.1304 20.3592H29.1342ZM33.6048 26.3225H7.66556C8.13595 25.2591 8.68913 24.2896 9.37402 23.339H31.8926C32.5662 24.2859 33.1194 25.2553 33.601 26.3225H33.6048ZM35.0461 32.2971H6.21675C6.21675 31.2975 6.37856 30.283 6.62317 29.3135H34.6321C34.8767 30.283 35.0386 31.2938 35.0386 32.2971H35.0461ZM26.1726 35.2806H34.3762C34.0564 35.8668 33.6086 36.3891 33.0102 36.7949C32.9877 36.8174 32.9688 36.8287 32.9463 36.8475C32.7957 36.9452 32.6678 37.0166 32.5737 37.073C31.934 37.4262 31.1663 37.4788 30.3873 37.3623C28.4982 37.0842 27.5725 36.3816 26.1726 35.2843V35.2806ZM10.3223 3.79201H16.9341C16.6895 3.42 16.3998 3.07806 16.0912 2.76994C15.6321 2.31152 14.9698 1.85309 14.236 1.62012C13.7242 1.46982 13.171 1.42848 12.6028 1.59757C11.5679 1.92824 10.8002 2.73612 10.3186 3.79201H10.3223ZM10.2997 9.57493H18.2136C18.3416 8.64681 18.3114 7.65856 18.1082 6.6891H9.75785C9.76914 7.68111 9.96106 8.63929 10.3035 9.57493H10.2997ZM1.56552 15.3579H7.71824C7.42848 14.3132 6.8753 13.2912 6.03236 12.4608H1.97947C1.43381 13.2912 1.40371 14.4109 1.56176 15.3579H1.56552ZM17.0019 12.4608H12.1587C13.013 13.2273 14.251 13.8248 15.4138 13.4828C16.031 13.2912 16.5654 12.9492 17.0019 12.4608ZM15.094 35.2881H6.88659C7.24032 35.9382 7.71824 36.4492 8.32787 36.855C8.47839 36.9527 8.60634 37.0241 8.70042 37.0805C9.32886 37.4337 10.0965 37.4863 10.8868 37.3698C12.7646 37.0917 13.7016 36.3891 15.0902 35.2919L15.094 35.2881Z" fill="#B3B6C9"/>
<path d="M49.5039 18.8932C49.5039 19.874 50.2415 20.6706 51.3403 20.6706C52.4391 20.6706 53.1767 19.8702 53.1767 18.8932V12.355L55.3857 16.2216C55.8448 16.9994 56.4732 17.3827 57.2522 17.3827C58.0312 17.3827 58.6596 16.9994 59.1074 16.2216L61.2938 12.355V18.8932C61.2938 19.874 62.0502 20.6706 63.1076 20.6706C64.2177 20.6706 64.9741 19.8702 64.9741 18.8932V7.87973C64.9741 6.56082 63.9807 5.54627 62.5733 5.54627C61.6362 5.54627 60.9513 5.92954 60.4922 6.72991L57.2296 12.5654L53.9745 6.72991C53.5267 5.92954 52.8343 5.54627 51.9048 5.54627C50.4522 5.54627 49.5039 6.55706 49.5039 7.87973V18.8932ZM66.7842 18.9158C66.7842 19.8965 67.4992 20.6743 68.6093 20.6743C69.5802 20.6743 70.2086 20.2572 70.4645 19.4193L70.965 17.7998H75.4883L75.9587 19.4193C76.2033 20.2197 76.843 20.6743 77.7838 20.6743C78.9052 20.6743 79.703 19.9829 79.703 18.9158C79.703 18.6828 79.6616 18.4273 79.5525 18.1154L76.0001 7.50773C75.5523 6.19633 74.6341 5.52748 73.2794 5.52748C71.9246 5.52748 71.0516 6.20009 70.5925 7.50773L66.9535 18.1154C66.8482 18.4235 66.7842 18.679 66.7842 18.9158ZM73.2605 10.2771L74.5739 14.7524H71.8983L73.2643 10.2771H73.2605ZM78.4762 7.42131C78.4762 8.35695 79.2213 9.11598 80.1207 9.11598H83.2366V18.8293C83.2366 19.8514 84.1021 20.6706 85.137 20.6706C86.1718 20.6706 87.0449 19.8063 87.0449 18.8293V9.11598H90.1608C91.0451 9.11598 91.8052 8.3607 91.8052 7.42131C91.8052 6.48191 91.0489 5.73791 90.1608 5.73791H80.1245C79.2289 5.73791 78.48 6.49318 78.48 7.42131H78.4762ZM93.1863 18.8293C93.1863 19.8514 94.0518 20.6706 95.0867 20.6706C96.1215 20.6706 96.9946 19.8063 96.9946 18.8293V16.3268H99.9825C101.337 16.3268 102.447 15.9848 103.309 15.2935C104.547 14.3578 105.304 12.821 105.304 11.0323C105.304 9.24374 104.611 7.8384 103.46 6.88773C102.553 6.13245 101.36 5.73791 99.8772 5.73791H95.0867C94.0518 5.73791 93.1863 6.55706 93.1863 7.60167V18.8293ZM96.9946 9.07089H99.3955C99.9411 9.07089 100.344 9.1761 100.675 9.39028C101.164 9.70968 101.431 10.2545 101.431 11.0323C101.431 11.8102 101.164 12.3964 100.652 12.6932C100.321 12.8961 99.9148 13.0013 99.3955 13.0013H96.9946V9.07089ZM106.82 13.1065C106.82 17.6457 110.489 20.648 114.798 20.648C119.107 20.648 122.757 17.7284 122.757 13.1065C122.832 8.63125 118.96 5.4373 114.798 5.52372C112.653 5.52372 110.647 6.279 109.198 7.57912C107.746 8.86798 106.82 10.882 106.82 13.1065ZM114.798 9.08967C115.949 9.08967 116.879 9.47295 117.613 10.2282C118.35 10.9835 118.712 11.9342 118.712 13.1028C118.712 14.2714 118.35 15.2221 117.613 15.9773C116.875 16.7326 115.927 17.0971 114.775 17.0971C113.624 17.0971 112.694 16.7364 111.961 15.9773C111.227 15.2183 110.862 14.2639 110.862 13.1028C110.862 11.9417 111.223 10.9835 111.961 10.2282C112.698 9.47295 113.658 9.08967 114.798 9.08967ZM124.368 13.084C124.326 17.6645 127.739 20.7307 132.327 20.6668C133.606 20.6668 134.769 20.4639 135.815 20.1032C136.658 19.7838 137.234 19.175 137.234 18.3972C137.234 17.3752 136.432 16.6199 135.461 16.6199C135.164 16.6199 134.404 16.8641 133.839 17.0144C133.316 17.1422 132.805 17.2061 132.281 17.2061C131.13 17.2061 130.2 16.8228 129.444 16.045C128.706 15.2671 128.345 14.2676 128.345 13.084C128.345 11.9004 128.729 10.9234 129.485 10.1456C130.242 9.34519 131.183 8.9544 132.281 8.9544C132.827 8.9544 133.316 9.01828 133.775 9.13477C134.257 9.28507 134.874 9.47671 135.205 9.47671C136.176 9.47671 136.978 8.72143 136.978 7.70688C136.978 6.90652 136.455 6.30154 135.589 6.02348C134.66 5.69282 133.606 5.54251 132.368 5.54251C128.078 5.54251 124.368 8.71767 124.368 13.084ZM139.055 18.803C139.055 19.8251 139.921 20.6443 140.955 20.6443C141.99 20.6443 142.863 19.78 142.863 18.803V14.7223H143.665L147.409 19.8439C147.816 20.3775 148.339 20.663 149.009 20.663C150.066 20.663 150.864 19.8439 150.864 18.7767C150.864 18.307 150.694 17.8486 150.352 17.4465L146.777 12.8134L150.126 8.60495C150.457 8.2104 150.627 7.80458 150.627 7.39125C150.627 6.35791 149.848 5.51621 148.813 5.51621C148.203 5.51621 147.703 5.77172 147.319 6.29403L143.639 11.3517H142.86V7.34615C142.86 6.33536 141.994 5.51245 140.952 5.51245C139.909 5.51245 139.051 6.3316 139.051 7.34615V18.7955L139.055 18.803ZM152.708 18.8256C152.708 19.8476 153.573 20.6668 154.608 20.6668C155.643 20.6668 156.516 19.8026 156.516 18.8256V18.3559L162.18 12.5842V18.8256C162.18 19.8476 163.045 20.6668 164.087 20.6668C165.13 20.6668 165.988 19.8026 165.988 18.8256V7.37997C165.988 6.36918 165.122 5.54627 164.087 5.54627C163.053 5.54627 162.18 6.36542 162.18 7.37997V7.94361L156.516 13.6965V7.37997C156.516 6.36918 155.65 5.54627 154.608 5.54627C153.566 5.54627 152.708 6.36542 152.708 7.37997V18.8293V18.8256ZM168.761 18.8256C168.761 19.8476 169.627 20.6668 170.662 20.6668C171.696 20.6668 172.57 19.8026 172.57 18.8256V14.7261H178.192V18.8256C178.192 19.8476 179.057 20.6668 180.1 20.6668C181.142 20.6668 182 19.8026 182 18.8256V7.37997C182 6.36918 181.157 5.54627 180.1 5.54627C179.042 5.54627 178.192 6.36542 178.192 7.37997V11.363H172.57V7.37997C172.57 6.36918 171.704 5.54627 170.662 5.54627C169.619 5.54627 168.761 6.36542 168.761 7.37997V18.8293V18.8256Z" fill="#1951E7"/>
<path d="M52.2535 33.4349C53.8002 33.4349 54.7598 32.6045 54.7598 31.4734C54.7598 30.6843 54.2894 30.2372 53.6496 30.023C54.2028 29.7562 54.5979 29.3316 54.5979 28.5838C54.5979 27.6031 53.6383 26.8892 52.2309 26.8892C51.0267 26.8892 50.2026 27.3476 49.5967 27.9526L50.4623 28.9746C50.8574 28.6214 51.5385 28.3584 52.0842 28.3584C52.5734 28.3584 52.8744 28.5838 52.8744 28.9107C52.8744 29.2377 52.6185 29.4857 51.9901 29.4857H51.3504V30.7745H52.0014C52.6938 30.7745 53.0137 31 53.0137 31.3381C53.0137 31.6763 52.6938 31.9544 52.0541 31.9544C51.309 31.9544 50.7219 31.6575 50.2741 31.2104L49.3672 32.3715C50.0709 32.9877 50.8198 33.4274 52.2573 33.4274L52.2535 33.4349ZM59.4862 33.4462C61.4393 33.4462 62.8994 31.9769 62.8994 30.1658C62.8994 28.3546 61.4581 26.8967 59.5088 26.8967C57.5595 26.8967 56.107 28.3546 56.107 30.1658C56.107 31.9769 57.5482 33.4462 59.49 33.4462H59.4862ZM59.5088 31.868C58.5492 31.868 57.8982 31.0676 57.8982 30.162C57.8982 29.2564 58.5379 28.4561 59.4862 28.4561C60.4346 28.4561 61.1082 29.2564 61.1082 30.162C61.1082 31.0676 60.4684 31.868 59.5088 31.868ZM67.7124 33.4462C69.6542 33.4462 71.1143 31.9769 71.1143 30.1658C71.1143 28.3546 69.673 26.8967 67.7237 26.8967C65.7744 26.8967 64.3219 28.3546 64.3219 30.1658C64.3219 31.9769 65.7631 33.4462 67.7124 33.4462ZM67.7237 31.868C66.7754 31.868 66.1131 31.0676 66.1131 30.162C66.1131 29.2564 66.7528 28.4561 67.7124 28.4561C68.672 28.4561 69.3344 29.2564 69.3344 30.162C69.3344 31.0676 68.6946 31.868 67.7237 31.868ZM72.7588 33.3184H74.4673V29.7186L76.0779 32.1686H76.1117L77.7224 29.6961V33.3184H79.4609V27.0132H77.617L76.1117 29.4518L74.6065 27.0132H72.7626V33.3184H72.7588ZM80.8006 33.3184H82.637L83.0961 32.1911H85.5271L85.9862 33.3184H87.864L85.1771 26.9718H83.4912L80.8044 33.3184H80.8006ZM83.6079 30.8384L84.3229 29.0385L85.0153 30.8384H83.6079ZM89.1961 33.3184H90.946V28.5463H93.742V27.0132H89.1961V33.3184ZM94.7016 33.3184H96.5455L96.9934 32.1911H99.4243L99.8834 33.3184H101.761L99.0744 26.9718H97.3885L94.7016 33.3184ZM97.5089 30.8384L98.2239 29.0385L98.9276 30.8384H97.5089ZM105.539 33.4386C107.086 33.4386 108.046 32.6082 108.046 31.4772C108.046 30.6881 107.575 30.2409 106.936 30.0267C107.489 29.76 107.873 29.3354 107.873 28.5876C107.873 27.6069 106.924 26.8929 105.517 26.8929C104.313 26.8929 103.489 27.3513 102.883 27.9563L103.748 28.9784C104.143 28.6252 104.824 28.3621 105.37 28.3621C105.852 28.3621 106.16 28.5876 106.16 28.9145C106.16 29.2414 105.904 29.4894 105.265 29.4894H104.625V30.7783H105.287C105.98 30.7783 106.3 31.0037 106.3 31.3419C106.3 31.6801 105.98 31.9581 105.329 31.9581C104.584 31.9581 104.008 31.6613 103.556 31.2141L102.649 32.3752C103.342 32.9915 104.102 33.4311 105.539 33.4311V33.4386ZM109.604 33.3222H111.237L113.679 29.775V33.3222H115.406V27.0169H113.773L111.331 30.5641V27.0169H109.604V33.3222ZM117.25 33.3222H119V30.9248H121.239V33.3222H122.989V27.0169H121.239V29.3804H119V27.0169H117.25V33.3222Z" fill="#979AAD"/>
</g>
<defs>
<clipPath id="clip0_381_7538">
<rect width="182" height="39" fill="white"/>
</clipPath>
</defs>
</svg>
