<svg width="607" height="434" viewBox="0 0 607 434" fill="none" xmlns="http://www.w3.org/2000/svg">
<path fill-rule="evenodd" clip-rule="evenodd" d="M450.717 503.586C424.214 525.904 392.867 548.675 361.017 562.127C345.116 568.843 326.77 561.392 320.041 545.484C313.312 529.577 320.748 511.238 336.65 504.522C359.93 494.69 385.634 476.613 410.419 455.743C434.882 435.144 456.796 413.255 472.711 397.064C529.486 339.305 552.4 263 541.768 161.219C534.001 86.8594 488.523 2.88519 419.394 -50.2751C386.504 -75.5677 346.623 -83.7424 308.338 -83.8619C251.672 -84.0386 204.452 -63.1789 158.892 -33.4895C117.088 -6.24783 81.1719 29.2286 53.3429 70.5854C38.1559 93.155 24.4989 114.54 14.555 137.396C4.68351 160.086 -0.520919 186.33 -3.03753 215.73C-6.74598 259.053 -5.59902 304.852 9.04077 347.954C24.3777 393.109 56.3045 438.542 97.384 458.032C128.869 472.969 164.126 472.784 190.89 464.014C210.702 457.523 228.692 447.59 249.37 436.173C252.466 434.463 255.622 432.721 258.853 430.951C287.136 415.465 313.368 400.08 336.363 381.827C376.61 349.877 409.722 314.526 428.214 269.804C434.025 255.75 437.314 243.771 437.851 229.305C439.059 196.781 438.695 168.179 427.795 139.846C417.001 111.79 398.759 84.6573 374.827 66.8085C341.551 41.9903 305.46 39.207 270.145 45.605C229.995 52.879 196.034 69.5289 172.409 94.8515C155.115 113.388 141.005 134.435 129.806 158.307C114.508 190.92 100.778 222.297 94.2526 255.365C91.1273 271.202 90.4945 288.287 92.4034 306.702C93.9797 321.909 96.0859 332.137 101.597 340.524C118.147 365.708 139.964 373.474 157.127 370.34C170.026 367.985 187.451 360.508 207.192 349.885C221.571 342.146 235.24 333.843 247.738 326.251C252.121 323.588 256.361 321.013 260.436 318.58C315.664 285.615 329.757 231.818 320.533 198.039C312.194 167.502 300.581 164.684 297.164 164.207C290.018 163.208 277.097 167.063 263.782 179.802C250.635 192.379 244.578 206.608 244.497 215.041C244.465 218.393 245.302 220.151 246.448 221.512C247.814 223.134 251.802 226.687 262.186 229.389C278.899 233.739 288.933 250.811 284.596 267.521C280.26 284.231 263.196 294.25 246.483 289.9C227.061 284.845 210.405 275.75 198.625 261.755C186.626 247.5 181.816 230.672 181.972 214.389C182.268 183.552 199.93 154.317 220.538 134.603C241.129 114.904 272.241 97.5955 305.767 102.28C343.023 107.486 368.723 137.198 380.851 181.614C398.029 244.519 369.956 326.054 292.517 372.278C289.166 374.278 285.415 376.557 281.356 379.024C268.608 386.769 252.822 396.36 236.859 404.951C216.133 416.105 191.488 427.637 168.407 431.851C121.635 440.391 76.7391 416.51 49.351 374.833C34.9015 352.845 31.8839 329.261 30.2085 313.098C27.7431 289.313 28.4267 265.915 32.9072 243.21C41.0578 201.909 57.8502 164.421 73.1935 131.713C87.028 102.222 104.733 75.6923 126.672 52.1767C161.509 14.8365 208.818 -6.83967 258.949 -15.9218C305.289 -24.3172 360.745 -21.6671 412.183 16.6967C447.619 43.1258 472.125 80.9781 486.151 117.436C501.989 158.604 501.571 198.408 500.336 231.676C499.446 255.66 493.707 275.098 486 293.737C461.771 352.334 419.548 395.659 375.264 430.812C347.897 452.537 317.767 470.006 288.918 485.802C286.064 487.364 283.134 488.988 280.131 490.653C259.863 501.886 236.271 514.961 210.403 523.436C170.031 536.664 118.06 537.027 70.6202 514.52C9.00232 485.287 -31.5868 422.714 -50.1637 368.02C-68.7217 313.382 -69.4045 257.853 -65.3378 210.346C-62.5057 177.26 -56.367 143.629 -42.7849 112.411C-30.3861 83.9126 -13.902 58.4735 1.45716 35.6481C33.9342 -12.6163 75.8614 -54.0437 124.724 -85.8847C175.645 -119.067 234.913 -146.619 308.482 -146.39C354.774 -146.245 409.91 -136.416 457.486 -99.8301C539.714 -36.5962 594.343 62.7303 603.958 154.773C616.023 270.276 590.229 366.744 517.321 440.915C501.155 457.362 477.542 480.999 450.717 503.586Z" fill="white"/>
</svg>
