<svg width="58" height="58" viewBox="0 0 58 58" fill="none" xmlns="http://www.w3.org/2000/svg">
<g clip-path="url(#clip0_274_7473)">
<path d="M46.7326 14.8361C45.8596 14.277 44.8276 14.4683 43.8855 14.6274C40.7056 15.162 41.592 17.0355 43.9319 18.0803C45.5438 18.7016 48.5779 16.3487 46.7326 14.8361Z" fill="#F77A09"/>
<path d="M57.3995 15.2893C57.2704 13.5826 56.9228 11.7954 56.0275 10.3539C56.8318 8.94544 58.6675 -0.800714 55.5551 0.0528605C53.1277 0.664693 51.3006 2.49702 49.0288 3.28421C48.8536 3.33167 48.7329 3.29791 48.553 3.27934C47.206 3.02831 45.8717 2.38374 44.4412 2.3553C42.9859 2.30852 41.6047 3.07226 40.2025 3.15518C39.6148 2.79415 39.0199 2.43845 38.4089 2.09294C36.4736 0.997739 32.8149 -1.04744 31.4983 1.90863C30.7351 4.90821 32.4365 7.89374 31.8415 10.8875C30.4394 15.0997 31.1471 18.5601 33.0399 21.1451C30.221 23.1062 26.1701 21.8398 22.8007 22.2337C20.9752 22.2338 19.9728 22.8517 19.5781 23.5894C7.80856 26.4101 8.97264 41.4282 8.77711 51.2425C7.41468 51.1689 6.09586 50.6593 5.19811 49.591C1.17832 43.2666 4.20021 35.0862 3.49707 28.031C2.56862 23.4659 5.30799 18.0414 10.4414 18.1216C12.812 18.0716 12.6889 14.5018 10.31 14.6258C2.26084 15.2133 -0.494278 23.0459 0.982683 30.0511C1.54252 38.0366 -2.00364 52.2815 9.17711 53.7696C9.31078 54.1196 9.4764 54.4574 9.67305 54.7764C14.975 61.0511 27.343 56.1286 34.5195 56.7078C35.7004 56.7262 35.9443 55.0947 34.8233 54.7592C33.7461 54.2429 31.9498 54.0922 29.8222 54.0963C32.0436 50.1459 33.4019 44.2686 31.298 40.1722C27.9307 33.4344 17.246 37.6185 23.062 39.0837C31.0028 39.7653 30.9244 48.7867 27.46 54.1493C20.5397 54.4106 11.8749 55.3926 11.8181 51.4625C11.5487 42.6337 9.27329 28.5184 19.9052 25.5773C20.3402 25.9797 21.0181 26.1735 21.8408 25.9279C25.7072 24.4848 31.1773 25.6415 34.2865 22.5671C37.8775 26.0228 43.8676 27.328 48.8511 26.0212C49.5996 30.3273 48.3776 34.8054 46.5885 38.7293C45.1856 41.3689 43.359 43.8967 43.0721 46.9818C41.1398 55.8533 51.0618 59.4023 51.457 54.9635C51.4019 53.9978 50.5745 53.2598 49.6089 53.3149C43.9619 53.4923 45.4634 44.8289 47.6968 41.8283C50.3534 36.7398 51.6018 30.9041 51.2221 25.1581C54.6943 23.4957 57.2556 20.2744 57.3995 15.2893ZM34.1308 13.5713C34.7061 12.0133 34.7851 10.3721 34.6448 8.74448C34.5497 6.76081 33.7433 4.7981 33.8195 2.83459C35.0212 2.91117 36.1728 3.63617 37.2729 4.17267C38.3874 4.72922 39.5606 5.77866 40.8731 5.39894C42.2124 5.22755 43.5019 4.44489 44.8566 4.61436C46.3778 4.80659 47.7169 5.6195 49.329 5.41548C51.5262 4.85995 53.1623 3.22723 55.1782 2.35564C55.4432 5.10668 54.833 7.82146 54.0564 10.438C54.2693 11.3301 54.5418 12.1792 54.662 13.0599C56.7984 25.9894 33.3435 26.585 34.1308 13.5713Z" fill="#A8ABBE"/>
</g>
<defs>
<clipPath id="clip0_274_7473">
<rect width="58" height="58" fill="white"/>
</clipPath>
</defs>
</svg>
