<svg width="58" height="58" viewBox="0 0 58 58" fill="none" xmlns="http://www.w3.org/2000/svg">
<g clip-path="url(#clip0_274_7458)">
<path d="M37.4769 48.893C37.2667 44.4912 33.9523 41.9875 30.3367 41.478C30.3166 39.1651 30.2847 36.8337 30.2058 34.6289C30.1431 33.7034 28.8369 33.6137 28.6511 34.5265C28.2764 36.7437 27.9293 39.1212 27.5973 41.473C24.0786 41.9638 20.9473 44.3954 20.8428 48.8633C19.8888 60.1594 38.1549 59.9368 37.4769 48.893ZM27.8515 53.8863C20.5387 53.4101 21.8785 44.4699 27.3254 43.4116C27.1883 44.3928 27.0533 45.3601 26.9194 46.2996C26.7641 47.3377 27.6011 48.2977 28.6521 48.2807C29.6115 48.2735 30.3834 47.4901 30.3764 46.5308C30.3669 45.576 30.3601 44.5973 30.3531 43.607C37.4234 45.5518 35.0984 54.8725 27.8515 53.8863Z" fill="#1951E7"/>
<path d="M57.922 22.2313C57.5332 20.5708 55.0497 21.1939 55.4734 22.8288C56.7412 36.9835 10.6303 35.4226 4.50008 26.9348C2.85818 22.6846 2.36869 17.688 3.31878 13.104C12.1242 23.5353 36.0412 21.5425 47.5147 18.1483C53.4102 16.5766 63.1773 10.0416 53.7518 5.17039C46.1287 1.76878 37.3177 0.119863 29.0534 0.961316C25.9765 3.55376 23.4143 6.6691 20.6506 9.53206C19.0835 10.5507 27.2681 16.157 28.2465 17.3567C20.6714 16.9689 9.03224 17.1684 3.97604 10.67C4.26117 9.82297 4.59954 8.99817 4.99761 8.20565C8.19101 4.77357 13.3147 5.54739 17.5779 4.42976C19.8207 3.78984 18.9977 0.552711 16.7123 1.07505C11.926 2.27527 5.88914 2.02469 2.52264 6.38216C-0.864693 12.7829 -0.762399 22.0242 2.35907 28.46C9.56285 38.4592 60.2527 39.5048 57.922 22.2313ZM22.9434 10.0747C25.29 7.62996 27.5155 5.08736 30.0703 2.91485C37.1679 2.80282 44.3744 3.84149 50.919 6.6708C52.4303 7.36035 54.662 8.24451 55.0183 10.0167C50.4126 16.3875 38.4353 16.7713 31.1546 17.3119C28.4276 14.866 25.5752 12.587 22.9434 10.0747Z" fill="#A8ABBE"/>
<path d="M47.4865 21.9238C45.3102 22.5486 45.3032 25.7539 47.4858 26.3879C49.0997 26.8901 50.646 25.7421 50.57 24.0454C50.6153 22.4385 48.9319 21.4925 47.4865 21.9238Z" fill="#A8ABBE"/>
<path d="M38.3727 23.6196C36.4695 24.2293 36.6002 27.2205 38.4589 27.7798C42.5378 28.9581 42.309 22.4073 38.3727 23.6196Z" fill="#A8ABBE"/>
<path d="M8.68293 23.9325C8.97508 27.0806 13.8961 26.3065 12.9942 23.124C12.2632 20.6956 8.32643 21.241 8.68293 23.9325Z" fill="#A8ABBE"/>
<path d="M17.7273 26.0768C17.5482 29.2884 22.6382 29.1139 22.2249 25.9598C22.0467 23.3686 17.7016 23.426 17.7273 26.0768Z" fill="#A8ABBE"/>
<path d="M30.3933 28.964C32.5273 28.2644 32.4934 25.0157 30.3286 24.399C26.1931 23.4187 26.3016 30.1441 30.3933 28.964Z" fill="#A8ABBE"/>
</g>
<defs>
<clipPath id="clip0_274_7458">
<rect width="58" height="58" fill="white"/>
</clipPath>
</defs>
</svg>
