<svg width="58" height="58" viewBox="0 0 58 58" fill="none" xmlns="http://www.w3.org/2000/svg">
<g clip-path="url(#clip0_274_7445)">
<path d="M56.4322 29.8447C58.797 29.6336 58.3492 26.0402 56.0087 26.4074C52.58 26.7211 47.2248 25.4503 45.7833 29.7388C44.9324 37.372 45.3661 45.0628 45.9271 52.6963C45.956 56.9977 50.9193 57.098 54.0878 56.8556C55.3485 56.7341 57.3632 57.4719 57.4693 55.6493C57.3727 53.8338 55.0829 54.5133 53.952 54.5483C51.6188 54.7698 47.5652 55.4099 48.0096 51.9194C47.9316 50.3093 47.8631 48.6965 47.816 47.0828C48.2461 47.0251 48.6796 46.9994 49.1127 47.0293C50.885 47.0977 52.7492 47.7309 54.5612 47.4106C58.7446 46.7342 55.1471 43.3324 52.583 44.1273C51.0134 44.6389 49.3709 44.7351 47.7691 45.0608C47.7348 43.0009 47.7442 40.941 47.8226 38.8854C49.1049 38.6764 50.4079 38.5252 51.7094 38.3833C51.7094 38.3833 53.8808 38.157 53.8808 38.1572C54.7282 37.9134 56.4607 38.2906 56.7217 37.2074C56.7688 35.8598 54.7708 36.3115 53.8884 36.043C51.9961 35.8324 49.9538 35.5939 48.0177 35.5118C48.1501 33.8364 48.3389 32.1654 48.5965 30.5011C50.3063 28.5933 54.0908 30.2633 56.4322 29.8447Z" fill="#1951E7"/>
<path d="M19.0025 41.2655C17.9306 43.6632 19.854 46.6683 22.3592 47.1091C25.0053 47.5538 27.5814 46.5956 28.9835 44.6565C31.4862 48.966 40.0259 48.3522 38.7702 41.7098C38.5499 40.9514 37.5004 40.7942 37.0697 41.464C36.7369 41.9558 36.4098 42.5207 36.151 42.8665C34.8326 44.8476 32.2091 45.7313 30.6697 43.459C30.1182 42.7858 30.1865 41.9903 30.2192 41.317C33.2784 39.8541 37.3165 35.4924 32.4607 34.1415C31.3561 33.9159 30.223 33.959 29.1162 34.0521C21.1191 32.8259 22.8467 39.4268 28.107 41.4084C27.9193 43.652 25.8127 44.9403 23.6788 44.0541C22.3328 43.5926 21.5456 42.6112 20.9557 41.2846C20.6317 40.4487 19.3467 40.4219 19.0025 41.2655Z" fill="#A8ABBE"/>
<path d="M37.4696 25.9521C37.4607 22.7266 32.3066 22.1011 32.1429 25.5797C31.6342 29.2264 37.859 30.0592 37.4696 25.9521Z" fill="#A8ABBE"/>
<path d="M25.3585 25.2652C24.7085 22.4678 20.2065 23.3481 20.1829 26.0461C19.8664 30.3836 26.4785 29.1411 25.3585 25.2652Z" fill="#A8ABBE"/>
<path d="M56.8686 9.81264C55.526 2.81922 48.341 -3.01363 41.9135 2.36825C40.0127 3.73204 38.3889 5.45154 36.835 7.1827C32.4927 2.93771 26.5756 3.39866 21.5219 8.06075C18.0082 0.937961 5.64732 -4.0975 1.95514 5.36012C1.72099 5.91316 1.80538 6.52103 2.11374 6.98741C-3.58318 21.521 3.36402 29.3744 9.62326 29.1536C1.5377 50.1018 17.313 62.9326 38.7638 55.8813C39.845 55.5007 39.5401 53.9322 38.4088 53.9683C18.2049 56.2167 3.84161 51.1981 12.0151 28.648C15.184 27.3709 17.6386 23.6723 17.2605 17.3295C29.6727 -3.74327 36.6457 13.4569 39.9627 17.2037C40.0229 17.5435 40.0674 17.8626 40.0738 18.1446C40.3604 19.0931 40.4043 22.3222 41.5589 22.389C42.8209 22.3546 42.3257 20.6795 42.5091 19.8495C42.6182 18.1088 42.8532 16.1821 43.0321 14.4337C43.163 13.3318 42.1711 12.3597 41.0701 12.5203C40.8273 12.5695 40.6209 12.6426 40.4457 12.7362C39.7785 11.1519 39.0011 9.79531 38.1373 8.6625C38.6821 8.20529 39.1542 7.40337 39.64 7.0505C41.0437 5.6312 42.6853 4.22957 44.4183 3.36966C53.3819 -0.287629 54.0339 13.4228 54.8117 19.2805C54.8831 20.3388 56.524 20.4857 56.7597 19.4236C57.6354 16.3017 57.6027 12.9723 56.8686 9.81264ZM14.368 19.3504C13.8353 22.9644 10.7843 27.3736 6.69993 25.5404C0.651728 22.0221 1.86814 13.6035 3.95897 7.71252C4.52708 7.57534 5.01283 7.15597 5.20461 6.55875C7.81665 -0.811328 17.5005 4.48389 20.3309 9.25428C19.0878 10.6061 17.9127 12.2249 16.8457 14.1041C16.498 13.1394 15.049 13.2835 14.9406 14.3523C14.8122 16.0533 14.7173 17.6971 14.368 19.3504Z" fill="#A8ABBE"/>
</g>
<defs>
<clipPath id="clip0_274_7445">
<rect width="58" height="58" fill="white"/>
</clipPath>
</defs>
</svg>
