<svg width="58" height="58" viewBox="0 0 58 58" fill="none" xmlns="http://www.w3.org/2000/svg">
<g clip-path="url(#clip0_274_7432)">
<path d="M44.1516 51.5991C44.1516 51.5991 44.1507 51.657 44.1506 51.657C44.1806 58.1178 35.9071 54.0777 32.4172 52.9305C26.7725 50.4879 18.4223 56.2061 14.4224 53.7698C13.8539 47.0465 21.0444 42.7447 22.2267 36.3459C23.0911 31.4729 27.9534 24.1482 32.6062 30.1401C34.8539 33.4032 35.1867 37.7897 37.7722 40.9343C38.2348 41.5207 38.7818 42.0467 39.3695 42.5058C40.3651 43.2348 41.5183 41.9218 40.6599 41.0263C36.9556 36.9008 37.9813 30.2027 33.6729 26.3974C26.8041 20.644 19.8218 28.8373 18.9726 35.6558C18.6441 37.4461 17.8384 39.0236 16.8852 40.6907C14.8661 44.1799 12.085 47.736 11.8418 51.958C11.0368 57.9888 17.7429 57.1257 21.5919 55.9104C24.4506 55.2135 27.3047 54.2743 30.2466 54.59C34.3089 55.4116 38.4124 58.008 42.7139 56.9885C45.2245 56.3068 46.1191 53.9943 46.1136 51.6296C46.0834 50.3289 44.2236 50.299 44.1516 51.5991Z" fill="#A8ABBE"/>
<path d="M46.3562 9.73958C44.8967 -3.08307 32.5545 -0.760803 32.3293 10.1056C30.9325 23.7415 47.1918 21.8932 46.3562 9.73958ZM43.217 12.0507C42.2591 15.9868 36.5243 18.2471 34.8716 13.553C33.7087 10.2492 33.9919 5.72523 37.2723 3.76195C39.3023 2.54939 41.2955 3.13743 42.3743 5.23857C43.3451 7.30527 43.9286 9.82476 43.217 12.0507Z" fill="#F77A09"/>
<path d="M17.6792 0.889911C8.56987 3.46208 10.5439 21.2102 20.6446 20.0548C29.5511 17.6967 27.6755 -0.826186 17.6792 0.889911ZM23.2669 14.4379C21.4375 18.6878 17.211 17.4775 15.9516 13.5606C14.1404 9.83698 15.8178 -0.191698 21.4928 3.61331C22.4764 4.39778 23.1007 5.50941 23.5119 6.7282C24.3092 9.19331 24.3236 12.0685 23.2669 14.4379Z" fill="#F77A09"/>
<path d="M54.8515 20.4838C47.907 15.9199 42.5356 29.6389 45.4436 34.745C46.2563 36.5553 48.388 37.7323 50.3538 37.5254C57.9208 36.312 60.7108 25.2757 54.8515 20.4838ZM51.3774 34.7508C46.733 37.3197 45.749 30.5853 47.0482 27.464C48.0457 25.7146 50.106 22.3538 52.4559 23.0841C56.072 25.9034 55.783 32.675 51.3774 34.7508Z" fill="#F77A09"/>
<path d="M0.456643 30.1787C2.88369 42.0875 17.8457 38.2289 13.0413 26.5425C9.59312 16.2112 -2.48221 19.4404 0.456643 30.1787ZM11.2003 31.4722C9.24546 36.1681 4.10249 33.5816 3.11864 29.4693C2.31649 27.4086 2.11995 24.667 3.89031 23.0751C5.32071 21.7944 7.51871 22.1655 8.88239 23.3847C10.9801 25.3017 12.1639 28.7367 11.2003 31.4722Z" fill="#F77A09"/>
</g>
<defs>
<clipPath id="clip0_274_7432">
<rect width="58" height="58" fill="white"/>
</clipPath>
</defs>
</svg>
