<svg width="100" height="79" viewBox="0 0 100 79" fill="none" xmlns="http://www.w3.org/2000/svg">
<path d="M68.4998 27.4483C68.8607 27.3268 69.3186 26.7343 69.3423 26.3585C69.8717 17.2944 62.3872 5.21103 59.6918 1.17676C57.5219 2.04168 55.4105 3.43967 53.4613 5.57015C53.4613 5.57015 49.5685 8.18249 48.1875 20.8753C55.4684 30.3046 64.5155 28.7627 68.4998 27.4483Z" fill="white"/>
<path d="M97.3754 11.3596L85.4475 8.44812C85.4475 8.44812 85.1074 5.5703 81.725 4.38778C79.2597 3.52377 70.765 -1.35845 62.4071 0.365937C65.567 5.17573 72.5964 17.0316 72.0406 26.5145C71.9579 28.0055 70.7726 29.5459 69.3476 30.0169C67.9778 30.4727 65.5194 31.1036 62.5316 31.1036C58.2028 31.1036 52.7657 29.7723 47.8674 24.654C47.7713 26.2805 47.7165 28.0397 47.7068 29.9432C47.6519 39.7613 35.1806 49.0703 35.1806 49.0703L33.5195 52.5127C36.9098 59.8533 42.2245 66.1274 48.8226 70.6808C49.1217 65.9917 50.2976 62.3183 51.6595 59.5578C54.2388 54.3146 57.8561 51.4047 59.702 50.1734C60.099 39.3519 63.6114 36.1892 66.5416 35.4661C67.4417 35.2431 68.3906 35.4352 69.137 35.9955C69.9865 36.6295 70.5329 37.676 70.5883 38.7994C70.739 41.7081 72.4582 43.7501 73.2734 44.5611C74.5953 44.6841 75.8573 44.8936 77.0452 45.1815L77.1543 44.1611L78.0623 35.3446C78.2162 33.8566 79.5536 32.6022 81.0341 32.3901C86.6557 31.5712 99.181 28.2413 99.995 14.7095C100.089 13.217 98.8283 11.716 97.3754 11.3596ZM78.7917 14.5029C77.9502 14.5029 77.2668 13.8225 77.2668 12.98C77.2668 12.1375 77.9502 11.4572 78.7917 11.4572C79.6352 11.4572 80.3152 12.1375 80.3152 12.98C80.3122 13.821 79.6336 14.5029 78.7917 14.5029Z" fill="white"/>
<path d="M85.4512 54.792C85.0003 50.9556 79.585 47.7944 72.5874 47.3453C72.5874 47.3453 68.872 44.489 68.6225 39.5586C68.5816 38.8122 68.0237 38.0703 67.2991 38.2491C65.4292 38.7092 62.2544 41.1097 62.0962 52.073C62.0962 52.073 51.9263 57.2037 51.1914 71.9955C57.7104 75.9122 65.3071 78.2097 73.4157 78.3433L73.3247 76.2244C73.2911 75.4779 73.8327 74.6594 74.5312 74.3978L83.1937 71.1491C83.1937 71.1491 87.2562 71.377 88.946 68.327C89.8016 66.7896 90.5956 65.7153 91.1805 65.0231C91.659 64.4537 91.6514 63.6397 91.1159 63.1193C89.3461 61.411 85.7882 57.6589 85.4512 54.792ZM80.3126 58.5053C79.4725 58.5053 78.7906 57.8268 78.7906 56.9837C78.7906 56.1388 79.4725 55.4587 80.3126 55.4587C81.1557 55.4587 81.8376 56.1388 81.8376 56.9837C81.8379 57.8265 81.156 58.5053 80.3126 58.5053Z" fill="white"/>
<path d="M0 17.2873C0 19.8526 2.07957 21.9321 4.64484 21.9321H11.7669V28.7446C11.7669 31.5236 14.0198 33.7765 16.7988 33.7765C19.5779 33.7765 21.8308 31.5236 21.8308 28.7446V21.9321H28.9529C31.5181 21.9321 33.5977 19.8526 33.5977 17.2873C33.5977 14.722 31.5181 12.6424 28.9529 12.6424H21.8308V5.83001C21.8308 3.05096 19.5779 0.798096 16.7988 0.798096C14.0198 0.798096 11.7669 3.05096 11.7669 5.83001V12.6424H4.64484C2.07957 12.6424 0 14.722 0 17.2873Z" fill="white"/>
</svg>
