<svg width="190" height="47" viewBox="0 0 190 47" fill="none" xmlns="http://www.w3.org/2000/svg">
<g clip-path="url(#clip0_105_2268)" filter="url(#filter0_d_105_2268)">
<path fill-rule="evenodd" clip-rule="evenodd" d="M24.6248 16.0077C22.9502 15.9852 21.253 16.2219 19.7176 16.7517C16.1878 17.9767 13.7757 20.0434 11.7511 23.0682C9.24485 26.8296 6.33219 35.2541 11.9769 38.3729C14.1971 39.5978 17.0007 38.8952 19.0177 37.317C21.0347 35.7388 23.0066 34.5476 24.6285 34.5476C26.2504 34.5476 28.2223 35.7388 30.2506 37.317C32.2677 38.8952 35.0599 39.5978 37.2802 38.3729C42.9249 35.2503 40.0122 26.8258 37.506 23.0682C35.4889 20.0434 33.0805 17.9767 29.5469 16.7517C28.0003 16.2181 26.3144 15.9852 24.6285 16.0077H24.6248ZM42.0556 10.0106C48.1255 11.2994 44.7236 22.3655 38.8983 21.3435C35.09 20.6709 34.7702 14.6136 38.3 11.2882C39.0789 10.5517 40.5277 9.6912 42.0556 10.0106ZM33.0956 0.180742C36.3281 1.19153 37.6715 5.37749 36.6592 9.11629C36.2001 10.8297 35.3911 12.3102 34.3111 13.3661C33.2875 14.3656 31.4097 15.4967 29.4265 14.8992C24.5533 13.4413 24.2861 5.50524 28.1132 1.71384C29.2007 0.65044 31.1011 -0.43926 33.0956 0.180742ZM7.20524 10.0106C1.13531 11.2994 4.52965 22.3655 10.3512 21.3435C14.1595 20.6709 14.4794 14.6136 10.9608 11.2882C10.1819 10.5517 8.72178 9.6912 7.20524 10.0106ZM16.1652 0.180742C12.9327 1.19153 11.5893 5.37749 12.6016 9.11629C13.0607 10.8297 13.8697 12.3102 14.9385 13.3661C15.962 14.3656 17.8511 15.4967 19.8343 14.8992C24.7 13.4413 24.9747 5.50524 21.1363 1.71384C20.0601 0.65044 18.1484 -0.43926 16.1652 0.180742Z" fill="white"/>
<path fill-rule="evenodd" clip-rule="evenodd" d="M11.7521 18.2437H6.7923C7.62395 19.371 8.78676 20.1074 10.1001 19.8745C10.9844 19.7242 11.4962 19.0741 11.7521 18.2437ZM37.5032 18.2437H42.4743C41.6426 19.371 40.4685 20.1074 39.1552 19.8745C38.2709 19.7242 37.7591 19.0741 37.5032 18.2437ZM34.933 3.78825H28.3287C28.5733 3.41625 28.8518 3.07431 29.1716 2.76618C29.6307 2.30776 30.2818 1.84933 31.0156 1.61636C31.5274 1.46606 32.0918 1.42473 32.6488 1.59382C33.6836 1.92448 34.4513 2.73237 34.933 3.78825ZM34.9556 9.57117H27.0417C26.9138 8.64305 26.9551 7.65481 27.1471 6.68535H35.5087C35.4975 7.67735 35.2942 8.63554 34.9556 9.57117ZM43.6936 15.3541H37.5484C37.8268 14.3095 38.38 13.2874 39.2229 12.457H43.2758C43.829 13.2874 43.8516 14.4072 43.6936 15.3541ZM28.2685 12.457H33.1116C32.2574 13.2235 31.0118 13.821 29.8565 13.4791C29.2281 13.2874 28.6937 12.9455 28.2685 12.457ZM33.1342 20.3592H16.1362C17.2877 19.4311 18.6198 18.6984 20.2003 18.1535C20.8514 17.928 21.5551 17.759 22.2926 17.6425C23.0829 17.526 23.8619 17.4734 24.6182 17.4809H24.6408C25.4085 17.4696 26.1875 17.5222 26.9664 17.6425C27.704 17.759 28.4077 17.9318 29.0663 18.1535C30.6468 18.6984 31.9676 19.4311 33.1304 20.3592H33.1342ZM37.6048 26.3225H11.6656C12.1359 25.2591 12.6891 24.2896 13.374 23.339H35.8926C36.5662 24.2859 37.1194 25.2553 37.601 26.3225H37.6048ZM39.0461 32.2971H10.2167C10.2167 31.2975 10.3786 30.283 10.6232 29.3135H38.6321C38.8767 30.283 39.0386 31.2938 39.0386 32.2971H39.0461ZM30.1726 35.2806H38.3762C38.0564 35.8668 37.6086 36.3891 37.0102 36.7949C36.9877 36.8174 36.9688 36.8287 36.9463 36.8475C36.7957 36.9452 36.6678 37.0166 36.5737 37.073C35.934 37.4262 35.1663 37.4788 34.3873 37.3623C32.4982 37.0842 31.5725 36.3816 30.1726 35.2843V35.2806ZM14.3223 3.79201H20.9341C20.6895 3.42 20.3998 3.07806 20.0912 2.76994C19.6321 2.31152 18.9698 1.85309 18.236 1.62012C17.7242 1.46982 17.171 1.42848 16.6028 1.59757C15.5679 1.92824 14.8002 2.73612 14.3186 3.79201H14.3223ZM14.2997 9.57493H22.2136C22.3416 8.64681 22.3114 7.65856 22.1082 6.6891H13.7579C13.7691 7.68111 13.9611 8.63929 14.3035 9.57493H14.2997ZM5.56552 15.3579H11.7182C11.4285 14.3132 10.8753 13.2912 10.0324 12.4608H5.97947C5.43381 13.2912 5.40371 14.4109 5.56176 15.3579H5.56552ZM21.0019 12.4608H16.1587C17.013 13.2273 18.251 13.8248 19.4138 13.4828C20.031 13.2912 20.5654 12.9492 21.0019 12.4608ZM19.094 35.2881H10.8866C11.2403 35.9382 11.7182 36.4492 12.3279 36.855C12.4784 36.9527 12.6063 37.0241 12.7004 37.0805C13.3289 37.4337 14.0965 37.4863 14.8868 37.3698C16.7646 37.0917 17.7016 36.3891 19.0902 35.2919L19.094 35.2881Z" fill="#AAB1DD"/>
<path d="M53.5039 18.8932C53.5039 19.874 54.2415 20.6706 55.3403 20.6706C56.4391 20.6706 57.1767 19.8702 57.1767 18.8932V12.355L59.3857 16.2216C59.8448 16.9994 60.4732 17.3827 61.2522 17.3827C62.0312 17.3827 62.6596 16.9994 63.1074 16.2216L65.2938 12.355V18.8932C65.2938 19.874 66.0502 20.6706 67.1076 20.6706C68.2177 20.6706 68.9741 19.8702 68.9741 18.8932V7.87973C68.9741 6.56082 67.9807 5.54627 66.5733 5.54627C65.6362 5.54627 64.9513 5.92954 64.4922 6.72991L61.2296 12.5654L57.9745 6.72991C57.5267 5.92954 56.8343 5.54627 55.9048 5.54627C54.4522 5.54627 53.5039 6.55706 53.5039 7.87973V18.8932ZM70.7842 18.9158C70.7842 19.8965 71.4992 20.6743 72.6093 20.6743C73.5802 20.6743 74.2086 20.2572 74.4645 19.4193L74.965 17.7998H79.4883L79.9587 19.4193C80.2033 20.2197 80.843 20.6743 81.7838 20.6743C82.9052 20.6743 83.703 19.9829 83.703 18.9158C83.703 18.6828 83.6616 18.4273 83.5525 18.1154L80.0001 7.50773C79.5523 6.19633 78.6341 5.52748 77.2794 5.52748C75.9246 5.52748 75.0516 6.20009 74.5925 7.50773L70.9535 18.1154C70.8482 18.4235 70.7842 18.679 70.7842 18.9158ZM77.2605 10.2771L78.5739 14.7524H75.8983L77.2643 10.2771H77.2605ZM82.4762 7.42131C82.4762 8.35695 83.2213 9.11598 84.1207 9.11598H87.2366V18.8293C87.2366 19.8514 88.1021 20.6706 89.137 20.6706C90.1718 20.6706 91.0449 19.8063 91.0449 18.8293V9.11598H94.1608C95.0451 9.11598 95.8052 8.3607 95.8052 7.42131C95.8052 6.48191 95.0489 5.73791 94.1608 5.73791H84.1245C83.2289 5.73791 82.48 6.49318 82.48 7.42131H82.4762ZM97.1863 18.8293C97.1863 19.8514 98.0518 20.6706 99.0867 20.6706C100.122 20.6706 100.995 19.8063 100.995 18.8293V16.3268H103.983C105.337 16.3268 106.447 15.9848 107.309 15.2935C108.547 14.3578 109.304 12.821 109.304 11.0323C109.304 9.24374 108.611 7.8384 107.46 6.88773C106.553 6.13245 105.36 5.73791 103.877 5.73791H99.0867C98.0518 5.73791 97.1863 6.55706 97.1863 7.60167V18.8293ZM100.995 9.07089H103.395C103.941 9.07089 104.344 9.1761 104.675 9.39028C105.164 9.70968 105.431 10.2545 105.431 11.0323C105.431 11.8102 105.164 12.3964 104.652 12.6932C104.321 12.8961 103.915 13.0013 103.395 13.0013H100.995V9.07089ZM110.82 13.1065C110.82 17.6457 114.489 20.648 118.798 20.648C123.107 20.648 126.757 17.7284 126.757 13.1065C126.832 8.63125 122.96 5.4373 118.798 5.52372C116.653 5.52372 114.647 6.279 113.198 7.57912C111.746 8.86798 110.82 10.882 110.82 13.1065ZM118.798 9.08967C119.949 9.08967 120.879 9.47295 121.613 10.2282C122.35 10.9835 122.712 11.9342 122.712 13.1028C122.712 14.2714 122.35 15.2221 121.613 15.9773C120.875 16.7326 119.927 17.0971 118.775 17.0971C117.624 17.0971 116.694 16.7364 115.961 15.9773C115.227 15.2183 114.862 14.2639 114.862 13.1028C114.862 11.9417 115.223 10.9835 115.961 10.2282C116.698 9.47295 117.658 9.08967 118.798 9.08967ZM128.368 13.084C128.326 17.6645 131.739 20.7307 136.327 20.6668C137.606 20.6668 138.769 20.4639 139.815 20.1032C140.658 19.7838 141.234 19.175 141.234 18.3972C141.234 17.3752 140.432 16.6199 139.461 16.6199C139.164 16.6199 138.404 16.8641 137.839 17.0144C137.316 17.1422 136.805 17.2061 136.281 17.2061C135.13 17.2061 134.2 16.8228 133.444 16.045C132.706 15.2671 132.345 14.2676 132.345 13.084C132.345 11.9004 132.729 10.9234 133.485 10.1456C134.242 9.34519 135.183 8.9544 136.281 8.9544C136.827 8.9544 137.316 9.01828 137.775 9.13477C138.257 9.28507 138.874 9.47671 139.205 9.47671C140.176 9.47671 140.978 8.72143 140.978 7.70688C140.978 6.90652 140.455 6.30154 139.589 6.02348C138.66 5.69282 137.606 5.54251 136.368 5.54251C132.078 5.54251 128.368 8.71767 128.368 13.084ZM143.055 18.803C143.055 19.8251 143.921 20.6443 144.955 20.6443C145.99 20.6443 146.863 19.78 146.863 18.803V14.7223H147.665L151.409 19.8439C151.816 20.3775 152.339 20.663 153.009 20.663C154.066 20.663 154.864 19.8439 154.864 18.7767C154.864 18.307 154.694 17.8486 154.352 17.4465L150.777 12.8134L154.126 8.60495C154.457 8.2104 154.627 7.80458 154.627 7.39125C154.627 6.35791 153.848 5.51621 152.813 5.51621C152.203 5.51621 151.703 5.77172 151.319 6.29403L147.639 11.3517H146.86V7.34615C146.86 6.33536 145.994 5.51245 144.952 5.51245C143.909 5.51245 143.051 6.3316 143.051 7.34615V18.7955L143.055 18.803ZM156.708 18.8256C156.708 19.8476 157.573 20.6668 158.608 20.6668C159.643 20.6668 160.516 19.8026 160.516 18.8256V18.3559L166.18 12.5842V18.8256C166.18 19.8476 167.045 20.6668 168.087 20.6668C169.13 20.6668 169.988 19.8026 169.988 18.8256V7.37997C169.988 6.36918 169.122 5.54627 168.087 5.54627C167.053 5.54627 166.18 6.36542 166.18 7.37997V7.94361L160.516 13.6965V7.37997C160.516 6.36918 159.65 5.54627 158.608 5.54627C157.566 5.54627 156.708 6.36542 156.708 7.37997V18.8293V18.8256ZM172.761 18.8256C172.761 19.8476 173.627 20.6668 174.662 20.6668C175.696 20.6668 176.57 19.8026 176.57 18.8256V14.7261H182.192V18.8256C182.192 19.8476 183.057 20.6668 184.1 20.6668C185.142 20.6668 186 19.8026 186 18.8256V7.37997C186 6.36918 185.157 5.54627 184.1 5.54627C183.042 5.54627 182.192 6.36542 182.192 7.37997V11.363H176.57V7.37997C176.57 6.36918 175.704 5.54627 174.662 5.54627C173.619 5.54627 172.761 6.36542 172.761 7.37997V18.8293V18.8256Z" fill="white"/>
<path opacity="0.5" d="M56.2535 33.4349C57.8002 33.4349 58.7598 32.6045 58.7598 31.4734C58.7598 30.6843 58.2894 30.2372 57.6496 30.023C58.2028 29.7562 58.5979 29.3316 58.5979 28.5838C58.5979 27.6031 57.6383 26.8892 56.2309 26.8892C55.0267 26.8892 54.2026 27.3476 53.5967 27.9526L54.4623 28.9746C54.8574 28.6214 55.5385 28.3584 56.0842 28.3584C56.5734 28.3584 56.8744 28.5838 56.8744 28.9107C56.8744 29.2377 56.6185 29.4857 55.9901 29.4857H55.3504V30.7745H56.0014C56.6938 30.7745 57.0137 31 57.0137 31.3381C57.0137 31.6763 56.6938 31.9544 56.0541 31.9544C55.309 31.9544 54.7219 31.6575 54.2741 31.2104L53.3672 32.3715C54.0709 32.9877 54.8198 33.4274 56.2573 33.4274L56.2535 33.4349ZM63.4862 33.4462C65.4393 33.4462 66.8994 31.9769 66.8994 30.1658C66.8994 28.3546 65.4581 26.8967 63.5088 26.8967C61.5595 26.8967 60.107 28.3546 60.107 30.1658C60.107 31.9769 61.5482 33.4462 63.49 33.4462H63.4862ZM63.5088 31.868C62.5492 31.868 61.8982 31.0676 61.8982 30.162C61.8982 29.2564 62.5379 28.4561 63.4862 28.4561C64.4346 28.4561 65.1082 29.2564 65.1082 30.162C65.1082 31.0676 64.4684 31.868 63.5088 31.868ZM71.7124 33.4462C73.6542 33.4462 75.1143 31.9769 75.1143 30.1658C75.1143 28.3546 73.673 26.8967 71.7237 26.8967C69.7744 26.8967 68.3219 28.3546 68.3219 30.1658C68.3219 31.9769 69.7631 33.4462 71.7124 33.4462ZM71.7237 31.868C70.7754 31.868 70.1131 31.0676 70.1131 30.162C70.1131 29.2564 70.7528 28.4561 71.7124 28.4561C72.672 28.4561 73.3344 29.2564 73.3344 30.162C73.3344 31.0676 72.6946 31.868 71.7237 31.868ZM76.7588 33.3184H78.4673V29.7186L80.0779 32.1686H80.1117L81.7224 29.6961V33.3184H83.4609V27.0132H81.617L80.1117 29.4518L78.6065 27.0132H76.7626V33.3184H76.7588ZM84.8006 33.3184H86.637L87.0961 32.1911H89.5271L89.9862 33.3184H91.864L89.1771 26.9718H87.4912L84.8044 33.3184H84.8006ZM87.6079 30.8384L88.3229 29.0385L89.0153 30.8384H87.6079ZM93.1961 33.3184H94.946V28.5463H97.742V27.0132H93.1961V33.3184ZM98.7016 33.3184H100.546L100.993 32.1911H103.424L103.883 33.3184H105.761L103.074 26.9718H101.388L98.7016 33.3184ZM101.509 30.8384L102.224 29.0385L102.928 30.8384H101.509ZM109.539 33.4386C111.086 33.4386 112.046 32.6082 112.046 31.4772C112.046 30.6881 111.575 30.2409 110.936 30.0267C111.489 29.76 111.873 29.3354 111.873 28.5876C111.873 27.6069 110.924 26.8929 109.517 26.8929C108.313 26.8929 107.489 27.3513 106.883 27.9563L107.748 28.9784C108.143 28.6252 108.824 28.3621 109.37 28.3621C109.852 28.3621 110.16 28.5876 110.16 28.9145C110.16 29.2414 109.904 29.4894 109.265 29.4894H108.625V30.7783H109.287C109.98 30.7783 110.3 31.0037 110.3 31.3419C110.3 31.6801 109.98 31.9581 109.329 31.9581C108.584 31.9581 108.008 31.6613 107.556 31.2141L106.649 32.3752C107.342 32.9915 108.102 33.4311 109.539 33.4311V33.4386ZM113.604 33.3222H115.237L117.679 29.775V33.3222H119.406V27.0169H117.773L115.331 30.5641V27.0169H113.604V33.3222ZM121.25 33.3222H123V30.9248H125.239V33.3222H126.989V27.0169H125.239V29.3804H123V27.0169H121.25V33.3222Z" fill="white"/>
</g>
<defs>
<filter id="filter0_d_105_2268" x="0" y="0" width="190" height="47" filterUnits="userSpaceOnUse" color-interpolation-filters="sRGB">
<feFlood flood-opacity="0" result="BackgroundImageFix"/>
<feColorMatrix in="SourceAlpha" type="matrix" values="0 0 0 0 0 0 0 0 0 0 0 0 0 0 0 0 0 0 127 0" result="hardAlpha"/>
<feOffset dy="4"/>
<feGaussianBlur stdDeviation="2"/>
<feComposite in2="hardAlpha" operator="out"/>
<feColorMatrix type="matrix" values="0 0 0 0 0 0 0 0 0 0 0 0 0 0 0 0 0 0 0.25 0"/>
<feBlend mode="normal" in2="BackgroundImageFix" result="effect1_dropShadow_105_2268"/>
<feBlend mode="normal" in="SourceGraphic" in2="effect1_dropShadow_105_2268" result="shape"/>
</filter>
<clipPath id="clip0_105_2268">
<rect width="182" height="39" fill="white" transform="translate(4)"/>
</clipPath>
</defs>
</svg>
