<svg width="150" height="24" viewBox="0 0 150 24" fill="none" xmlns="http://www.w3.org/2000/svg">
<g opacity="0.6">
<path d="M41.0249 14.7882C41.0249 15.4762 40.8154 16.0352 40.3964 16.4652C39.9773 16.8951 39.3705 17.1703 38.576 17.2908L40.9725 19.9738V20.3221H38.3534L35.7997 17.3553H34.4508V20.3221H32.1328V11.8601H37.6462C38.6939 11.8601 39.5189 12.1095 40.1213 12.6082C40.7237 13.107 41.0249 13.7907 41.0249 14.6592V14.7882ZM38.6677 14.6463C38.6677 14.1132 38.3098 13.8466 37.5938 13.8466H34.4508V15.588H37.5938C37.9431 15.588 38.2093 15.5192 38.3927 15.3816C38.576 15.244 38.6677 15.042 38.6677 14.7753V14.6463ZM50.4889 11.8601V13.8337H45.0017V15.1107H50.2269V17.0586H45.0017V18.3485H50.4889V20.3221H42.6837V11.8601H50.4889ZM61.2229 19.9738V20.3221H58.9312L58.2633 18.7613H54.256L53.5881 20.3221H51.2963V19.9738L54.9762 11.8601H57.543L61.2229 19.9738ZM57.4514 16.8393L56.2596 14.0401L55.0679 16.8393H57.4514ZM66.6254 11.8601C68.2667 11.8601 69.5022 12.2127 70.3315 12.9178C71.1697 13.6144 71.5888 14.655 71.5888 16.0395V16.1556C71.5888 18.9333 69.9343 20.3221 66.6254 20.3221H62.2252V11.8601H66.6254ZM66.6254 18.284C67.5333 18.284 68.1925 18.1163 68.6029 17.7809C69.0219 17.4456 69.2315 16.9167 69.2315 16.1943V16.0137C69.2315 15.2999 69.0176 14.7711 68.5898 14.427C68.162 14.0745 67.5028 13.8982 66.6123 13.8982H64.5432V18.284H66.6254ZM81.2405 11.8601V12.2084L77.5864 17.0328V20.3221H75.2685V17.0328L71.6017 12.2084V11.8601H74.0638L76.4344 15.0591L78.7917 11.8601H81.2405ZM86.5232 20.4898C85.4671 20.4898 84.5374 20.3135 83.7341 19.9609C82.9392 19.5997 82.324 19.0923 81.8877 18.4388C81.4597 17.7852 81.2458 17.0199 81.2458 16.1427V16.0524C81.2458 15.1752 81.4597 14.4099 81.8877 13.7563C82.324 13.0941 82.9392 12.5868 83.7341 12.2342C84.5374 11.873 85.4671 11.6924 86.5232 11.6924C87.51 11.6924 88.3963 11.8515 89.1813 12.1697C89.9671 12.4878 90.5785 12.9264 91.0148 13.4854C91.4602 14.0444 91.6833 14.6764 91.6833 15.3816V15.4848H89.3123V15.3816C89.3123 14.9086 89.0549 14.5302 88.5402 14.2464C88.0339 13.9627 87.3615 13.8208 86.5232 13.8208C84.5762 13.8208 83.6031 14.556 83.6031 16.0266V16.1814C83.6031 16.9123 83.843 17.4585 84.3234 17.8196C84.8031 18.1808 85.5364 18.3614 86.5232 18.3614C87.3874 18.3614 88.0689 18.2238 88.5661 17.9486C89.0641 17.6734 89.3123 17.295 89.3123 16.8135V16.7232H91.6833V16.8135C91.6833 17.5186 91.4602 18.1507 91.0148 18.7097C90.5785 19.2687 89.9671 19.7072 89.1813 20.0254C88.3963 20.335 87.51 20.4898 86.5232 20.4898ZM97.9042 20.4898C96.8648 20.4898 95.9481 20.3135 95.1539 19.9609C94.3681 19.5997 93.7613 19.0923 93.3333 18.4388C92.9054 17.7766 92.6915 17.0112 92.6915 16.1427V16.0524C92.6915 15.1752 92.9054 14.4099 93.3333 13.7563C93.7613 13.0941 94.3681 12.5868 95.1539 12.2342C95.9481 11.873 96.8648 11.6924 97.9042 11.6924C98.9603 11.6924 99.8816 11.873 100.667 12.2342C101.453 12.5868 102.059 13.0941 102.487 13.7563C102.915 14.4099 103.129 15.1752 103.129 16.0524V16.1427C103.129 17.0199 102.915 17.7852 102.487 18.4388C102.059 19.0923 101.453 19.5997 100.667 19.9609C99.8816 20.3135 98.9603 20.4898 97.9042 20.4898ZM97.9042 18.3614C99.8161 18.3614 100.772 17.6347 100.772 16.1814V16.0266C100.772 15.3042 100.527 14.7582 100.038 14.3883C99.558 14.01 98.8468 13.8208 97.9042 13.8208C96.9783 13.8208 96.2709 14.01 95.7821 14.3883C95.2932 14.7667 95.0488 15.3128 95.0488 16.0266V16.1814C95.0488 16.8951 95.2887 17.4369 95.7691 17.8067C96.2496 18.1765 96.9608 18.3614 97.9042 18.3614ZM108.982 11.8601C110.624 11.8601 111.859 12.2127 112.689 12.9178C113.526 13.6144 113.946 14.655 113.946 16.0395V16.1556C113.946 18.9333 112.291 20.3221 108.982 20.3221H104.582V11.8601H108.982ZM108.982 18.284C109.89 18.284 110.55 18.1163 110.959 17.7809C111.379 17.4456 111.588 16.9167 111.588 16.1943V16.0137C111.588 15.2999 111.374 14.7711 110.947 14.427C110.519 14.0745 109.86 13.8982 108.969 13.8982H106.9V18.284H108.982ZM123.207 11.8601V13.8337H117.719V15.1107H122.945V17.0586H117.719V18.3485H123.207V20.3221H115.402V11.8601H123.207ZM126.122 20.4898C125.739 20.4898 125.424 20.3737 125.18 20.1415C124.935 19.9007 124.813 19.5954 124.813 19.2256C124.813 18.8559 124.935 18.5592 125.18 18.3356C125.424 18.1034 125.739 17.9873 126.122 17.9873C126.515 17.9873 126.83 18.1034 127.066 18.3356C127.31 18.5592 127.432 18.8559 127.432 19.2256C127.432 19.6041 127.31 19.9093 127.066 20.1415C126.83 20.3737 126.515 20.4898 126.122 20.4898ZM138.132 14.7882C138.132 15.4762 137.921 16.0352 137.503 16.4652C137.084 16.8951 136.477 17.1703 135.682 17.2908L138.079 19.9738V20.3221H135.46L132.906 17.3553H131.557V20.3221H129.239V11.8601H134.752C135.8 11.8601 136.625 12.1095 137.228 12.6082C137.83 13.107 138.132 13.7907 138.132 14.6592V14.7882ZM135.774 14.6463C135.774 14.1132 135.416 13.8466 134.7 13.8466H131.557V15.588H134.7C135.049 15.588 135.316 15.5192 135.499 15.3816C135.682 15.244 135.774 15.042 135.774 14.7753V14.6463ZM144.046 20.4898C143.165 20.4898 142.392 20.3221 141.729 19.9867C141.065 19.6428 140.554 19.1568 140.196 18.5291C139.838 17.9013 139.659 17.1747 139.659 16.3491V11.8601H141.977V16.3878C141.977 17.0328 142.152 17.5229 142.501 17.8583C142.85 18.1937 143.366 18.3614 144.046 18.3614C144.736 18.3614 145.255 18.1937 145.605 17.8583C145.954 17.5229 146.129 17.0328 146.129 16.3878V11.8601H148.447V16.3491C148.447 17.1832 148.263 17.9142 147.896 18.542C147.538 19.1611 147.028 19.6428 146.364 19.9867C145.701 20.3221 144.928 20.4898 144.046 20.4898Z" fill="#FCFCFC"/>
<path d="M35.7084 1.70616C36.2809 1.70616 36.7336 1.842 37.0667 2.11368C37.3998 2.38024 37.5663 2.74163 37.5663 3.19786V3.29013C37.5663 3.74635 37.3998 4.11031 37.0667 4.38199C36.7336 4.64855 36.2809 4.78183 35.7084 4.78183H33.3353V6.75026H32.5547V1.70616H35.7084ZM35.6928 4.09749C36.0363 4.09749 36.3017 4.02829 36.489 3.88988C36.6816 3.74635 36.7778 3.54643 36.7778 3.29013V3.19786C36.7778 2.94155 36.6816 2.7442 36.489 2.60579C36.3017 2.46226 36.0363 2.3905 35.6928 2.3905H33.3353V4.09749H35.6928ZM43.1419 6.63493V6.75026H42.3457L41.7367 5.47386H38.8484L38.2395 6.75026H37.4433V6.63493L39.8633 1.70616H40.7219L43.1419 6.63493ZM41.4011 4.78183L40.2926 2.46739L39.1841 4.78183H41.4011ZM48.2821 4.18976C48.5579 4.29229 48.7687 4.43326 48.9144 4.61266C49.0601 4.79208 49.133 4.99969 49.133 5.23549V5.32776C49.133 5.80962 48.8962 6.18382 48.4226 6.45038C47.9542 6.71182 47.2854 6.84253 46.4164 6.84253C45.4744 6.84253 44.7562 6.66824 44.2618 6.31966C43.7726 5.96596 43.5281 5.45079 43.5281 4.77414V4.70494H44.3165V4.77414C44.3165 5.24062 44.4856 5.58407 44.8238 5.80449C45.1673 6.01979 45.7034 6.12744 46.432 6.12744C47.0825 6.12744 47.5639 6.0608 47.8762 5.92752C48.1884 5.79424 48.3445 5.58663 48.3445 5.3047V5.22011C48.3445 4.98431 48.2274 4.81771 47.9933 4.72032C47.7591 4.61779 47.3609 4.56653 46.7989 4.56653H45.4328V3.88219H46.7442C47.2647 3.88219 47.6394 3.82837 47.8683 3.72072C48.1025 3.61307 48.2196 3.43879 48.2196 3.19786V3.11328C48.2196 2.59041 47.6029 2.32898 46.3695 2.32898C45.6826 2.32898 45.1726 2.44175 44.8395 2.66731C44.5064 2.89285 44.3399 3.23374 44.3399 3.68997V3.75148H43.5593V3.68997C43.5593 3.01844 43.8013 2.50583 44.2852 2.15213C44.7744 1.7933 45.4744 1.61389 46.3851 1.61389C47.2178 1.61389 47.8631 1.74204 48.3211 1.99834C48.7791 2.25465 49.0081 2.61348 49.0081 3.07483V3.17479C49.0081 3.63101 48.766 3.96934 48.2821 4.18976ZM53.364 1.70616C53.9365 1.70616 54.3892 1.842 54.7223 2.11368C55.0554 2.38024 55.2219 2.74163 55.2219 3.19786V3.29013C55.2219 3.74635 55.0554 4.11031 54.7223 4.38199C54.3892 4.64855 53.9365 4.78183 53.364 4.78183H50.9909V6.75026H50.2103V1.70616H53.364ZM53.3484 4.09749C53.6919 4.09749 53.9573 4.02829 54.1446 3.88988C54.3372 3.74635 54.4334 3.54643 54.4334 3.29013V3.19786C54.4334 2.94155 54.3372 2.7442 54.1446 2.60579C53.9573 2.46226 53.6919 2.3905 53.3484 2.3905H50.9909V4.09749H53.3484ZM60.7975 6.63493V6.75026H60.0013L59.3924 5.47386H56.5041L55.8951 6.75026H55.0989V6.63493L57.5189 1.70616H58.3775L60.7975 6.63493ZM59.0567 4.78183L57.9482 2.46739L56.8397 4.78183H59.0567ZM66.1958 1.70616V2.3905H62.4488V3.8053H64.736C65.3241 3.8053 65.7795 3.93089 66.1021 4.18207C66.4299 4.42813 66.5939 4.7767 66.5939 5.2278V5.32776C66.5939 5.77373 66.4299 6.12231 66.1021 6.37349C65.7742 6.62467 65.3189 6.75026 64.736 6.75026H61.6682V1.70616H66.1958ZM64.7282 6.06592C65.0613 6.06592 65.3241 5.99929 65.5166 5.866C65.7144 5.73273 65.8133 5.55331 65.8133 5.32776V5.2278C65.8133 4.99713 65.717 4.81771 65.5245 4.68956C65.3319 4.55628 65.0665 4.48964 64.7282 4.48964H62.4488V6.06592H64.7282ZM70.5061 6.84253C69.918 6.84253 69.4028 6.73744 68.9604 6.52727C68.5181 6.31711 68.1772 6.01979 67.9378 5.63533C67.6984 5.25087 67.5787 4.79977 67.5787 4.28203V4.18207C67.5787 3.66433 67.6984 3.21324 67.9378 2.82877C68.1772 2.43919 68.5181 2.13931 68.9604 1.92914C69.4028 1.71897 69.918 1.61389 70.5061 1.61389C71.0941 1.61389 71.6068 1.71897 72.0439 1.92914C72.4863 2.13931 72.8271 2.43919 73.0665 2.82877C73.3059 3.21324 73.4256 3.66433 73.4256 4.18207V4.28203C73.4256 4.79977 73.3059 5.25087 73.0665 5.63533C72.8271 6.01979 72.4863 6.31711 72.0439 6.52727C71.6068 6.73744 71.0941 6.84253 70.5061 6.84253ZM70.5061 6.12744C71.1774 6.12744 71.7004 5.96596 72.0751 5.64302C72.4498 5.32007 72.6372 4.87153 72.6372 4.29741V4.17439C72.6372 3.59513 72.4498 3.14404 72.0751 2.82109C71.7004 2.49301 71.1774 2.32898 70.5061 2.32898C69.8347 2.32898 69.3091 2.49301 68.9292 2.82109C68.5545 3.14404 68.3671 3.59513 68.3671 4.17439V4.29741C68.3671 4.87153 68.5545 5.32007 68.9292 5.64302C69.3091 5.96596 69.8347 6.12744 70.5061 6.12744ZM73.7898 2.3905V1.70616H78.997V2.3905H76.7797V6.75026H76.0068V2.3905H73.7898ZM84.8782 1.82149L82.4576 4.18207L84.7998 6.63493V6.75026H83.8944L81.7708 4.54346H80.5922V6.75026H79.8117V1.70616H80.5922V3.85144H81.7556L83.9409 1.70616H84.8782V1.82149ZM91.2147 6.63493V6.75026H90.4183L89.8092 5.47386H86.9211L86.3119 6.75026H85.5163V6.63493L87.9361 1.70616H88.7949L91.2147 6.63493ZM89.4734 4.78183L88.3655 2.46739L87.2569 4.78183H89.4734ZM97.501 6.84253C96.9025 6.84253 96.3795 6.74001 95.9317 6.53497C95.4848 6.32479 95.1383 6.02748 94.8939 5.64302C94.6548 5.25856 94.5345 4.81003 94.5345 4.29741V4.16669C94.5345 3.65408 94.6548 3.20554 94.8939 2.82109C95.1383 2.43663 95.4848 2.13931 95.9317 1.92914C96.3795 1.71897 96.9025 1.61389 97.501 1.61389C98.0424 1.61389 98.529 1.70359 98.9607 1.88301C99.3977 2.06242 99.7389 2.31104 99.9833 2.62886C100.233 2.94155 100.358 3.29269 100.358 3.68227V3.75148H99.5698V3.68227C99.5698 3.42597 99.4815 3.19529 99.3041 2.99025C99.1274 2.78521 98.88 2.62373 98.5624 2.50583C98.2503 2.38793 97.897 2.32898 97.501 2.32898C96.8036 2.32898 96.2652 2.48789 95.8853 2.80571C95.5107 3.12353 95.3234 3.57463 95.3234 4.159V4.3051C95.3234 4.88948 95.5107 5.34058 95.8853 5.6584C96.2652 5.97109 96.8036 6.12744 97.501 6.12744C97.9015 6.12744 98.2586 6.07105 98.5708 5.95828C98.8883 5.84038 99.1328 5.6789 99.3041 5.47386C99.4815 5.26881 99.5698 5.03814 99.5698 4.78183V4.70494H100.358V4.78183C100.358 5.17141 100.233 5.52256 99.9833 5.83525C99.7389 6.14794 99.3977 6.394 98.9607 6.57341C98.529 6.75283 98.0424 6.84253 97.501 6.84253ZM106.408 6.63493V6.75026H105.612L105.003 5.47386H102.114L101.505 6.75026H100.709V6.63493L103.129 1.70616H103.988L106.408 6.63493ZM104.667 4.78183L103.559 2.46739L102.45 4.78183H104.667ZM108.059 1.70616V5.70453L111.455 1.70616H112.235V6.75026H111.455V2.75188L108.059 6.75026H107.278V1.70616H108.059ZM109.761 1.1756C109.219 1.1756 108.808 1.08589 108.527 0.906479C108.246 0.727066 108.106 0.465634 108.106 0.122183V0.0683594H108.793V0.122183C108.793 0.260588 108.876 0.368237 109.043 0.445129C109.209 0.516895 109.448 0.552778 109.761 0.552778C110.063 0.552778 110.291 0.516895 110.447 0.445129C110.609 0.368237 110.69 0.260588 110.69 0.122183V0.0683594H111.416V0.122183C111.416 0.47076 111.275 0.734755 110.994 0.914167C110.719 1.08846 110.307 1.1756 109.761 1.1756ZM113.05 2.3905V1.70616H118.257V2.3905H116.039V6.75026H115.267V2.3905H113.05ZM123.591 6.63493V6.75026H122.795L122.186 5.47386H119.297L118.688 6.75026H117.892V6.63493L120.312 1.70616H121.171L123.591 6.63493ZM121.85 4.78183L120.741 2.46739L119.633 4.78183H121.85Z" fill="#FCFCFC"/>
<path fill-rule="evenodd" clip-rule="evenodd" d="M0 1.74243C0.0113606 1.81199 0.0230657 1.89366 0.0317391 1.96619C0.0474006 2.09717 0.0849822 2.32937 0.115284 2.48217C0.145586 2.63498 0.18172 2.93266 0.195608 3.14368C0.209497 3.3547 0.23816 3.6107 0.259329 3.71258C0.280496 3.81445 0.316358 4.0469 0.339031 4.22911C0.361703 4.41134 0.393053 4.62567 0.408688 4.7054C0.451858 4.92576 0.509855 5.42477 0.530082 5.75003C0.540049 5.91011 0.570324 6.13634 0.597403 6.25277C0.624455 6.3692 0.659859 6.58352 0.676085 6.72905C0.692284 6.87459 0.728657 7.10083 0.75689 7.2318C0.785124 7.36278 0.815589 7.60688 0.824589 7.77428C0.833589 7.9416 0.86397 8.22143 0.892096 8.39603C0.920246 8.5707 0.961858 8.85053 0.984586 9.01785C1.00734 9.18525 1.04325 9.41145 1.06442 9.52065C1.08559 9.62978 1.11699 9.89768 1.13418 10.116C1.15141 10.3343 1.18984 10.6558 1.21964 10.8304C1.24945 11.0051 1.28967 11.273 1.30907 11.4258C1.34449 11.7053 1.39194 11.9703 1.41246 12.0033C1.41854 12.0131 1.43763 12.2236 1.45493 12.4709C1.47221 12.7184 1.50839 13.028 1.53534 13.1589C1.56231 13.2899 1.59285 13.4864 1.60327 13.5956C1.6137 13.7047 1.64534 13.9071 1.67363 14.0453C1.70189 14.1836 1.74353 14.5229 1.76615 14.7995C1.78874 15.076 1.82532 15.3975 1.84741 15.5139C1.86952 15.6303 1.91177 15.9042 1.94137 16.1225C1.97095 16.3408 2.00644 16.5612 2.02024 16.6123C2.03405 16.6634 2.06301 16.9198 2.08458 17.1821C2.10618 17.4445 2.14193 17.7361 2.16407 17.8301C2.18621 17.9242 2.22427 18.1559 2.24866 18.3451C2.27306 18.5344 2.30922 18.7547 2.32901 18.8347C2.34881 18.9147 2.37844 19.1707 2.39483 19.4036C2.42615 19.8483 2.48938 20.3296 2.53046 20.436C2.54381 20.4706 2.58333 20.5174 2.61828 20.5399C2.67538 20.5768 3.75301 20.581 13.2753 20.5811C22.6623 20.5813 23.8758 20.5768 23.9305 20.5415C24.0348 20.4742 24.0538 20.4017 24.0895 19.9345C24.1086 19.6862 24.1425 19.3937 24.1648 19.2845C24.1873 19.1753 24.2258 18.9253 24.2504 18.7289C24.275 18.5324 24.2994 18.3647 24.3046 18.3563C24.3272 18.3192 24.3713 17.9635 24.4099 17.506C24.4329 17.2337 24.4591 16.9919 24.468 16.9688C24.4776 16.9441 24.4594 16.9006 24.4235 16.863L24.3627 16.7992L15.1778 16.7984C8.98135 16.7979 5.97632 16.7889 5.94175 16.7707C5.88327 16.7399 5.8747 16.6973 5.83502 16.2416C5.81917 16.0596 5.78895 15.8453 5.76789 15.7653C5.7468 15.6852 5.7101 15.4489 5.68633 15.2402C5.66256 15.0314 5.63338 14.8349 5.62151 14.8035C5.59376 14.7305 5.57233 14.546 5.53808 14.0859C5.52292 13.8827 5.49372 13.6505 5.47317 13.5699C5.45259 13.4894 5.42267 13.3005 5.40666 13.1503C5.39065 12.9999 5.3539 12.7618 5.32502 12.621C5.29612 12.4803 5.25314 12.127 5.2295 11.8359C5.20585 11.5448 5.16916 11.2293 5.14794 11.1347C5.12669 11.0401 5.08537 10.7841 5.05609 10.5658C5.02683 10.3475 4.9909 10.1153 4.97628 10.0499C4.96164 9.98438 4.93628 9.75218 4.91989 9.53385C4.90351 9.3156 4.87842 9.0834 4.86416 9.01793C4.84987 8.95238 4.80927 8.6964 4.77394 8.44898C4.73862 8.20155 4.6968 7.9575 4.68097 7.90658C4.66515 7.85558 4.63335 7.57575 4.61027 7.28473C4.58719 6.99366 4.55684 6.69003 4.54281 6.60998C4.42594 5.94363 4.38099 5.56964 4.41516 5.54826C4.43488 5.53596 8.43419 5.52869 13.3025 5.5321L22.1539 5.53834L22.1624 5.63958C22.167 5.69525 22.1465 5.85005 22.1168 5.98356C22.087 6.11708 22.0549 6.31562 22.0452 6.42476C22.0356 6.53391 22.0045 6.73634 21.9762 6.87459C21.9479 7.01285 21.9128 7.29266 21.8982 7.49641C21.8836 7.70018 21.8589 7.93238 21.8433 8.0124C21.8277 8.09243 21.7818 8.38905 21.7413 8.67158C21.6792 9.10455 21.6594 9.19035 21.6153 9.21788C21.5743 9.24338 20.1704 9.2538 15.1717 9.26558C10.6338 9.27623 8.77211 9.28898 8.7514 9.3093C8.73114 9.32925 8.72003 9.89048 8.715 11.1455C8.70898 12.6359 8.71409 12.9583 8.74393 12.9827C8.7932 13.0229 11.7062 13.0414 19.0569 13.0479C24.4874 13.0527 24.9357 13.0498 24.9767 13.0094C25.0087 12.9779 25.0311 12.8705 25.057 12.6257C25.0767 12.4388 25.1054 12.2203 25.1205 12.1402C25.1357 12.0602 25.1729 11.8101 25.2033 11.5845C25.2336 11.359 25.2696 11.1387 25.2833 11.0951C25.2969 11.0513 25.3272 10.778 25.3505 10.4874C25.3737 10.1969 25.41 9.89925 25.431 9.8259C25.4521 9.75263 25.4829 9.5676 25.4994 9.41475C25.5159 9.26198 25.5407 9.0834 25.5544 9.01785C25.6103 8.75123 25.6319 8.59035 25.6588 8.23733C25.6744 8.03355 25.7052 7.75965 25.7274 7.6287C25.7494 7.49773 25.7975 7.18814 25.8341 6.94074C25.8707 6.69334 25.9125 6.41352 25.9272 6.31892C25.9419 6.22433 25.9667 5.96237 25.9823 5.73682C25.9979 5.51125 26.0277 5.2704 26.0485 5.20158C26.0692 5.13276 26.1061 4.91247 26.1305 4.71204C26.155 4.5116 26.1924 4.28213 26.2138 4.20209C26.2352 4.12205 26.2645 3.88391 26.2791 3.67289C26.2937 3.46187 26.329 3.14633 26.3575 2.97169C26.3861 2.79705 26.428 2.52017 26.4508 2.3564C26.4735 2.19264 26.503 2.01057 26.5165 1.95182C26.5383 1.85636 26.5345 1.84085 26.4808 1.80624C26.4283 1.77237 25.0071 1.7675 15.2033 1.76769L3.98578 1.76787L3.96405 1.74243H0Z" fill="#FCFCFC"/>
</g>
</svg>
