<svg width="240" height="52" viewBox="0 0 240 52" fill="none" xmlns="http://www.w3.org/2000/svg">
<g clip-path="url(#clip0_116_2028)">
<path fill-rule="evenodd" clip-rule="evenodd" d="M27.1981 21.3432C24.9899 21.3132 22.7518 21.6288 20.7272 22.3352C16.0725 23.9685 12.8916 26.7241 10.2218 30.7572C6.91691 35.7724 3.07604 47.0051 10.5196 51.1635C13.4474 52.7967 17.1444 51.8599 19.8042 49.7556C22.464 47.6514 25.0643 46.0632 27.2031 46.0632C29.3419 46.0632 31.9421 47.6514 34.6168 49.7556C37.2767 51.8599 40.9588 52.7967 43.8866 51.1635C51.3301 47 47.4892 35.7674 44.1843 30.7572C41.5245 26.7241 38.3485 23.9685 33.6889 22.3352C31.6494 21.6238 29.4262 21.3132 27.2031 21.3432H27.1981ZM50.1838 13.3471C58.1881 15.0656 53.7021 29.8204 46.0204 28.4576C40.9985 27.5608 40.5767 19.4845 45.2314 15.0505C46.2586 14.0685 48.1691 12.9212 50.1838 13.3471ZM38.3684 0.240623C42.6311 1.58834 44.4026 7.16961 43.0678 12.1547C42.4624 14.4393 41.3954 16.4133 39.9712 17.8211C38.6215 19.1538 36.1453 20.6619 33.5301 19.8653C27.1038 17.9213 26.7515 7.33996 31.7982 2.28475C33.2323 0.866888 35.7383 -0.586046 38.3684 0.240623ZM4.22731 13.3471C-3.77699 15.0656 0.699062 29.8204 8.37584 28.4576C13.3978 27.5608 13.8196 19.4845 9.17975 15.0505C8.15254 14.0685 6.22714 12.9212 4.22731 13.3471ZM16.0427 0.240623C11.78 1.58834 10.0085 7.16961 11.3433 12.1547C11.9488 14.4393 13.0157 16.4133 14.425 17.8211C15.7747 19.1538 18.2658 20.6619 20.881 19.8653C27.2974 17.9213 27.6596 7.33996 22.598 2.28475C21.1788 0.866888 18.6579 -0.586046 16.0427 0.240623Z" fill="#1951E7"/>
<path fill-rule="evenodd" clip-rule="evenodd" d="M10.2221 24.3242H3.68168C4.77837 25.8273 6.31174 26.8092 8.0436 26.4986C9.20976 26.2982 9.88464 25.4315 10.2221 24.3242ZM44.1796 24.3242H50.7349C49.6382 25.8273 48.0899 26.8092 46.3581 26.4986C45.1919 26.2982 44.517 25.4315 44.1796 24.3242ZM40.7903 5.05031H32.0813C32.4039 4.5543 32.7711 4.09838 33.1929 3.68755C33.7983 3.07632 34.6568 2.46509 35.6244 2.15446C36.2993 1.95405 37.0437 1.89894 37.7781 2.1244C39.1428 2.56529 40.1551 3.64246 40.7903 5.05031ZM40.82 12.7609H30.3842C30.2155 11.5234 30.2701 10.2057 30.5231 8.91311H41.5495C41.5346 10.2358 41.2667 11.5134 40.82 12.7609ZM52.3427 20.4714H44.2391C44.6063 19.0786 45.3358 17.7159 46.4474 16.6086H51.7918C52.5213 17.7159 52.5511 19.2089 52.3427 20.4714ZM32.0019 16.6086H38.3885C37.262 17.6307 35.6195 18.4273 34.096 17.9714C33.2673 17.7159 32.5627 17.26 32.0019 16.6086ZM38.4183 27.1449H16.0032C17.5217 25.9074 19.2784 24.9304 21.3626 24.204C22.2211 23.9034 23.1491 23.6779 24.1217 23.5226C25.1638 23.3673 26.191 23.2971 27.1884 23.3072H27.2182C28.2305 23.2921 29.2577 23.3623 30.2849 23.5226C31.2576 23.6779 32.1855 23.9084 33.0539 24.204C35.1381 24.9304 36.8799 25.9074 38.4133 27.1449H38.4183ZM44.3136 35.096H10.108C10.7282 33.6781 11.4577 32.3855 12.3609 31.1179H42.0557C42.9439 32.3805 43.6734 33.6731 44.3086 35.096H44.3136ZM46.2141 43.0621H8.19744C8.19744 41.7294 8.41082 40.3766 8.73338 39.084H45.6683C45.9908 40.3766 46.2042 41.7244 46.2042 43.0621H46.2141ZM34.5129 47.0401H45.3308C44.909 47.8217 44.3185 48.5181 43.5295 49.0592C43.4997 49.0892 43.4749 49.1043 43.4451 49.1293C43.2466 49.2596 43.0779 49.3548 42.9539 49.4299C42.1103 49.9009 41.0979 49.971 40.0707 49.8157C37.5796 49.445 36.3589 48.5081 34.5129 47.0451V47.0401ZM13.6114 5.05532H22.3303C22.0077 4.55931 21.6256 4.10339 21.2187 3.69256C20.6133 3.08133 19.7399 2.4701 18.7722 2.15947C18.0974 1.95906 17.3679 1.90395 16.6186 2.12941C15.2539 2.5703 14.2416 3.64747 13.6064 5.05532H13.6114ZM13.5816 12.7659H24.0175C24.1862 11.5284 24.1465 10.2107 23.8785 8.91812H12.867C12.8819 10.2408 13.135 11.5184 13.5866 12.7659H13.5816ZM2.06395 20.4765H10.1774C9.79532 19.0836 9.06585 17.7209 7.95428 16.6137H2.60981C1.89027 17.7209 1.85057 19.2139 2.05899 20.4765H2.06395ZM22.4196 16.6137H16.033C17.1595 17.6357 18.7921 18.4323 20.3255 17.9764C21.1393 17.7209 21.844 17.265 22.4196 16.6137ZM19.9037 47.0501H9.08074C9.5472 47.9169 10.1774 48.5982 10.9813 49.1393C11.1798 49.2696 11.3485 49.3648 11.4726 49.4399C12.3013 49.9109 13.3136 49.981 14.3557 49.8257C16.832 49.455 18.0676 48.5181 19.8987 47.0551L19.9037 47.0501Z" fill="#7391E2"/>
<path d="M65.2793 25.191C65.2793 26.4986 66.2519 27.5608 67.7009 27.5608C69.1499 27.5608 70.1226 26.4936 70.1226 25.191V16.4734L73.0355 21.6288C73.6409 22.6659 74.4696 23.1769 75.4968 23.1769C76.524 23.1769 77.3527 22.6659 77.9433 21.6288L80.8264 16.4734V25.191C80.8264 26.4986 81.8238 27.5608 83.2183 27.5608C84.6822 27.5608 85.6796 26.4936 85.6796 25.191V10.5063C85.6796 8.7478 84.3695 7.39507 82.5136 7.39507C81.278 7.39507 80.3748 7.9061 79.7694 8.97325L75.467 16.754L71.1746 8.97325C70.5841 7.9061 69.671 7.39507 68.4453 7.39507C66.5298 7.39507 65.2793 8.74279 65.2793 10.5063V25.191ZM88.0665 25.2211C88.0665 26.5287 89.0093 27.5658 90.4732 27.5658C91.7535 27.5658 92.5822 27.0097 92.9197 25.8924L93.5797 23.7331H99.5445L100.165 25.8924C100.487 26.9596 101.331 27.5658 102.571 27.5658C104.05 27.5658 105.102 26.6439 105.102 25.2211C105.102 24.9104 105.048 24.5697 104.904 24.1539L100.219 10.0103C99.6288 8.26182 98.418 7.37002 96.6315 7.37002C94.8451 7.37002 93.6938 8.26683 93.0884 10.0103L88.2898 24.1539C88.1509 24.5647 88.0665 24.9054 88.0665 25.2211ZM96.6067 13.7028L98.3386 19.6699H94.8104L96.6117 13.7028H96.6067ZM103.485 9.89511C103.485 11.1426 104.467 12.1547 105.653 12.1547H109.762V25.1058C109.762 26.4686 110.903 27.5608 112.268 27.5608C113.633 27.5608 114.784 26.4085 114.784 25.1058V12.1547H118.893C120.059 12.1547 121.061 11.1476 121.061 9.89511C121.061 8.64259 120.064 7.65058 118.893 7.65058H105.658C104.477 7.65058 103.49 8.65762 103.49 9.89511H103.485ZM122.882 25.1058C122.882 26.4686 124.024 27.5608 125.388 27.5608C126.753 27.5608 127.904 26.4085 127.904 25.1058V21.7691H131.845C133.631 21.7691 135.095 21.3132 136.231 20.3913C137.864 19.1438 138.861 17.0947 138.861 14.7098C138.861 12.325 137.948 10.4512 136.43 9.18368C135.234 8.17664 133.661 7.65058 131.706 7.65058H125.388C124.024 7.65058 122.882 8.74279 122.882 10.1356V25.1058ZM127.904 12.0946H131.07C131.79 12.0946 132.321 12.2348 132.758 12.5204C133.403 12.9463 133.755 13.6727 133.755 14.7098C133.755 15.7469 133.403 16.5285 132.728 16.9243C132.291 17.1949 131.755 17.3351 131.07 17.3351H127.904V12.0946ZM140.861 17.4754C140.861 23.5276 145.699 27.5307 151.381 27.5307C157.063 27.5307 161.877 23.6379 161.877 17.4754C161.976 11.5084 156.87 7.24977 151.381 7.36501C148.553 7.36501 145.908 8.37204 143.997 10.1055C142.082 11.824 140.861 14.5094 140.861 17.4754ZM151.381 12.1196C152.9 12.1196 154.126 12.6306 155.093 13.6377C156.066 14.6447 156.542 15.9123 156.542 17.4704C156.542 19.0286 156.066 20.2961 155.093 21.3032C154.121 22.3102 152.87 22.7962 151.352 22.7962C149.833 22.7962 148.607 22.3152 147.64 21.3032C146.672 20.2911 146.191 19.0185 146.191 17.4704C146.191 15.9223 146.667 14.6447 147.64 13.6377C148.612 12.6306 149.878 12.1196 151.381 12.1196ZM164.001 17.4454C163.946 23.5527 168.447 27.6409 174.496 27.5558C176.183 27.5558 177.717 27.2852 179.096 26.8043C180.208 26.3784 180.967 25.5668 180.967 24.5297C180.967 23.1669 179.91 22.1599 178.63 22.1599C178.238 22.1599 177.235 22.4855 176.491 22.6859C175.801 22.8563 175.126 22.9415 174.437 22.9415C172.918 22.9415 171.692 22.4304 170.695 21.3933C169.722 20.3562 169.246 19.0235 169.246 17.4454C169.246 15.8672 169.752 14.5645 170.749 13.5274C171.747 12.4603 172.988 11.9392 174.437 11.9392C175.156 11.9392 175.801 12.0244 176.407 12.1797C177.042 12.3801 177.856 12.6356 178.292 12.6356C179.573 12.6356 180.63 11.6286 180.63 10.2759C180.63 9.20873 179.94 8.4021 178.798 8.03135C177.573 7.59046 176.183 7.39006 174.551 7.39006C168.894 7.39006 164.001 11.6236 164.001 17.4454ZM183.369 25.0708C183.369 26.4335 184.51 27.5257 185.875 27.5257C187.239 27.5257 188.391 26.3734 188.391 25.0708V19.6298H189.448L194.385 26.4586C194.921 27.17 195.611 27.5508 196.494 27.5508C197.889 27.5508 198.941 26.4586 198.941 25.0357C198.941 24.4094 198.717 23.7982 198.266 23.2621L193.552 17.0846L197.968 11.4733C198.405 10.9472 198.628 10.4061 198.628 9.85503C198.628 8.47725 197.601 7.35499 196.236 7.35499C195.432 7.35499 194.772 7.69567 194.266 8.39208L189.413 15.1357H188.386V9.79491C188.386 8.44719 187.244 7.34998 185.87 7.34998C184.495 7.34998 183.364 8.44218 183.364 9.79491V25.0607L183.369 25.0708ZM201.372 25.1008C201.372 26.4636 202.514 27.5558 203.878 27.5558C205.243 27.5558 206.394 26.4035 206.394 25.1008V24.4746L213.863 16.779V25.1008C213.863 26.4636 215.004 27.5558 216.378 27.5558C217.753 27.5558 218.884 26.4035 218.884 25.1008V9.84C218.884 8.49228 217.743 7.39507 216.378 7.39507C215.014 7.39507 213.863 8.48727 213.863 9.84V10.5915L206.394 18.262V9.84C206.394 8.49228 205.253 7.39507 203.878 7.39507C202.504 7.39507 201.372 8.48727 201.372 9.84V25.1058V25.1008ZM222.542 25.1008C222.542 26.4636 223.683 27.5558 225.048 27.5558C226.412 27.5558 227.564 26.4035 227.564 25.1008V19.6348H234.977V25.1008C234.977 26.4636 236.119 27.5558 237.493 27.5558C238.868 27.5558 239.999 26.4035 239.999 25.1008V9.84C239.999 8.49228 238.888 7.39507 237.493 7.39507C236.099 7.39507 234.977 8.48727 234.977 9.84V15.1507H227.564V9.84C227.564 8.49228 226.422 7.39507 225.048 7.39507C223.673 7.39507 222.542 8.48727 222.542 9.84V25.1058V25.1008Z" fill="white"/>
<path d="M68.9077 44.58C70.9472 44.58 72.2126 43.4728 72.2126 41.9648C72.2126 40.9126 71.5923 40.3164 70.7487 40.0309C71.4782 39.6751 71.9993 39.109 71.9993 38.112C71.9993 36.8043 70.7339 35.8524 68.8779 35.8524C67.29 35.8524 66.2032 36.4637 65.4043 37.2703L66.5456 38.633C67.0667 38.1621 67.9648 37.8114 68.6844 37.8114C69.3295 37.8114 69.7265 38.112 69.7265 38.5479C69.7265 38.9837 69.389 39.3144 68.5603 39.3144H67.7167V41.0329H68.5752C69.4883 41.0329 69.9101 41.3335 69.9101 41.7844C69.9101 42.2353 69.4883 42.6061 68.6447 42.6061C67.6621 42.6061 66.888 42.2103 66.2975 41.6141L65.1016 43.1622C66.0295 43.9838 67.017 44.57 68.9127 44.57L68.9077 44.58ZM78.4454 44.5951C81.0208 44.5951 82.9462 42.6361 82.9462 40.2212C82.9462 37.8064 81.0457 35.8624 78.4751 35.8624C75.9046 35.8624 73.9892 37.8064 73.9892 40.2212C73.9892 42.6361 75.8897 44.5951 78.4503 44.5951H78.4454ZM78.4751 42.4908C77.2097 42.4908 76.3513 41.4237 76.3513 40.2162C76.3513 39.0088 77.1949 37.9416 78.4454 37.9416C79.6959 37.9416 80.5842 39.0088 80.5842 40.2162C80.5842 41.4237 79.7405 42.4908 78.4751 42.4908ZM89.2931 44.5951C91.8537 44.5951 93.7791 42.6361 93.7791 40.2212C93.7791 37.8064 91.8785 35.8624 89.308 35.8624C86.7375 35.8624 84.822 37.8064 84.822 40.2212C84.822 42.6361 86.7226 44.5951 89.2931 44.5951ZM89.308 42.4908C88.0575 42.4908 87.1841 41.4237 87.1841 40.2162C87.1841 39.0088 88.0277 37.9416 89.2931 37.9416C90.5585 37.9416 91.4319 39.0088 91.4319 40.2162C91.4319 41.4237 90.5883 42.4908 89.308 42.4908ZM95.9476 44.4247H98.2006V39.625L100.324 42.8916H100.369L102.493 39.595V44.4247H104.786V36.0178H102.354L100.369 39.2693L98.3842 36.0178H95.9526V44.4247H95.9476ZM106.552 44.4247H108.974L109.579 42.9217H112.785L113.39 44.4247H115.867L112.323 35.9626H110.1L106.557 44.4247H106.552ZM110.254 41.1181L111.197 38.7182L112.11 41.1181H110.254ZM117.623 44.4247H119.931V38.0619H123.618V36.0178H117.623V44.4247ZM124.883 44.4247H127.315L127.905 42.9217H131.111L131.716 44.4247H134.193L130.649 35.9626H128.426L124.883 44.4247ZM128.585 41.1181L129.528 38.7182L130.456 41.1181H128.585ZM139.175 44.5851C141.214 44.5851 142.48 43.4778 142.48 41.9698C142.48 40.9176 141.859 40.3214 141.016 40.0359C141.745 39.6801 142.252 39.114 142.252 38.117C142.252 36.8094 141.001 35.8574 139.145 35.8574C137.557 35.8574 136.47 36.4687 135.671 37.2753L136.813 38.638C137.334 38.1671 138.232 37.8164 138.952 37.8164C139.587 37.8164 139.994 38.117 139.994 38.5529C139.994 38.9887 139.656 39.3194 138.813 39.3194H137.969V41.0379H138.842C139.755 41.0379 140.177 41.3385 140.177 41.7894C140.177 42.2403 139.755 42.6111 138.897 42.6111C137.914 42.6111 137.155 42.2153 136.56 41.6191L135.364 43.1672C136.277 43.9888 137.279 44.575 139.175 44.575V44.5851ZM144.534 44.4297H146.688L149.908 39.7002V44.4297H152.186V36.0228H150.033L146.812 40.7523V36.0228H144.534V44.4297ZM154.618 44.4297H156.925V41.2333H159.878V44.4297H162.185V36.0228H159.878V39.1741H156.925V36.0228H154.618V44.4297Z" fill="#7391E2"/>
</g>
<defs>
<clipPath id="clip0_116_2028">
<rect width="240" height="52" fill="white"/>
</clipPath>
</defs>
</svg>
