<svg width="35" height="21" viewBox="0 0 35 21" fill="none" xmlns="http://www.w3.org/2000/svg">
<path d="M17.7904 17.9264C19.8547 16.0251 21.1584 13.309 21.1584 10.3213C21.1584 7.27928 19.8547 4.56318 17.7904 2.71623C15.9435 1.08656 13.5533 0.0544434 10.8915 0.0544434C5.18769 0.0544434 0.570312 4.67182 0.570312 10.3213C0.570312 16.0251 5.18769 20.6425 10.8915 20.6425C13.5533 20.5882 15.9435 19.5561 17.7904 17.9264Z" fill="#A9A9A9"/>
<path d="M17.791 17.926C19.8553 16.0247 21.159 13.3086 21.159 10.3209C21.159 7.27887 19.8553 4.56277 17.791 2.71582" fill="#A9A9A9"/>
<path d="M17.791 17.926C19.8553 16.0247 21.159 13.3086 21.159 10.3209C21.159 7.27887 19.8553 4.56277 17.791 2.71582" stroke="#3362AB" stroke-width="0.168235"/>
<path d="M24.6898 -0.000244141C22.0281 -0.000244141 19.5836 1.03187 17.7909 2.66153C17.4107 2.98747 17.0848 3.36772 16.7588 3.74798H18.8231C19.0947 4.07391 19.3663 4.45416 19.5836 4.83442H15.944C15.7267 5.16035 15.5094 5.5406 15.3464 5.92086H20.1811C20.3441 6.30111 20.507 6.62705 20.6157 7.0073H14.9119C14.8032 7.38755 14.6946 7.71349 14.5859 8.09374H20.8873C21.0503 8.79993 21.1046 9.50611 21.1046 10.2666C21.1046 11.4074 20.9416 12.4938 20.5614 13.5259H14.8575C14.9662 13.9062 15.1292 14.2865 15.2921 14.6124H20.1268C19.9638 14.9926 19.7465 15.3729 19.5292 15.6988H15.8897C16.107 16.0791 16.3786 16.4593 16.6502 16.7853H18.7144C18.3885 17.1655 18.0625 17.5458 17.6823 17.8717C19.5292 19.5014 21.9194 20.5335 24.5812 20.5335C30.285 20.5335 34.8481 15.9161 34.8481 10.2123C35.011 4.61713 30.3937 -0.000244141 24.6898 -0.000244141Z" fill="#6A6A6A"/>
<path d="M9.58772 12.8199H8.28399L9.0445 8.80006L7.3062 12.8199H6.16543L5.94815 8.85439L5.18763 12.8199H4.04688L5.02467 7.60498H7.03459L7.14322 10.8643L8.5556 7.60498H10.6198L9.58772 12.8199Z" fill="white"/>
<path d="M23.9282 12.8198C23.6023 12.9284 23.2764 12.9827 23.0048 12.9827C22.3529 12.9827 21.9727 12.6568 21.9727 12.0593C21.9727 11.9506 21.9726 11.7877 22.027 11.679L22.0813 11.2444L22.1356 10.9185L22.7332 7.65918H23.9826L23.8196 8.63698H24.4715L24.3085 9.6691H23.6566L23.3307 11.4617C23.3307 11.516 23.3307 11.6247 23.3307 11.6247C23.3307 11.842 23.4937 11.9506 23.7653 11.9506C23.9282 11.9506 24.0369 11.9506 24.0912 11.8963L23.9282 12.8198Z" fill="white"/>
<path d="M27.6226 8.63708C27.514 8.58276 27.514 8.58276 27.4596 8.58276C27.4053 8.58276 27.351 8.58276 27.351 8.58276C27.2967 8.58276 27.2423 8.58276 27.188 8.58276C26.7534 8.58276 26.4818 8.74572 26.0473 9.28894L26.1559 8.63708H25.1238L24.3633 12.8742H25.667C26.1016 10.2667 26.3189 9.83216 26.9164 9.83216C26.9707 9.83216 27.0251 9.83216 27.0794 9.83216L27.2423 9.88649L27.6226 8.63708Z" fill="white"/>
<path d="M18.8229 9.9407C18.8229 10.4839 19.1488 10.8642 19.8007 11.1358C20.3439 11.3531 20.3982 11.4074 20.3982 11.6247C20.3982 11.8963 20.1809 12.0049 19.6377 12.0049C19.2575 12.0049 18.8772 11.9506 18.4969 11.842L18.334 12.8198H18.3883L18.6056 12.8741C18.6599 12.8741 18.8229 12.9284 18.9315 12.9284C19.2575 12.9284 19.4747 12.9827 19.6377 12.9827C20.9958 12.9827 21.6476 12.5482 21.6476 11.5704C21.6476 10.9728 21.376 10.6469 20.7242 10.3753C20.1809 10.158 20.1266 10.1037 20.1266 9.88637C20.1266 9.66908 20.3439 9.56044 20.7785 9.56044C21.0501 9.56044 21.376 9.56044 21.702 9.61476L21.8649 8.63696C21.539 8.58264 21.0501 8.52832 20.7242 8.52832C19.3118 8.52832 18.8229 9.18019 18.8229 9.9407Z" fill="white"/>
<path d="M12.8477 10.9728C12.6847 10.9728 12.6304 10.9728 12.5761 10.9728C11.8699 10.9728 11.4896 11.1901 11.4896 11.6247C11.4896 11.8963 11.6526 12.0593 11.9242 12.0593C12.4131 12.0049 12.7934 11.5704 12.8477 10.9728ZM13.7712 12.8198H12.6847L12.7391 12.3852C12.4131 12.7111 11.9785 12.8741 11.381 12.8741C10.6748 12.8741 10.2402 12.3852 10.2402 11.7333C10.2402 10.7012 11.0551 10.1037 12.4674 10.1037C12.6304 10.1037 12.7934 10.1037 13.0107 10.158C13.065 9.99502 13.065 9.94069 13.065 9.88637C13.065 9.61476 12.8477 9.50612 12.2501 9.50612C11.8699 9.50612 11.4896 9.56044 11.218 9.61476L11.0551 9.66909L10.9464 9.7234L11.1094 8.74561C11.7613 8.58264 12.1415 8.52832 12.6304 8.52832C13.7168 8.52832 14.3144 8.9629 14.3144 9.77773C14.3144 9.99502 14.3144 10.158 14.2057 10.5926L13.9341 12.1136L13.8798 12.3852L13.8255 12.6025V12.7654L13.7712 12.8198Z" fill="white"/>
<path d="M17.3013 10.2124C17.3013 10.1038 17.3013 10.0495 17.3013 9.99514C17.3013 9.66921 17.084 9.45192 16.7038 9.45192C16.2692 9.45192 15.9976 9.72354 15.8889 10.2124H17.3013ZM17.9532 12.7656C17.5186 12.8742 17.084 12.9285 16.6494 12.9285C15.2371 12.9285 14.4766 12.2767 14.4766 11.0273C14.4766 9.56057 15.4 8.47412 16.7038 8.47412C17.7359 8.47412 18.4421 9.07167 18.4421 9.99514C18.4421 10.3211 18.3878 10.5927 18.2791 11.0273H15.726C15.726 11.0816 15.726 11.1359 15.726 11.1359C15.726 11.6248 16.1062 11.8964 16.8667 11.8964C17.3013 11.8964 17.7359 11.7878 18.2248 11.6248L17.9532 12.7656Z" fill="white"/>
<path d="M30.2835 10.3753C30.2835 9.94069 30.1205 9.50612 29.5773 9.50612C28.9254 9.50612 28.5452 10.2666 28.5452 10.9728C28.5452 11.5704 28.8168 11.9506 29.3057 11.9506C29.5773 11.9506 30.1748 11.5704 30.2835 10.9185C30.2835 10.7555 30.2835 10.5382 30.2835 10.3753ZM31.6415 10.9185C31.4242 12.3309 30.4464 12.9827 29.1427 12.9827C27.676 12.9827 27.1328 12.1136 27.1328 11.0271C27.1328 9.50612 28.1106 8.52832 29.6316 8.52832C30.9897 8.52832 31.6415 9.34315 31.6415 10.4296C31.6959 10.6469 31.6959 10.6469 31.6415 10.9185Z" fill="white"/>
</svg>
