<svg width="14" height="16" viewBox="0 0 14 16" fill="none" xmlns="http://www.w3.org/2000/svg">
<path d="M11.523 11.5229L6.75 16.2959L1.977 11.5229C1.03301 10.5789 0.39014 9.3762 0.129696 8.06683C-0.130747 6.75746 0.00293013 5.40026 0.513824 4.16687C1.02472 2.93347 1.88988 1.87927 2.99991 1.13757C4.10994 0.395878 5.41498 0 6.75 0C8.08502 0 9.39006 0.395878 10.5001 1.13757C11.6101 1.87927 12.4753 2.93347 12.9862 4.16687C13.4971 5.40026 13.6308 6.75746 13.3703 8.06683C13.1099 9.3762 12.467 10.5789 11.523 11.5229ZM6.75 8.24994C7.14783 8.24994 7.52936 8.09191 7.81066 7.8106C8.09197 7.5293 8.25 7.14777 8.25 6.74994C8.25 6.35212 8.09197 5.97059 7.81066 5.68928C7.52936 5.40798 7.14783 5.24994 6.75 5.24994C6.35218 5.24994 5.97065 5.40798 5.68934 5.68928C5.40804 5.97059 5.25 6.35212 5.25 6.74994C5.25 7.14777 5.40804 7.5293 5.68934 7.8106C5.97065 8.09191 6.35218 8.24994 6.75 8.24994Z" fill="#1951E7"/>
</svg>
