<svg width="37" height="22" viewBox="0 0 37 22" fill="none" xmlns="http://www.w3.org/2000/svg">
<path d="M36.1602 10.5928C36.1602 16.4053 31.4342 21.1856 25.5674 21.1856C19.755 21.1856 14.9746 16.4053 14.9746 10.5928C14.9746 4.78034 19.7006 0 25.5131 0C31.4342 0 36.1602 4.78034 36.1602 10.5928Z" fill="#A9A9A9"/>
<path d="M21.9829 10.6471C21.9829 9.88662 21.8742 9.12611 21.7656 8.41992H15.2469C15.3012 8.03967 15.4099 7.71373 15.5185 7.27916H21.331C21.2223 6.8989 21.0594 6.51865 20.8964 6.13839H15.9531C16.1161 5.75814 16.3334 5.43221 16.5506 4.99763H20.2989C20.0816 4.61738 19.81 4.23712 19.484 3.85687H17.4198C17.7457 3.47661 18.0717 3.15068 18.5062 2.77043C16.6593 1.03212 14.1605 0 11.39 0C5.6319 0.162966 0.851562 4.78034 0.851562 10.5928C0.851562 16.4053 5.57758 21.1856 11.4444 21.1856C14.2148 21.1856 16.6593 20.0992 18.5606 18.4152C18.9408 18.0893 19.2667 17.709 19.647 17.2744H17.4741C17.2025 16.9485 16.9309 16.5682 16.7136 16.188H20.4075C20.6248 15.862 20.8421 15.4818 21.0051 15.0472H16.0617C15.8988 14.7213 15.7358 14.341 15.6272 13.9065H21.4396C21.7656 12.9287 21.9829 11.8422 21.9829 10.6471Z" fill="#6A6A6A"/>
<path d="M15.1922 13.309L15.3551 12.3312C15.3008 12.3312 15.1922 12.3856 15.0835 12.3856C14.7033 12.3856 14.6489 12.1683 14.7033 12.0596L15.0292 10.104H15.6267L15.7897 9.01759H15.2465L15.3551 8.36572H14.2144C14.2144 8.36572 13.5625 12.0596 13.5625 12.4942C13.5625 13.1461 13.9428 13.472 14.486 13.472C14.8119 13.472 15.0835 13.3634 15.1922 13.309Z" fill="white"/>
<path d="M15.5723 11.5164C15.5723 13.0917 16.6587 13.472 17.5279 13.472C18.3427 13.472 18.7229 13.309 18.7229 13.309L18.9402 12.2226C18.9402 12.2226 18.3427 12.4942 17.7451 12.4942C16.4957 12.4942 16.713 11.5707 16.713 11.5707H18.9946C18.9946 11.5707 19.1575 10.8645 19.1575 10.5386C19.1575 9.83241 18.7773 8.90893 17.5279 8.90893C16.4414 8.85461 15.5723 10.104 15.5723 11.5164ZM17.5279 9.88673C18.1254 9.88673 18.0168 10.5929 18.0168 10.6472H16.7674C16.8217 10.5929 16.9303 9.88673 17.5279 9.88673Z" fill="white"/>
<path d="M24.6452 13.309L24.8625 12.0596C24.8625 12.0596 24.3193 12.3312 23.8847 12.3312C23.1242 12.3312 22.7439 11.7337 22.7439 11.0275C22.7439 9.66946 23.3958 8.96327 24.2106 8.96327C24.7538 8.96327 25.2427 9.28921 25.2427 9.28921L25.4057 8.09412C25.4057 8.09412 24.7538 7.82251 24.102 7.82251C22.7982 7.82251 21.5488 8.96327 21.5488 11.0818C21.5488 12.4942 22.2007 13.4177 23.5587 13.4177C24.0476 13.472 24.6452 13.309 24.6452 13.309Z" fill="white"/>
<path d="M9.05411 8.85449C8.2936 8.85449 7.69606 9.07178 7.69606 9.07178L7.53309 10.0496C7.53309 10.0496 8.02199 9.83229 8.7825 9.83229C9.16275 9.83229 9.48868 9.88661 9.48868 10.2125C9.48868 10.4298 9.43436 10.4842 9.43436 10.4842H8.94546C7.96767 10.4842 6.93555 10.8644 6.93555 12.1681C6.93555 13.2003 7.58741 13.4175 8.02199 13.4175C8.7825 13.4175 9.16275 12.9286 9.21707 12.9286L9.16275 13.3632H10.0862L10.5208 10.2669C10.5208 8.90881 9.43436 8.85449 9.05411 8.85449ZM9.2714 11.3533C9.2714 11.5163 9.16275 12.4397 8.51089 12.4397C8.18495 12.4397 8.07631 12.1681 8.07631 12.0052C8.07631 11.7336 8.23928 11.3533 9.10843 11.3533C9.21707 11.3533 9.2714 11.3533 9.2714 11.3533Z" fill="white"/>
<path d="M11.6081 13.4177C11.8797 13.4177 13.292 13.472 13.292 11.951C13.292 10.5386 11.934 10.8102 11.934 10.267C11.934 9.99538 12.1513 9.88673 12.5315 9.88673C12.6945 9.88673 13.292 9.94106 13.292 9.94106L13.455 8.90894C13.455 8.90894 13.0747 8.80029 12.3686 8.80029C11.5537 8.80029 10.6846 9.12622 10.6846 10.267C10.6846 11.5707 12.097 11.4621 12.097 11.951C12.097 12.2769 11.7167 12.3312 11.4451 12.3312C10.9562 12.3312 10.413 12.1683 10.413 12.1683L10.25 13.2004C10.3586 13.309 10.6846 13.4177 11.6081 13.4177Z" fill="white"/>
<path d="M33.9882 7.98535L33.7709 9.50637C33.7709 9.50637 33.3363 8.96315 32.6845 8.96315C31.6524 8.96315 30.7832 10.2126 30.7832 11.6793C30.7832 12.6027 31.2178 13.5262 32.1956 13.5262C32.8474 13.5262 33.282 13.0916 33.282 13.0916L33.2277 13.4719H34.3685L35.1833 8.094L33.9882 7.98535ZM33.445 10.9187C33.445 11.5163 33.1734 12.3311 32.5215 12.3311C32.1413 12.3311 31.924 12.0052 31.924 11.4076C31.924 10.4842 32.3042 9.94095 32.8474 9.94095C33.2277 9.99527 33.445 10.2669 33.445 10.9187Z" fill="white"/>
<path d="M2.91652 13.3632L3.56838 9.3434L3.67703 13.3632H4.43754L5.90423 9.3434L5.30669 13.3632H6.50178L7.42525 7.98535H5.5783L4.43754 11.299L4.38322 7.98535H2.75355L1.83008 13.3632H2.91652Z" fill="white"/>
<path d="M20.2982 13.3632C20.6242 11.5163 20.6785 9.99525 21.4933 10.2669C21.602 9.56068 21.7649 9.23475 21.8736 8.96313H21.6563C21.1674 8.96313 20.7328 9.615 20.7328 9.615L20.8415 9.01746H19.755L19.0488 13.3632H20.2982Z" fill="white"/>
<path d="M27.2514 8.85449C26.4909 8.85449 25.8933 9.07178 25.8933 9.07178L25.7304 10.0496C25.7304 10.0496 26.2193 9.83229 26.9798 9.83229C27.36 9.83229 27.686 9.88661 27.686 10.2125C27.686 10.4298 27.6316 10.4842 27.6316 10.4842H27.1427C26.1649 10.4842 25.1328 10.8644 25.1328 12.1681C25.1328 13.2003 25.7847 13.4175 26.2193 13.4175C26.9798 13.4175 27.36 12.9286 27.4143 12.9286L27.36 13.3632H28.3921L28.8267 10.2669C28.8267 8.90881 27.6316 8.85449 27.2514 8.85449ZM27.523 11.3533C27.523 11.5163 27.4143 12.4397 26.7625 12.4397C26.4365 12.4397 26.3279 12.1681 26.3279 12.0052C26.3279 11.7336 26.4909 11.3533 27.36 11.3533C27.4687 11.3533 27.4687 11.3533 27.523 11.3533Z" fill="white"/>
<path d="M29.6967 13.3632C30.0226 11.5163 30.0769 9.99525 30.8918 10.2669C31.0004 9.56068 31.1634 9.23475 31.272 8.96313H31.0547C30.5658 8.96313 30.1313 9.615 30.1313 9.615L30.2399 9.01746H29.1535L28.4473 13.3632H29.6967Z" fill="white"/>
</svg>
