<svg width="30" height="9" viewBox="0 0 30 9" fill="none" xmlns="http://www.w3.org/2000/svg">
<path d="M26.9624 0.000244141H21.3672C21.6931 1.84719 23.4857 3.5855 25.4413 3.5855H29.8958C29.9501 3.42254 29.9501 3.15092 29.9501 2.98796C29.9501 1.3583 28.592 0.000244141 26.9624 0.000244141Z" fill="url(#paint0_linear_116_1968)"/>
<path d="M21.8555 3.91138V8.4201H24.5716V6.02993H26.9617C28.2655 6.02993 29.4062 5.10646 29.7865 3.91138H21.8555Z" fill="white"/>
<path d="M12.2949 0.000244141V8.36585H14.6851C14.6851 8.36585 15.2826 8.36585 15.6086 7.7683C17.2382 4.5633 17.7271 3.5855 17.7271 3.5855H18.0531V8.36585H20.7692V0.000244141H18.379C18.379 0.000244141 17.7815 0.0545695 17.4555 0.59779C16.0975 3.36822 15.337 4.78059 15.337 4.78059H15.011V0.000244141H12.2949Z" fill="white"/>
<path d="M0.886719 8.42028V0.0546875H3.60282C3.60282 0.0546875 4.36334 0.0546858 4.79791 1.24977C5.88436 4.40045 5.99301 4.83503 5.99301 4.83503C5.99301 4.83503 6.21029 4.07452 7.18808 1.24977C7.62266 0.0546858 8.38318 0.0546875 8.38318 0.0546875H11.0993V8.42028H8.38318V3.91156H8.05724L6.53623 8.42028H5.34114L3.82012 3.91156H3.49419V8.42028H0.886719Z" fill="white"/>
<defs>
<linearGradient id="paint0_linear_116_1968" x1="21.3575" y1="1.81857" x2="29.9308" y2="1.81857" gradientUnits="userSpaceOnUse">
<stop stop-color="#E4E4E4"/>
<stop offset="1" stop-color="#929292"/>
</linearGradient>
</defs>
</svg>
