<svg width="466" height="480" viewBox="0 0 466 480" fill="none" xmlns="http://www.w3.org/2000/svg">
<path opacity="0.03" fill-rule="evenodd" clip-rule="evenodd" d="M213.422 197.945C197.408 206.906 182.601 218.45 170.935 231.889C144.152 262.85 132.585 295.675 129.945 335.469C126.77 384.891 145.285 480.787 215.933 479.457C243.712 478.917 266.465 456.891 276.958 430.865C287.452 404.84 299.637 382.734 315.027 373.849C330.418 364.963 355.654 365.463 383.547 369.326C411.332 373.251 441.677 364.622 456.034 340.835C492.489 280.281 418.698 216.299 374.331 194.373C338.62 176.721 304.445 170.305 264.204 178.04C246.605 181.45 229.331 188.475 213.458 197.925L213.422 197.945ZM345.967 45.546C410.625 24.5222 438.969 148.164 378.094 170.38C338.273 184.861 302.053 129.137 317.329 78.2437C320.686 66.9877 329.719 50.8854 345.967 45.546V45.546ZM207.094 1.35824C243.305 -6.75962 278.985 25.6006 289.862 66.6234C294.893 85.3974 295.326 103.878 290.863 119.814C286.626 134.906 275.004 155.926 252.913 161.121C198.684 173.985 152.671 100.144 168.215 43.2013C172.709 27.1527 184.772 6.40159 207.094 1.35824V1.35824ZM15.275 236.471C-35.2611 281.954 57.5723 368.364 107.213 326.773C139.665 299.527 109.516 240.298 57.9107 228.019C46.4844 225.298 27.9155 225.132 15.275 236.471V236.471ZM46.4436 94.1097C21.308 121.41 31.4927 168.49 61.5809 198.422C75.3243 212.165 91.1123 221.781 107.038 225.945C122.226 229.822 146.348 230.205 161.893 213.671C200.076 173.181 159.206 96.3713 102.013 81.4234C85.9746 77.2291 61.8651 77.3619 46.4436 94.1097V94.1097Z" fill="#81A3FF"/>
</svg>
