<svg width="43" height="11" viewBox="0 0 43 11" fill="none" xmlns="http://www.w3.org/2000/svg">
<path d="M16.1323 4.39993C16.0236 5.21477 15.3718 5.21477 14.7742 5.21477H14.4483L14.7199 3.63942C14.7199 3.53078 14.8285 3.47646 14.9372 3.47646H15.1001C15.5347 3.47646 15.915 3.47646 16.1323 3.69375C16.1323 3.91104 16.1323 4.12832 16.1323 4.39993ZM15.8607 2.22705H13.5248C13.3618 2.22705 13.2532 2.33569 13.1989 2.49866L12.2754 8.47409C12.2754 8.58273 12.3297 8.69138 12.4927 8.69138H13.5791C13.7421 8.69138 13.8507 8.58273 13.9051 8.41977L14.1767 6.79011C14.1767 6.62714 14.3396 6.5185 14.5026 6.5185H15.2631C16.7841 6.5185 17.6533 5.75799 17.9249 4.29129C18.0335 3.63942 17.9249 3.15053 17.6533 2.77027C17.2187 2.44434 16.6212 2.22705 15.8607 2.22705Z" fill="#A9A9A9"/>
<path d="M21.2387 6.57279C21.13 7.22465 20.6411 7.65923 19.9893 7.65923C19.6633 7.65923 19.3917 7.55059 19.2287 7.3333C19.0658 7.11601 19.0115 6.8444 19.0658 6.57279C19.1744 5.92092 19.6633 5.48635 20.3152 5.48635C20.6411 5.48635 20.9127 5.59499 21.0757 5.81228C21.1843 5.97524 21.293 6.24685 21.2387 6.57279ZM22.7597 4.3999H21.6732C21.5646 4.3999 21.5103 4.45423 21.4559 4.56287L21.4016 4.8888L21.3473 4.78016C21.13 4.45423 20.5868 4.29126 20.0436 4.29126C18.7942 4.29126 17.762 5.21474 17.5448 6.51847C17.4361 7.17033 17.5991 7.76787 17.9793 8.20245C18.3053 8.5827 18.7942 8.74567 19.3917 8.74567C20.3695 8.74567 20.9127 8.09381 20.9127 8.09381L20.8584 8.41974C20.8584 8.52838 20.9127 8.63703 21.0757 8.63703H22.0535C22.2165 8.63703 22.3251 8.52838 22.3794 8.36542L22.977 4.56287C22.977 4.50855 22.9226 4.3999 22.7597 4.3999Z" fill="#A9A9A9"/>
<path d="M28.6809 4.40015H27.5401C27.4315 4.40015 27.3229 4.45447 27.2685 4.56311L25.7475 6.84464L25.0956 4.67176C25.0413 4.50879 24.9327 4.45447 24.7697 4.45447H23.6833C23.5746 4.45447 23.466 4.56311 23.5203 4.72608L24.7697 8.31133L23.6289 9.941C23.5203 10.0496 23.629 10.2669 23.7919 10.2669H24.9327C25.0413 10.2669 25.15 10.2126 25.2043 10.104L28.8982 4.72608C28.9525 4.56311 28.8439 4.40015 28.6809 4.40015Z" fill="#A9A9A9"/>
<path d="M32.6479 4.39993C32.5392 5.21477 31.8874 5.21477 31.2898 5.21477H30.9639L31.2355 3.63942C31.2355 3.53078 31.3442 3.47646 31.4528 3.47646H31.6158C32.0503 3.47646 32.4306 3.47646 32.6479 3.69375C32.7022 3.91104 32.7022 4.12832 32.6479 4.39993ZM32.3763 2.22705H30.0404C29.8775 2.22705 29.7688 2.33569 29.7145 2.49866L28.791 8.47409C28.791 8.58273 28.8454 8.69138 29.0083 8.69138H30.2034C30.312 8.69138 30.4207 8.63706 30.4207 8.47409L30.6923 6.79011C30.6923 6.62714 30.8553 6.5185 31.0182 6.5185H31.7787C33.2997 6.5185 34.1689 5.75799 34.4405 4.29129C34.5492 3.63942 34.4405 3.15053 34.1689 2.77027C33.7887 2.44434 33.1911 2.22705 32.3763 2.22705Z" fill="#F1F1F1"/>
<path d="M37.807 6.57279C37.6984 7.22465 37.2095 7.65923 36.5576 7.65923C36.2317 7.65923 35.9601 7.55059 35.7971 7.3333C35.6341 7.11601 35.5798 6.8444 35.6341 6.57279C35.7428 5.92092 36.2317 5.48635 36.8835 5.48635C37.2095 5.48635 37.4811 5.59499 37.6441 5.81228C37.7527 5.97524 37.8613 6.24685 37.807 6.57279ZM39.328 4.3999H38.2416C38.133 4.3999 38.0786 4.45423 38.0243 4.56287L37.97 4.8888L37.9157 4.78016C37.6984 4.45423 37.1552 4.29126 36.6119 4.29126C35.3625 4.29126 34.3304 5.21474 34.1131 6.51847C34.0045 7.17033 34.1674 7.76787 34.5477 8.20245C34.8736 8.5827 35.3625 8.74567 35.9601 8.74567C36.9379 8.74567 37.4811 8.09381 37.4811 8.09381L37.4268 8.41974C37.4268 8.52838 37.4811 8.63703 37.6441 8.63703H38.6218C38.7848 8.63703 38.8935 8.52838 38.9478 8.36542L39.5453 4.56287C39.5453 4.50855 39.4367 4.3999 39.328 4.3999Z" fill="#F1F1F1"/>
<path d="M40.6321 2.39002L39.6543 8.47409C39.6543 8.58273 39.7086 8.69138 39.8716 8.69138H40.8494C41.0124 8.69138 41.121 8.58273 41.1753 8.41977L42.0988 2.44434C42.0988 2.3357 42.0445 2.22705 41.8815 2.22705H40.7951C40.7407 2.22705 40.6864 2.33569 40.6321 2.39002Z" fill="#F1F1F1"/>
<path d="M2.60685 9.83229L2.76981 8.69153H2.38955H0.488281L1.79202 0.380249C1.79202 0.380249 1.79201 0.325928 1.84633 0.325928H1.90066H5.10566C6.13778 0.325928 6.89829 0.543216 7.27854 0.977793C7.44151 1.19508 7.55015 1.41237 7.60448 1.62966C7.6588 1.90127 7.6588 2.17288 7.60448 2.55313V2.77042L7.76744 2.87907C7.93041 2.93339 8.03905 3.04203 8.1477 3.15068C8.31066 3.31364 8.41931 3.53093 8.41931 3.80254C8.47363 4.07415 8.47363 4.40008 8.36498 4.78034C8.25634 5.21491 8.1477 5.54085 7.98473 5.86678C7.82176 6.13839 7.60447 6.35568 7.38718 6.57297C7.16989 6.73593 6.84396 6.84458 6.57235 6.95322C6.24642 7.00754 5.92049 7.06187 5.54024 7.06187H5.26863C5.10566 7.06187 4.9427 7.11619 4.77973 7.22483C4.67109 7.33347 4.56244 7.49644 4.50812 7.65941V7.76805L4.18218 9.77797V9.83229V9.88661C4.18218 9.88661 4.18218 9.88661 4.12786 9.88661H2.60685V9.83229Z" fill="#263577"/>
<path d="M7.98507 2.55298C7.98507 2.6073 7.98506 2.66162 7.93074 2.71595C7.49617 4.88883 6.0838 5.59501 4.23685 5.59501H3.31337C3.09608 5.59501 2.8788 5.75798 2.8788 5.97527L2.38989 9.01731L2.28125 9.88646C2.28125 10.0494 2.38989 10.1581 2.49853 10.1581H4.18252C4.39981 10.1581 4.56278 9.9951 4.56278 9.83214V9.72349L4.88871 7.7679V7.65925C4.94303 7.44197 5.106 7.33332 5.26896 7.33332H5.54057C7.17024 7.33332 8.41964 6.68146 8.74557 4.78018C8.90854 3.96535 8.7999 3.31349 8.41965 2.87891C8.311 2.77027 8.14803 2.66162 7.98507 2.55298Z" fill="#F1F1F1"/>
<path d="M7.5506 2.39002C7.49628 2.39002 7.44196 2.3357 7.33331 2.3357C7.27899 2.3357 7.17034 2.28137 7.11602 2.28137C6.84441 2.22705 6.5728 2.22705 6.30119 2.22705H3.80238C3.74806 2.22705 3.69373 2.22705 3.63941 2.28137C3.53077 2.33569 3.42213 2.44434 3.42213 2.55298L2.87891 5.92095V6.0296C2.93323 5.81231 3.09619 5.64934 3.31348 5.64934H4.23696C6.08391 5.64934 7.49628 4.88883 7.93085 2.77027C7.93085 2.71595 7.93086 2.66163 7.98518 2.60731C7.87653 2.55298 7.76789 2.49866 7.65924 2.44434C7.60492 2.39002 7.5506 2.39002 7.5506 2.39002Z" fill="white"/>
<path d="M3.42143 2.55314C3.42143 2.44449 3.53007 2.33585 3.63872 2.28153C3.69304 2.28153 3.74736 2.2272 3.80169 2.2272H6.3005C6.57211 2.2272 6.89804 2.2272 7.11533 2.28153C7.16965 2.28153 7.2783 2.28153 7.33262 2.33585C7.38694 2.33585 7.44126 2.39017 7.54991 2.39017C7.60423 2.39017 7.60423 2.39017 7.65855 2.44449C7.76719 2.49882 7.87584 2.55314 7.98449 2.60746C8.09313 1.79263 7.98448 1.24941 7.54991 0.760508C7.06101 0.217287 6.19185 0 5.10541 0H1.90041C1.68313 0 1.46584 0.162965 1.46584 0.380253L0.162109 8.74585C0.162109 8.90882 0.270754 9.07178 0.43372 9.07178H2.38931L2.87821 5.92111L3.42143 2.55314Z" fill="#A9A9A9"/>
</svg>
