<svg width="675" height="712" viewBox="0 0 675 712" fill="none" xmlns="http://www.w3.org/2000/svg">
<g opacity="0.14" clip-path="url(#clip0_2158_4738)">
<path fill-rule="evenodd" clip-rule="evenodd" d="M518.719 650.586C492.216 672.904 460.869 695.675 429.019 709.127C413.117 715.843 394.772 708.392 388.043 692.484C381.314 676.577 388.75 658.238 404.652 651.522C427.932 641.69 453.636 623.613 478.421 602.743C502.884 582.143 524.798 560.255 540.713 544.064C597.488 486.305 620.402 410 609.77 308.219C602.003 233.859 556.525 149.885 487.396 96.7248C454.506 71.4322 414.625 63.2575 376.34 63.1381C319.674 62.9613 272.454 83.821 226.894 113.51C185.09 140.752 149.174 176.229 121.345 217.585C106.158 240.155 92.5006 261.54 82.5568 284.396C72.6853 307.086 67.4808 333.33 64.9642 362.73C61.2558 406.053 62.4027 451.852 77.0425 494.954C92.3795 540.109 124.306 585.542 165.386 605.032C196.871 619.969 232.128 619.784 258.892 611.014C278.704 604.523 296.694 594.59 317.372 583.173C320.467 581.463 323.624 579.72 326.855 577.951C355.138 562.465 381.37 547.08 404.365 528.827C444.612 496.877 477.724 461.525 496.216 416.804C502.027 402.75 505.316 390.771 505.853 376.305C507.061 343.781 506.697 315.179 495.797 286.846C485.003 258.79 466.761 231.657 442.829 213.808C409.553 188.99 373.462 186.207 338.147 192.605C297.997 199.879 264.036 216.529 240.411 241.851C223.117 260.388 209.007 281.434 197.808 305.307C182.51 337.92 168.78 369.297 162.255 402.365C159.129 418.202 158.496 435.286 160.405 453.702C161.982 468.909 164.088 479.137 169.599 487.524C186.149 512.708 207.965 520.474 225.129 517.34C238.028 514.985 255.453 507.508 275.194 496.884C289.572 489.146 303.241 480.843 315.74 473.251C320.123 470.588 324.363 468.013 328.438 465.58C383.666 432.615 397.759 378.818 388.535 345.039C380.196 314.502 368.583 311.684 365.166 311.207C358.02 310.208 345.099 314.063 331.784 326.802C318.637 339.379 312.58 353.608 312.499 362.041C312.467 365.392 313.304 367.151 314.45 368.512C315.815 370.134 319.804 373.687 330.188 376.389C346.901 380.739 356.935 397.811 352.598 414.521C348.262 431.231 331.198 441.25 314.485 436.9C295.063 431.845 278.407 422.75 266.627 408.755C254.627 394.5 249.818 377.671 249.974 361.389C250.27 330.552 267.932 301.317 288.54 281.602C309.131 261.904 340.243 244.595 373.769 249.28C411.025 254.486 436.725 284.198 448.853 328.614C466.031 391.519 437.958 473.054 360.519 519.278C357.168 521.278 353.417 523.557 349.358 526.024C336.61 533.769 320.824 543.36 304.861 551.951C284.135 563.105 259.49 574.637 236.409 578.851C189.637 587.391 144.741 563.51 117.353 521.833C102.903 499.845 99.8858 476.261 98.2104 460.098C95.745 436.313 96.4285 412.915 100.909 390.21C109.06 348.909 125.852 311.421 141.195 278.713C155.03 249.222 172.735 222.692 194.674 199.177C229.511 161.836 276.82 140.16 326.951 131.078C373.291 122.683 428.747 125.333 480.185 163.697C515.621 190.126 540.127 227.978 554.153 264.436C569.991 305.604 569.573 345.408 568.338 378.676C567.448 402.66 561.709 422.098 554.002 440.737C529.773 499.334 487.55 542.659 443.266 577.812C415.899 599.537 385.769 617.006 356.92 632.802C354.066 634.364 351.136 635.988 348.133 637.653C327.865 648.886 304.273 661.961 278.405 670.436C238.033 683.664 186.062 684.027 138.622 661.52C77.0041 632.287 36.4151 569.714 17.8382 515.02C-0.719917 460.382 -1.40268 404.853 2.664 357.346C5.49614 324.259 11.6347 290.629 25.2169 259.411C37.6157 230.913 54.0997 205.473 69.4589 182.648C101.936 134.384 143.863 92.9563 192.726 61.1153C243.647 27.9326 302.915 0.380787 376.484 0.610249C422.776 0.754695 477.912 10.5839 525.488 47.1698C607.716 110.404 662.345 209.73 671.96 301.773C684.025 417.276 658.231 513.744 585.323 587.915C569.157 604.361 545.544 627.998 518.719 650.586Z" fill="white"/>
</g>
<defs>
<clipPath id="clip0_2158_4738">
<rect width="675" height="712" fill="white"/>
</clipPath>
</defs>
</svg>
