<svg width="675" height="711" viewBox="0 0 675 711" fill="none" xmlns="http://www.w3.org/2000/svg">
<path fill-rule="evenodd" clip-rule="evenodd" d="M518.078 649.977C491.575 672.295 460.228 695.066 428.378 708.518C412.476 715.234 394.131 707.783 387.402 691.875C380.673 675.968 388.109 657.629 404.011 650.913C427.291 641.081 452.995 623.004 477.78 602.134C502.243 581.534 524.157 559.646 540.072 543.455C596.847 485.696 619.761 409.391 609.129 307.61C601.362 233.25 555.884 149.276 486.755 96.116C453.865 70.8234 413.984 62.6487 375.699 62.5293C319.033 62.3525 271.813 83.2122 226.253 112.901C184.449 140.143 148.533 175.62 120.704 216.976C105.517 239.546 91.86 260.931 81.9162 283.787C72.0447 306.477 66.8402 332.721 64.3236 362.121C60.6152 405.444 61.7621 451.243 76.4019 494.345C91.7389 539.5 123.665 584.933 164.745 604.423C196.23 619.36 231.487 619.175 258.251 610.405C278.063 603.914 296.053 593.981 316.731 582.564C319.826 580.854 322.983 579.111 326.214 577.342C354.497 561.856 380.729 546.471 403.724 528.218C443.971 496.268 477.083 460.916 495.575 416.195C501.386 402.141 504.675 390.162 505.212 375.696C506.42 343.172 506.056 314.57 495.156 286.237C484.362 258.181 466.12 231.048 442.188 213.199C408.912 188.381 372.821 185.598 337.506 191.996C297.356 199.27 263.395 215.92 239.77 241.242C222.476 259.779 208.366 280.825 197.167 304.698C181.869 337.311 168.139 368.688 161.614 401.756C158.488 417.593 157.855 434.677 159.764 453.093C161.341 468.3 163.447 478.528 168.958 486.915C185.508 512.099 207.324 519.865 224.488 516.731C237.387 514.376 254.812 506.899 274.553 496.275C288.931 488.537 302.6 480.234 315.099 472.642C319.482 469.979 323.722 467.404 327.797 464.971C383.025 432.006 397.118 378.209 387.894 344.43C379.555 313.893 367.942 311.075 364.525 310.598C357.379 309.599 344.458 313.454 331.143 326.193C317.996 338.77 311.939 352.999 311.858 361.432C311.826 364.783 312.663 366.542 313.809 367.903C315.174 369.525 319.163 373.078 329.547 375.78C346.26 380.13 356.294 397.202 351.957 413.912C347.621 430.622 330.557 440.641 313.844 436.291C294.422 431.236 277.766 422.141 265.986 408.146C253.986 393.891 249.177 377.062 249.333 360.78C249.629 329.943 267.291 300.708 287.899 280.993C308.49 261.295 339.602 243.986 373.128 248.671C410.384 253.877 436.084 283.589 448.212 328.005C465.39 390.91 437.317 472.445 359.878 518.669C356.527 520.669 352.776 522.948 348.717 525.415C335.969 533.16 320.183 542.751 304.22 551.342C283.494 562.496 258.849 574.028 235.768 578.242C188.996 586.782 144.1 562.901 116.712 521.224C102.262 499.236 99.2451 475.652 97.5697 459.489C95.1043 435.704 95.7879 412.306 100.268 389.601C108.419 348.3 125.211 310.812 140.554 278.104C154.389 248.613 172.094 222.083 194.033 198.568C228.87 161.227 276.179 139.551 326.31 130.469C372.65 122.074 428.106 124.724 479.544 163.088C514.98 189.517 539.486 227.369 553.512 263.827C569.35 304.995 568.932 344.799 567.697 378.067C566.807 402.051 561.068 421.489 553.361 440.128C529.132 498.725 486.909 542.05 442.625 577.203C415.258 598.928 385.128 616.397 356.279 632.193C353.425 633.755 350.495 635.379 347.492 637.044C327.224 648.277 303.632 661.352 277.764 669.827C237.392 683.055 185.421 683.418 137.981 660.911C76.3635 631.678 35.7744 569.105 17.1975 514.411C-1.36054 459.773 -2.04331 404.244 2.02337 356.737C4.85551 323.65 10.9941 290.02 24.5763 258.802C36.9751 230.304 53.4591 204.864 68.8183 182.039C101.295 133.775 143.222 92.3475 192.085 60.5065C243.006 27.3238 302.274 -0.228039 375.843 0.00142301C422.135 0.145869 477.271 9.97508 524.847 46.561C607.075 109.795 661.704 209.121 671.319 301.164C683.384 416.667 657.59 513.135 584.682 587.306C568.516 603.752 544.903 627.389 518.078 649.977Z" fill="white" fill-opacity="0.14"/>
</svg>
