<svg width="24" height="23" viewBox="0 0 24 23" fill="none" xmlns="http://www.w3.org/2000/svg">
<path d="M18.5491 14.3953C18.9294 14.5583 19.0923 15.1015 19.0923 15.3731C19.1466 15.8077 19.038 16.025 18.875 16.025C18.7121 16.025 18.4948 15.862 18.2775 15.4818C18.0602 15.1015 17.9516 14.7213 18.0602 14.504C18.2232 14.3953 18.3861 14.341 18.5491 14.3953Z" fill="#F1F1F1"/>
<path d="M16.3229 16.0793C16.5402 16.0793 16.8118 16.188 17.0834 16.4053C17.518 16.7855 17.6809 17.2201 17.4637 17.546C17.355 17.709 17.0834 17.8177 16.8661 17.8177C16.5945 17.8177 16.3229 17.709 16.1599 17.546C15.7253 17.1658 15.6167 16.6226 15.8883 16.2966C15.9426 16.188 16.1056 16.0793 16.3229 16.0793Z" fill="#F1F1F1"/>
<path d="M11.1618 20.3708C5.51227 20.3708 0.949219 15.8077 0.949219 10.2126C0.949219 4.61738 5.51227 0 11.1618 0C16.8113 0 21.3743 4.56305 21.3743 10.2126C21.3743 12.1138 20.8311 13.9065 19.9619 15.4275C19.9076 15.4818 19.8533 15.4818 19.8533 15.3731C19.473 12.8743 17.952 11.5163 15.7791 11.0817C15.5619 11.0274 15.5619 10.9187 15.8335 10.9187C16.5397 10.8644 17.4631 10.8644 18.0063 10.9731C18.0607 10.7014 18.0607 10.4298 18.0607 10.2126C18.0607 6.51865 15.0186 3.47661 11.3247 3.47661C7.63083 3.47661 4.5888 6.51865 4.5888 10.2126C4.5888 13.9065 7.63083 16.9485 11.3247 16.9485H11.6507C11.542 16.3509 11.4877 15.7534 11.542 15.1015C11.542 14.667 11.6507 14.6126 11.8136 14.9386C12.7371 16.5682 14.0952 17.9806 16.7026 18.5781C18.8212 19.067 20.9397 19.6103 23.2756 22.4893C23.4929 22.761 23.1669 23.0326 22.9497 22.8153C20.6138 20.751 18.4952 20.0448 16.5397 20.0448C14.0952 20.0992 12.6285 20.3708 11.1618 20.3708Z" fill="#F1F1F1"/>
</svg>
