<svg width="58" height="58" viewBox="0 0 58 58" fill="none" xmlns="http://www.w3.org/2000/svg">
<path d="M49.6934 13.1397C55.4955 19.5386 53.9032 26.2922 55.1459 34.4744C55.3663 35.462 56.7564 35.5403 57.0828 34.5753C57.435 33.5334 57.6348 32.4828 57.7829 31.4268C58.246 28.1675 57.975 25.013 56.902 21.8766C56.0705 19.2731 54.9604 16.7735 53.315 14.5844C52.4149 13.3519 51.4096 12.205 50.3993 11.063C50.6233 10.2197 50.7717 9.35847 50.8168 8.47363C51.0473 1.50491 47.5215 -0.370461 41.1397 0.15539C36.1089 -0.0385473 31.1106 0.428058 26.136 0.985402C19.8262 1.25116 7.42597 -2.14059 8.3619 8.18544C9.91487 14.5166 3.77877 17.162 1.17726 22.0896C0.427793 23.5467 -0.855004 26.6927 0.827223 27.6898C0.890774 29.3653 0.902668 31.0428 0.900969 32.7204C-0.20409 54.3104 1.20513 58.0751 23.9634 57.9235C31.2154 57.8566 38.5936 58.2525 45.7257 56.596C50.66 56.7441 57.8972 50.3731 57.5671 45.1976C57.6196 44.4829 57.0586 43.8634 56.3419 43.8455C55.6442 43.8261 55.063 44.3761 55.0436 45.0739C54.8917 49.8666 49.529 55.1839 44.6377 54.193C43.6044 53.6292 43.49 52.1604 43.416 51.0192C44.219 42.4158 42.4084 33.4037 43.946 24.2559C45.29 20.5398 48.1112 17.0019 49.6934 13.1397ZM41.1185 28.8321C41.1365 36.3248 41.7896 43.6177 41.3085 51.1075C41.4047 52.6767 41.7633 53.8638 42.3122 54.7261C36.3464 54.7852 30.2856 54.3969 24.3512 54.445C19.9514 54.6415 15.5055 54.8859 11.1381 54.2658C1.01051 53.6941 3.00675 42.2385 2.90775 34.9498C2.92791 32.5086 2.88826 30.0597 2.78427 27.6162C3.18857 27.3098 3.45648 26.8304 3.47268 26.2838C3.97327 21.0293 9.95882 18.351 11.3328 13.297C11.3964 13.1186 11.4487 12.9378 11.4931 12.7554C20.9679 13.1826 30.5914 12.3832 40.0283 12.8945C42.4209 13.017 42.5163 9.40095 40.0987 9.4218C30.6417 9.57212 21.0792 11.6892 11.6654 10.2707C11.6311 9.67169 11.561 9.07844 11.4945 8.50762C9.80227 1.61128 19.5089 3.80316 23.6312 3.81607C29.4599 3.70166 35.2968 2.40198 41.1444 2.71C43.4912 2.72642 47.0027 2.02453 47.9053 4.8262C50.5792 13.6807 40.3931 19.8074 41.1185 28.8321Z" fill="#A8ABBE"/>
<path d="M26.2195 25.7543C23.9178 25.6698 22.5777 28.9657 24.2795 30.5196C27.8088 33.2618 30.6 26.0061 26.2195 25.7543Z" fill="#1951E7"/>
<path d="M31.7978 31.9418C27.2319 29.3301 26.1676 38.2494 31.0807 37.304C33.1105 36.5743 33.5856 33.1956 31.7978 31.9418Z" fill="#1951E7"/>
<path d="M14.4337 31.7234C12.39 31.1086 10.7722 32.8548 11.242 34.8634C11.8617 38.3151 16.0487 37.729 16.0413 34.3278C16.1029 33.1895 15.5759 32.1034 14.4337 31.7234Z" fill="#1951E7"/>
<path d="M21.1622 27.435C20.3554 24.491 15.5568 25.696 16.0084 28.6294C16.3147 33.0921 22.3387 31.4201 21.1622 27.435Z" fill="#1951E7"/>
<path d="M21.9051 34.6704C17.6583 35.7442 13.4544 42.3598 18.5188 45.0969C20.9648 46.2132 23.7354 45.3438 26.087 44.4128C27.1944 43.9011 27.481 42.6212 27.3068 41.5351C26.8 38.9475 24.7522 35.0763 21.9051 34.6704Z" fill="#1951E7"/>
</svg>
