<svg width="118" height="118" viewBox="0 0 118 118" fill="none" xmlns="http://www.w3.org/2000/svg">
<path fill-rule="evenodd" clip-rule="evenodd" d="M52.0932 104.368C45.7879 102.78 40.3159 82.5425 38.1523 76.7784C34.9979 68.3749 35.0307 68.4031 31.7048 60.033C29.2423 53.8356 26.1563 47.2936 25.0325 40.7117C24.7223 38.8945 24.4022 34.2805 24.3169 33.1416C23.8403 26.7784 23.3015 19.3408 26.9551 13.7289C29.4249 9.93543 34.8678 10.5284 38.7345 11.6232C48.0287 14.2547 54.4234 22.1516 57.7744 30.6539C59.6101 35.3111 60.3042 40.1502 61.2973 45.0109C61.5669 46.3298 61.8767 47.6412 62.1627 48.957C62.2912 49.549 62.3956 50.1457 62.5409 50.7342C62.635 51.1158 62.719 51.5043 62.88 51.8652C62.9459 52.0129 63.0804 52.3281 63.2084 52.2295C63.7862 51.7839 64.1605 51.1331 64.5874 50.5488C66.1848 48.3615 68.1339 45.0344 69.5302 42.9865C70.6402 41.3587 72.583 38.9551 73.9774 37.5837C75.8103 35.7813 77.6582 33.9854 79.6456 32.344C81.635 30.7007 83.7638 29.2197 85.8895 27.7445C86.8932 27.0479 87.9584 26.4359 89.0259 25.8338C93.6582 23.2212 100.182 20.5492 105.354 23.6959C111.361 27.3508 110.575 35.7629 108.823 41.3399C108.224 43.2477 107.586 45.1482 106.803 46.9895C99.3486 64.5112 85.2702 78.2963 71.0444 90.7507C69.0567 92.4909 56.0513 105.363 52.0932 104.368Z" fill="#41B162"/>
</svg>
