<svg width="250" height="270" viewBox="0 0 250 270" fill="none" xmlns="http://www.w3.org/2000/svg">
<path fill-rule="evenodd" clip-rule="evenodd" d="M247.049 222.12C238.852 243.165 221.346 265.495 200.804 266.875C170.984 268.878 123.982 277.68 104.141 247.92C100.087 241.838 108.094 237.732 113.056 237.023C120.793 235.918 154.001 244.99 154.001 231.739C154.001 225.495 128.659 227.761 123.953 227.447C105.294 226.203 57.3657 218.982 51.6395 196.079C51.0113 193.563 53.3852 190.411 54.6109 188.484C63.1873 175.007 75.7608 186.502 88.9523 186.503C90.6486 186.503 101.169 187.116 101.169 183.53C101.169 178.013 82.7332 171.856 78.386 169.992C60.8442 162.474 -7.45333 160.035 1.11919 125.746C7.1633 101.57 37.9678 115.683 54.2814 120.133C56.5239 120.745 73.1785 128.668 74.4235 122.444C75.6685 116.217 62.0141 106.027 57.9131 103.293C38.8904 90.61 11.0258 76.3133 11.0252 49.1398C11.0252 40.9122 11.9406 29.2009 20.9311 24.7057C45.4537 12.4444 70.8636 46.2408 84.9898 60.367C88.2324 63.6096 99.4051 78.8956 105.462 76.8761C110.359 75.244 105.239 57.3501 104.141 54.4229C101.106 46.3306 92.8661 7.01636 106.919 2.33199C118.855 -1.64656 127 0.945324 132.538 10.1762C144.936 30.8389 154.055 114.791 156.686 115.669C163.264 117.861 161.82 50.3784 174.268 44.1849C184.868 38.9114 195.295 53.6492 195.427 63.9122C195.649 81.1791 182.55 161.387 193.069 168.085C203.597 174.788 204.675 122.974 213.737 104.82C215.782 100.724 232.323 97.2458 238.782 126.204C245.623 156.878 253.496 205.569 247.049 222.12Z" fill="#F79444"/>
</svg>
