<svg width="18" height="18" viewBox="0 0 18 18" fill="none" xmlns="http://www.w3.org/2000/svg">
<g clip-path="url(#clip0_105_2315)">
<path d="M6.75 16.4999C7.16421 16.4999 7.5 16.1641 7.5 15.7499C7.5 15.3357 7.16421 14.9999 6.75 14.9999C6.33579 14.9999 6 15.3357 6 15.7499C6 16.1641 6.33579 16.4999 6.75 16.4999Z" stroke="white" stroke-width="1.5" stroke-linecap="round" stroke-linejoin="round"/>
<path d="M15 16.4999C15.4142 16.4999 15.75 16.1641 15.75 15.7499C15.75 15.3357 15.4142 14.9999 15 14.9999C14.5858 14.9999 14.25 15.3357 14.25 15.7499C14.25 16.1641 14.5858 16.4999 15 16.4999Z" stroke="white" stroke-width="1.5" stroke-linecap="round" stroke-linejoin="round"/>
<path d="M0.75 0.749878H3.75L5.76 10.7924C5.82858 11.1377 6.01643 11.4478 6.29066 11.6686C6.56489 11.8894 6.90802 12.0066 7.26 11.9999H14.55C14.902 12.0066 15.2451 11.8894 15.5193 11.6686C15.7936 11.4478 15.9814 11.1377 16.05 10.7924L17.25 4.49988H4.5" stroke="white" stroke-width="1.5" stroke-linecap="round" stroke-linejoin="round"/>
<path d="M10.832 6.55884L10.832 10.0395" stroke="white" stroke-width="1.5" stroke-linecap="round"/>
<path d="M12.5703 8.29919L9.08967 8.29919" stroke="white" stroke-width="1.5" stroke-linecap="round"/>
</g>
<defs>
<clipPath id="clip0_105_2315">
<rect width="18" height="18" fill="white"/>
</clipPath>
</defs>
</svg>
