<svg width="153" height="108" viewBox="0 0 153 108" fill="none" xmlns="http://www.w3.org/2000/svg">
<path fill-rule="evenodd" clip-rule="evenodd" d="M148.879 89.2738C140.228 105.127 94.963 101.123 78.0919 83.0036C75.5914 80.3136 75.7617 80.2161 81.3968 81.2803C99.4508 84.6054 113.865 82.9566 117.488 77.1549C121.972 69.8999 116.226 60.2601 105.964 57.7236C89.0031 53.5465 74.4881 58.0762 71.0219 68.588L70.1978 71.0928L65.5711 69.6205C53.6794 65.8153 40.9509 57.6896 37.4198 51.5241L36.6162 50.1209C53.9771 53.2219 86.6374 57.8942 85.6842 40.2576C84.4961 18.4641 37.7815 17.1543 31.7127 38.6996L30.8523 41.7333C30.7855 41.7151 -0.781321 29.9794 4.94388 17.4963C8.30377 10.1512 22.7515 4.8129 37.0166 5.5648L39.8124 5.71411C40.56 5.73769 41.1672 5.22056 41.2577 4.49115C41.8951 -2.4806 16.3459 -0.948464 7.39463 6.49329C-6.65174 18.1518 2.36769 37.1542 26.5724 46.7821L31.1325 48.6312L32.0467 51.2134C35.8924 62.1677 49.3526 72.7543 65.6943 77.6248C70.4484 79.0241 70.5641 79.1273 71.0093 80.7921C77.8113 106.768 142.544 118.538 152.258 95.4696C153.78 91.7182 152.477 82.6395 148.879 89.2738ZM113.751 71.6157C108.455 75.3829 96.2392 75.9418 81.0727 73.2216C75.2188 72.1698 75.0788 72.0241 77.7263 69.5479C84.6668 63.032 105.847 62.6466 113.226 68.9238C115.209 70.6114 115.184 70.5689 113.751 71.6157ZM81.2907 40.9669C76.4465 46.9035 52.3918 48.0879 36.664 43.2046L35.0773 42.7016L36.8372 40.0562C40.9702 33.9623 50.5634 30.1056 60.1911 30.7465C71.624 31.4829 84.1257 37.5363 81.2907 40.9669Z" fill="#1951E7"/>
</svg>
