<svg width="147" height="147" viewBox="0 0 147 147" fill="none" xmlns="http://www.w3.org/2000/svg">
<path d="M38.459 90.2704C19.7261 61.284 25.0772 35.6124 50.788 31.3896C58.6453 30.0857 68.3136 33.1611 73.351 38.5188L75.9337 41.2735L80.2668 39.1771C105.333 26.801 132.439 55.8654 117.896 79.488C104.662 100.968 65.7653 121.958 59.0701 111.248C57.0884 108.051 58.2426 107.727 64.0607 109.7C69.6051 111.58 97.7269 90.5903 105.269 78.9077C114.348 64.8909 113.487 56.7896 101.828 45.6578C97.005 41.0929 88.8102 42.2272 81.9353 48.5442C76.5195 53.4358 71.3099 53.4155 67.6156 46.341C57.1247 26.4354 35.9965 39.7096 39.645 63.8927C41.1901 73.8831 43.3611 78.9971 52.1138 92.8396C58.077 102.22 58.2508 102.657 55.9125 103.655C51.4514 105.6 45.172 100.771 38.459 90.2704Z" fill="#1951E7"/>
<path d="M93.8438 54.2753C90.4714 53.3548 93.6647 49.7531 96.7858 51.1452C99.3594 52.3498 102.928 54.2729 104.046 58.5228C105.286 62.9943 101.713 66.9159 99.9363 66.2719C98.3639 65.7157 98.0292 63.8563 98.554 60.1686C99.0787 56.4808 97.2162 55.1958 93.8438 54.2753Z" fill="#1951E7"/>
<path d="M99.7902 77.1039C95.1565 77.7663 92.0218 74.0492 94.2455 71.9143C95.9263 70.3671 101.741 70.7205 103.277 72.5411C104.55 74.1283 103.427 76.568 99.7902 77.1039Z" fill="#1951E7"/>
</svg>
