<svg width="54" height="52" viewBox="0 0 54 52" fill="none" xmlns="http://www.w3.org/2000/svg">
<path d="M38.7127 15.8063C41.91 16.3877 42.891 3.01709 39.8027 0.982421C38.6763 0.219421 37.4773 0.69161 36.9323 2.10861C34.4617 8.21261 35.37 15.1887 38.7127 15.8063Z" fill="#1951E7"/>
<path d="M25.1239 18.0229C26.8679 18.9312 33.2989 19.1856 33.6259 18.3499C34.3526 16.4242 29.2296 15.0073 24.7606 15.8429C23.5253 16.0973 23.7433 17.2963 25.1239 18.0229Z" fill="#1951E7"/>
<path d="M38.423 33.7916C40.7846 33.7916 41.2206 23.3275 38.9316 21.5835C37.987 20.8932 36.0249 20.9659 35.6253 21.7289C32.9729 26.6339 34.6443 33.7916 38.423 33.7916Z" fill="#1951E7"/>
<path d="M49.7942 19.4035C53.2822 19.6579 54.4816 19.1855 53.7549 17.8049C52.9556 16.3151 42.7823 15.1161 42.2736 16.4604C41.6923 17.9502 44.4532 19.0039 49.7942 19.4035Z" fill="#1951E7"/>
<path d="M6.63049 36.5166C3.06982 36.1532 1.43475 35.7899 0.490085 36.4802C-1.25391 37.7519 2.67012 39.5322 7.50246 39.7139C12.2259 39.8592 11.4629 37.0252 6.63049 36.5166Z" fill="#1951E7"/>
<path d="M15.0594 41.9303C13.4244 40.8766 11.317 40.8039 10.881 41.8213C10.336 43.1293 9.82738 49.4876 10.227 50.2506C10.9537 51.7039 15.2774 52.5759 15.7497 51.3769C16.44 49.4876 15.9677 42.5116 15.0594 41.9303Z" fill="#1951E7"/>
<path d="M11.7179 22.4193C10.0103 22.71 9.46525 31.43 11.0276 33.3193C12.3356 34.8817 16.4413 36.5167 16.3323 31.648C16.1869 24.672 16.0416 21.729 11.7179 22.4193Z" fill="#1951E7"/>
<path d="M25.8873 36.4439C24.1433 35.7173 17.0947 35.7536 16.8403 36.5166C16.2227 38.0789 19.1293 39.2416 23.671 39.2416C28.249 39.2416 29.339 37.8973 25.8873 36.4439Z" fill="#1951E7"/>
</svg>
