<svg width="63" height="65" viewBox="0 0 63 65" fill="none" xmlns="http://www.w3.org/2000/svg">
<path d="M36.4532 17.2818C40.194 7.04107 41.1904 2.37037 39.5891 2.63674C38.761 2.78575 38.491 3.01474 37.6168 4.28731C35.9508 6.78496 31.6567 18.9175 32.1476 19.7677C32.8284 20.9469 35.6964 19.3277 36.4532 17.2818Z" fill="#1951E7"/>
<path d="M17.5759 28.4735C18.1325 27.3476 18.0143 27.2696 12.3032 25.4843C9.2508 24.504 6.97099 24.1017 5.5616 24.2572C3.63001 24.4583 3.4279 25.8183 4.47456 26.2378C13.4619 29.8979 16.6143 30.4181 17.5759 28.4735Z" fill="#1951E7"/>
<path d="M47.1447 23.3224C45.1868 23.7946 35.0632 26.0194 34.29 26.1368C33.925 26.2012 33.3889 25.7794 32.7409 24.9103C27.8142 18.4671 22.2553 12.1327 21.1654 11.7016C20.3508 11.3674 18.8711 12.4777 18.8281 13.4167C18.7852 14.3556 20.7617 22.4657 22.4684 28.2085L23.5734 31.9584C10.8463 45.8881 9.93281 46.2693 18.2316 44.3666L25.5654 42.692C29.7365 41.7465 29.8341 41.7263 30.5328 42.4931C31.5354 43.5962 36.8647 48.7103 39.2445 51.2489C44.3397 56.7173 45.0534 51.1129 40.882 37.8712L39.9337 34.8353C40.2311 34.5904 42.2042 33.1953 50.0752 26.0549C51.8628 24.4011 50.0245 22.6104 47.1447 23.3224ZM44.0263 26.9145C43.9177 27.2331 38.751 32.1541 37.5718 32.8349C36.1457 33.6583 36.2125 34.5339 38.3153 41.9127C39.6999 46.7809 39.6652 46.9103 37.6369 44.7904C35.1073 42.119 31.5088 39.3703 30.826 38.631C30.2182 37.9581 28.3657 38.2963 21.5914 40.3061C18.1906 41.3188 17.5819 41.3411 18.5162 40.363C19.6773 39.1441 25.1295 33.071 25.8974 32.6277C26.6379 32.2002 26.9519 31.2875 26.6963 30.3381L24.0221 20.7662C23.5669 19.0911 23.5671 19.0909 27.9142 24.1502C32.8374 29.8275 32.5415 29.6323 34.7536 28.9037C37.5226 27.9997 44.1464 26.5526 44.0263 26.9145Z" fill="#1951E7"/>
<path d="M43.2461 37.0912C43.5944 37.6945 55.0619 40.8368 56.3141 40.6623C58.9598 40.3049 58.8431 38.8361 56.082 37.9804C48.6047 35.6059 42.1377 35.1715 43.2461 37.0912Z" fill="#1951E7"/>
<path d="M23.145 51.0372C19.9379 57.6424 19.8095 58.8134 22.4423 57.2934C23.7312 56.5493 28.6144 46.1975 27.9401 45.5995C26.8911 44.6694 25.402 46.3335 23.145 51.0372Z" fill="#1951E7"/>
</svg>
