<svg width="490" height="495" viewBox="0 0 490 495" fill="none" xmlns="http://www.w3.org/2000/svg">
<path d="M18.9309 79.1965C-6.47497 76.6579 -3.63798 60.6198 11.7562 44.9441C41.3578 14.8014 82.1169 2.13334 111.315 0.138294C130.325 -1.16094 143.18 6.696 148.046 23.6385C151.774 36.6217 146.927 55.1003 135.296 74.3561C119.384 100.702 91.2043 130.575 81.8842 145.562C81.489 146.194 81.0638 147.072 80.6455 148.098C86.0982 144.907 92.2031 140.414 98.8844 135.715C132.016 112.411 170.826 77.2007 192.248 65.313C198.016 62.1277 234.959 41.1071 250.736 39.5094C264.593 38.1063 273.454 44.0605 278.235 51.2084C284.198 60.1244 285.653 70.8932 282.005 82.6686C276.499 100.436 253.694 123.283 246.851 131.82C219.295 165.887 189.666 197.655 162.082 231.33C150.682 245.246 139.615 259.476 129.261 274.395C127.029 277.613 116.693 290.472 109.501 303.662C109 304.58 108.491 305.625 108.006 306.714C112.318 305.278 116.515 302.793 120.632 300.023C137.692 288.542 152.705 270.562 164.03 259.491C195.762 228.41 226.067 195.186 258.495 164.441C280.9 143.198 304.272 123.08 329.951 105.735C344.758 95.2611 385.06 69.0644 417.419 60.6198C442.704 54.0214 463.999 59.1044 477.083 74.8657C487.581 87.4965 488.828 105.6 483.055 125.432C474.992 153.129 450.607 185.161 440.652 196.682C421.677 218.123 401.251 238.587 379.303 257.674C348.339 284.602 314.974 309.114 286.047 337.747C274.481 349.198 263.433 361.085 253.416 373.894C248.484 380.271 230.315 401.896 217.516 423.835C214.016 429.835 213.296 438.091 211.762 443.869C213.827 443.462 215.958 442.875 218.062 442.402C229.371 439.862 240.453 434.53 248.095 430.39C276.049 415.227 299.072 400.796 320.619 384.099C341.709 367.757 361.275 349.16 382.822 325.723L436.649 274.395C469.688 241.462 509.417 282.134 478.25 313.496L425.801 364.38C401.056 389.658 378.584 409.521 354.634 426.989C330.338 444.711 304.609 460.063 273.339 475.956C259.733 482.889 238.668 491.519 218.882 493.627C200.139 495.623 182.463 492.171 169.205 481.447C157.226 471.755 151.833 454.868 158.051 433.165C166.957 402.087 202.525 354.141 210.236 343.489C226.151 320.914 244.573 300.35 264.287 280.809C290.461 254.863 318.278 230.104 346.476 206.11C364.493 190.778 383.046 176.28 399.763 159.975C404.983 154.945 415.096 144.428 423.884 132.12C428.893 125.105 433.795 117.713 436.649 110.431C437.58 108.054 438.528 105.808 438.857 103.584C439.457 99.5132 435.611 100.852 431.898 100.549C423.868 101.412 414.888 104.094 405.994 107.692C383.713 116.705 361.885 130.518 352.151 136.85C328.294 153.009 306.508 171.676 285.818 191.57C253.783 222.371 224.269 255.98 193.114 287.284C178.146 302.354 156.906 327.593 133.444 340.068C119.201 347.642 104.099 350.918 88.7857 348.197C69.9057 344.849 62.5765 333.462 61.6271 318.59C61.1354 310.881 63.5036 301.059 68.0574 290.995C75.8117 273.858 90.0688 255.112 92.8989 250.888C103.647 234.845 115.131 219.496 127.033 204.519C152.396 172.607 179.677 142.424 205.29 110.434C179.918 127.477 140.53 162.735 109.859 180.894C93.5392 190.556 78.6281 195.691 67.7526 195.597C48.5294 195.43 39.3092 186.255 34.9791 174.895C32.7159 168.955 31.9877 161.688 33.2196 153.977C34.9877 142.916 40.7025 130.538 45.2895 123.474C53.7448 110.495 76.7115 86.4292 93.5691 63.1235C99.1234 55.4444 109.859 44.9441 106.919 41.0389C103.978 37.1337 48.508 68.4809 48.508 68.4809C45.2998 70.3429 40.3661 73.5656 35.6263 75.7235C34.4754 76.4667 33.1957 77.13 31.7819 77.6953C28.0145 79.2006 21.3068 79.4334 18.9309 79.1965Z" fill="#F79444" fill-opacity="0.7"/>
</svg>
