<svg width="58" height="58" viewBox="0 0 58 58" fill="none" xmlns="http://www.w3.org/2000/svg">
<path d="M0.874454 20.8219C5.72351 2.0355 29.3147 -5.70073 45.1757 4.57005C50.261 7.85458 53.9717 13.0986 55.6329 18.8836C56.2487 20.4701 56.9908 23.0673 57.2478 25.0859C58.2244 31.5695 56.9369 38.4572 53.1137 43.8586C52.0922 45.2112 50.1067 43.8286 51.0218 42.4018C52.2655 40.8447 53.258 39.0834 53.978 37.2049C56.1266 31.5714 55.7999 25.1534 53.5961 19.5846C52.7688 16.9078 51.5444 14.3618 49.885 12.1329C41.5155 0.684244 23.6457 -0.129943 12.8664 8.31134C8.55559 11.6266 5.4869 16.3989 4.26801 21.6869C4.04401 22.6277 3.09967 23.2089 2.15883 22.9849C1.19861 22.7582 0.614264 21.7734 0.874454 20.8219Z" fill="#A8ABBE"/>
<path d="M44.0329 52.4067C37.5989 58.1984 28.5472 59.4092 20.5197 56.4242C9.48226 52.2909 0.892849 41.3158 0.456165 29.4196C0.34854 26.567 0.763513 23.6965 1.62101 20.9823C1.76949 20.4436 2.33808 20.1289 2.87258 20.3C3.38642 20.4628 3.67346 21.0078 3.52101 21.5224C2.72678 24.0239 2.37753 26.6769 2.50803 29.2981C2.90281 37.2239 7.40074 44.8094 13.8441 49.356C15.9743 50.8575 18.3289 52.0482 20.7763 52.9264C23.7714 53.9725 26.9454 54.5877 30.1227 54.5494C34.6462 54.5084 38.8955 53.1057 42.8492 50.8253C43.8776 50.2184 44.9179 51.5687 44.0329 52.4067Z" fill="#A8ABBE"/>
<path d="M41.5426 23.9584C40.152 24.0855 38.7877 24.1903 37.3761 24.1192C35.7353 24.0434 33.9854 23.6499 32.9412 22.2172C32.5144 21.6364 32.2107 20.9403 31.9783 20.2794C31.5264 18.9607 31.1857 17.6846 30.7294 16.3946C30.5089 15.7692 30.2698 15.1527 30.0156 14.5424L30.3923 14.9464C29.9869 14.7355 29.5663 14.5765 29.2342 14.5652C28.0751 14.4783 27.6455 16.531 27.3708 17.4493C26.7891 19.4589 26.4009 22.6884 23.9712 23.3904L24.1442 23.3214C23.7933 23.5117 23.4218 23.641 23.0563 23.7288C21.411 24.1151 19.7115 23.7492 18.0976 23.7177C17.5074 23.7054 16.944 23.7439 16.4781 23.8904L16.639 23.8224C16.2049 24.0685 15.793 24.345 15.5054 24.6387C15.316 24.8458 15.1997 24.9889 15.1634 25.2119C15.1507 25.3299 15.1766 25.4282 15.227 25.5495C15.3556 25.8173 15.5403 26.0299 15.7767 26.2612C17.5665 28.0122 21.4021 29.4658 22.3033 31.8551C22.3497 31.9815 22.3675 32.1104 22.3586 32.2373L22.3257 32.8298L22.2556 33.4115C22.1009 34.4827 21.7501 35.6238 21.4294 36.615C21.0394 37.8421 20.6458 39.0663 20.643 40.3034L20.6315 40.0666C20.6659 40.2424 20.7068 40.408 20.755 40.5488C20.8263 40.7258 20.8657 40.8302 20.9654 40.922C20.9798 40.9269 20.9849 40.9311 20.987 40.9246C20.987 40.9037 20.9946 40.9123 21.0243 40.9075C21.2151 40.9076 21.4741 40.8115 21.698 40.7199C23.1566 40.0555 24.5338 38.8023 25.8081 37.7551C26.2584 37.3876 26.63 37.067 27.1692 36.7601L27.018 36.8501C27.3269 36.6374 27.6897 36.4456 28.0958 36.3167C30.4074 35.5606 32.51 37.2708 34.1172 38.6429C34.7733 39.1869 35.4554 39.7641 36.1533 40.1291C36.4516 40.2867 36.7063 40.3725 36.8874 40.392C37.0705 40.4114 37.1945 40.3946 37.3885 40.3113L37.2224 40.4002C37.4112 40.2853 37.5384 40.1701 37.6074 40.0908C37.6779 40.0091 37.7078 39.9645 37.7383 39.8549C37.8101 39.4684 37.6699 38.958 37.5194 38.5071L37.6875 38.8382C37.3566 38.2906 37.0406 37.7242 36.7603 37.1173C34.949 33.152 36.2434 30.2879 39.6469 27.8924C40.6305 27.1872 41.6305 26.5588 42.6334 25.9116L42.4364 26.0844C43.0741 25.4274 42.4386 24.0232 41.5426 23.9584ZM41.4186 21.9871C42.7106 21.9142 43.9269 22.814 44.4285 23.9506C44.9872 25.1098 44.9135 26.756 43.8959 27.67C42.9557 28.3472 42.0004 29.0296 41.1294 29.7727C40.0743 30.6888 38.9157 31.7816 38.8181 33.2065C38.7616 34.0745 39.1213 34.9479 39.5506 35.7468C39.7974 36.1873 40.0856 36.6246 40.3933 37.057C40.4681 37.156 40.5092 37.2637 40.5545 37.3747C41.0491 38.5548 41.3486 40.0454 40.7891 41.336C40.466 42.1697 39.7018 42.9221 39.0085 43.3411C37.6034 44.1411 35.844 43.9476 34.5221 43.2276C32.7563 42.3247 31.4774 40.755 29.8356 39.8025C29.5508 39.6512 29.3283 39.597 29.2344 39.6005C29.1067 39.6085 29.0694 39.6296 28.9363 39.7144C28.7737 39.8043 28.611 39.918 28.4372 40.0503C26.5044 41.5057 24.3444 43.5157 21.8695 44.034C19.431 44.492 17.8342 42.8265 17.575 40.4941C17.5203 39.5466 17.7627 38.5736 17.9842 37.7375C18.5063 35.815 19.4957 34.0556 19.626 32.1234L19.7155 32.741C19.7029 32.6998 19.6577 32.5995 19.5695 32.4764C18.8692 31.5813 17.7953 30.9268 16.835 30.2353C15.5709 29.3285 14.2116 28.5024 13.2835 27.1303C12.6887 26.2609 12.5058 25.015 12.982 24.0569C13.5011 22.9271 14.5649 22.2437 15.4883 21.7357C16.3224 21.3573 17.3029 21.3592 18.1623 21.3788C18.8776 21.4094 19.5319 21.4889 20.1472 21.5494C21.1996 21.6407 22.347 21.7773 23.2066 21.3224C23.3551 21.2501 23.4923 21.2556 23.6364 21.1559C24.0426 20.8582 24.2449 20.3917 24.4834 19.8338C25.0227 18.4779 25.3269 16.7593 25.9212 15.2883C26.1794 14.6679 26.4738 14.0742 26.9658 13.5433C28.1834 12.2321 29.8941 12.4093 31.3253 13.2162C31.5587 13.3392 31.7288 13.5374 31.8208 13.7641C32.3486 15.0532 32.7914 16.3949 33.1783 17.7229C33.4646 18.6719 33.7018 19.5992 34.1098 20.4584C34.326 20.9092 34.608 21.3324 35.0328 21.6041C36.4757 22.5471 39.682 22.139 41.4186 21.9871Z" fill="#F77A09"/>
</svg>
