<svg width="917" height="860" viewBox="0 0 917 860" fill="none" xmlns="http://www.w3.org/2000/svg">
<path opacity="0.2" d="M42.4913 385.328C2.81539 402.251 -6.0401 376.2 3.98845 340.463C23.2723 271.745 73.298 219.814 114.898 193.092C141.981 175.695 167.407 176.861 188.401 197.982C204.489 214.167 212.356 245.467 210.812 283.44C208.702 335.393 191.304 402.555 189.706 432.326C189.636 433.585 189.721 435.23 189.937 437.09C195.412 427.928 200.792 416.307 206.857 403.911C236.934 342.443 265.723 258.729 287.759 223.693C293.705 214.283 331.282 153.093 353.338 137.885C372.708 124.528 390.672 126.129 403.568 132.819C419.653 141.164 430.573 155.921 434.758 176.322C441.071 207.106 425.909 259.492 422.729 277.699C409.667 350.561 391.664 421.707 378.243 494.011C372.695 523.892 367.896 553.966 364.713 584.478C364.027 591.059 359.194 618.509 359.285 643.889C359.29 645.656 359.387 647.617 359.557 649.625C364.77 643.989 368.959 636.893 372.8 629.441C388.709 598.558 396.297 559.721 404.05 534.113C425.724 462.273 443.541 388.422 466.519 316.511C482.395 266.826 500.617 218.02 524.51 171.44C537.905 143.881 576.241 72.295 617.269 33.4537C649.329 3.103 684.991 -6.70695 717.189 5.97523C743.011 16.1275 759.594 41.9119 767.192 75.9691C777.801 123.534 767.778 190.802 762.418 215.96C751.782 263.146 738.203 310.068 721.25 356.189C697.332 421.257 667.893 484.703 648.38 550.636C640.579 577.002 633.9 603.593 629.499 630.708C627.388 644.164 618.096 690.965 617.006 733.862C616.709 745.591 622.365 758.4 624.797 768.202C627.522 765.919 630.198 763.316 632.929 760.903C647.602 747.936 659.668 731.023 667.61 718.673C696.649 673.472 718.983 633.368 737.289 591.112C755.207 549.752 769.033 506.294 781.851 454.06L819.752 334.261C841.854 258.615 933.774 286.484 913.166 358.28L876.943 476.3C860.889 533.863 843.79 581.56 822.556 626.914C801.015 672.925 775.424 716.596 742.071 765.578C727.573 786.916 703.415 816.838 675.84 836.066C649.719 854.277 620.742 863.557 592.387 858.472C566.764 853.877 545.034 833.268 536.573 796.078C524.458 742.822 538.083 642.893 540.827 620.847C546.01 574.473 556.542 529.035 569.818 484.061C587.445 424.346 608.469 365.051 630.68 306.577C644.872 269.215 660.535 232.651 672.008 194.905C675.643 183.211 682.051 159.409 685.042 134.036C686.747 119.575 687.987 104.641 686.283 91.5386C685.727 87.2611 685.303 83.1641 683.979 79.6049C681.553 73.0899 676.95 78.2016 671.206 80.7761C660.023 88.5906 648.912 99.8703 638.674 112.436C613.027 143.916 591.958 182.132 582.703 199.43C560.539 242.77 543.485 288.138 529.05 334.431C506.699 406.104 490.368 479.881 469.728 551.582C459.838 586.074 448.94 640.727 424.363 678.293C409.444 701.098 389.754 718.241 364.871 726.679C334.196 737.091 314.078 726.201 300.567 704.959C293.563 693.946 289.073 677.478 287.622 658.873C285.152 627.192 290.998 587.837 291.749 579.28C294.601 546.781 299.106 514.712 304.535 482.853C316.103 414.966 331.919 348.077 343.795 279.871C320.108 325.754 290.501 410.011 259.88 461.86C243.586 489.447 225.692 509.185 209.516 517.899C180.923 533.3 159.806 527.224 144.148 513.931C135.963 506.981 128.969 496.815 124.516 484.398C118.129 466.584 116.514 443.61 117.554 429.419C119.505 403.321 133.914 349.001 139.898 300.778C141.869 284.889 149.214 260.606 141.683 257.218C134.151 253.831 77.553 345.389 77.553 345.389C74.3194 350.757 69.6392 359.544 64.3792 366.597C63.2805 368.634 61.926 370.657 60.2933 372.645C55.9416 377.94 46.2013 383.745 42.4913 385.328Z" fill="white"/>
</svg>
