<svg width="917" height="550" viewBox="0 0 917 550" fill="none" xmlns="http://www.w3.org/2000/svg">
<path opacity="0.5" d="M42.4913 385.329C2.81539 402.251 -6.0401 376.2 3.98845 340.464C23.2723 271.746 73.298 219.814 114.898 193.093C141.981 175.695 167.407 176.862 188.401 197.982C204.489 214.167 212.356 245.467 210.812 283.44C208.702 335.394 191.304 402.555 189.706 432.327C189.636 433.585 189.721 435.231 189.937 437.091C195.412 427.928 200.792 416.308 206.857 403.912C236.934 342.444 265.723 258.73 287.759 223.694C293.705 214.283 331.282 153.093 353.338 137.885C372.708 124.528 390.672 126.13 403.568 132.82C419.653 141.164 430.573 155.921 434.758 176.323C441.071 207.107 425.909 259.492 422.729 277.7C409.667 350.562 391.664 421.708 378.243 494.011C372.695 523.892 367.896 553.966 364.713 584.479C364.027 591.06 359.194 618.51 359.285 643.89C359.29 645.656 359.387 647.617 359.557 649.625C364.77 643.989 368.959 636.894 372.8 629.442C388.709 598.559 396.297 559.722 404.05 534.113C425.724 462.274 443.541 388.422 466.519 316.511C482.395 266.827 500.617 218.02 524.51 171.44C537.905 143.882 576.241 72.2955 617.269 33.4542C649.329 3.10349 684.991 -6.70646 717.189 5.97572C743.011 16.128 759.594 41.9124 767.192 75.9696C777.801 123.535 767.778 190.803 762.418 215.96C751.782 263.147 738.203 310.068 721.25 356.189C697.332 421.258 667.893 484.703 648.38 550.637C640.579 577.003 633.9 603.594 629.499 630.709C627.388 644.165 618.096 690.966 617.006 733.863C616.709 745.592 622.365 758.401 624.797 768.203C627.522 765.92 630.198 763.316 632.929 760.903C647.602 747.937 659.668 731.023 667.61 718.673C696.649 673.472 718.983 633.368 737.289 591.112C755.207 549.752 769.033 506.294 781.851 454.06L819.752 334.262C841.854 258.616 933.774 286.484 913.166 358.28L876.943 476.3C860.889 533.864 843.79 581.56 822.556 626.915C801.015 672.926 775.424 716.597 742.071 765.579C727.573 786.917 703.415 816.839 675.84 836.066C649.719 854.277 620.742 863.557 592.387 858.472C566.764 853.877 545.034 833.269 536.573 796.079C524.458 742.823 538.083 642.894 540.827 620.848C546.01 574.474 556.542 529.035 569.818 484.061C587.445 424.346 608.469 365.052 630.68 306.577C644.872 269.215 660.535 232.651 672.008 194.906C675.643 183.211 682.051 159.41 685.042 134.037C686.747 119.575 687.987 104.641 686.283 91.5391C685.727 87.2616 685.303 83.1646 683.979 79.6054C681.553 73.0904 676.95 78.2021 671.206 80.7766C660.023 88.591 648.912 99.8708 638.674 112.436C613.027 143.916 591.958 182.132 582.703 199.43C560.539 242.771 543.485 288.138 529.05 334.431C506.699 406.104 490.368 479.881 469.728 551.583C459.838 586.075 448.94 640.728 424.363 678.294C409.444 701.099 389.754 718.242 364.871 726.68C334.196 737.092 314.078 726.202 300.567 704.959C293.563 693.946 289.073 677.478 287.622 658.874C285.152 627.193 290.998 587.838 291.749 579.28C294.601 546.782 299.106 514.712 304.535 482.853C316.103 414.966 331.919 348.077 343.795 279.872C320.108 325.755 290.501 410.012 259.88 461.86C243.586 489.447 225.692 509.186 209.516 517.9C180.923 533.3 159.806 527.224 144.148 513.931C135.963 506.982 128.969 496.816 124.516 484.399C118.129 466.585 116.514 443.61 117.554 429.419C119.505 403.322 133.914 349.001 139.898 300.779C141.869 284.89 149.214 260.607 141.683 257.219C134.151 253.831 77.553 345.39 77.553 345.39C74.3194 350.758 69.6392 359.544 64.3792 366.597C63.2805 368.634 61.926 370.658 60.2933 372.645C55.9416 377.941 46.2013 383.745 42.4913 385.329Z" fill="white"/>
</svg>
