<svg width="21" height="22" viewBox="0 0 21 22" fill="none" xmlns="http://www.w3.org/2000/svg">
<path d="M5.3125 1.13281C5.3125 0.96498 5.24583 0.804022 5.12715 0.685346C5.00848 0.566671 4.84752 0.5 4.67969 0.5C4.51186 0.5 4.3509 0.566671 4.23222 0.685346C4.11355 0.804022 4.04688 0.96498 4.04688 1.13281V2.51562H2.78125C2.10992 2.51562 1.46609 2.78231 0.991386 3.25701C0.516685 3.73171 0.25 4.37555 0.25 5.04688L0.25 6.3125H20.5V5.04688C20.5 4.37555 20.2333 3.73171 19.7586 3.25701C19.2839 2.78231 18.6401 2.51562 17.9688 2.51562H16.7031V1.13281C16.7031 0.96498 16.6365 0.804022 16.5178 0.685347C16.3991 0.566671 16.2381 0.5 16.0703 0.5C15.9025 0.5 15.7415 0.566671 15.6228 0.685347C15.5042 0.804022 15.4375 0.96498 15.4375 1.13281V2.51562H5.3125V1.13281ZM20.5 18.9688V7.57812H0.25V18.9688C0.25 19.6401 0.516685 20.2839 0.991386 20.7586C1.46609 21.2333 2.10992 21.5 2.78125 21.5H17.9688C18.6401 21.5 19.2839 21.2333 19.7586 20.7586C20.2333 20.2839 20.5 19.6401 20.5 18.9688ZM10.375 11.3661C12.481 9.20066 17.7473 12.9899 10.375 17.8613C3.00273 12.9887 8.269 9.20066 10.375 11.3661Z" fill="#F77A09"/>
</svg>
