<svg width="22" height="22" viewBox="0 0 22 22" fill="none" xmlns="http://www.w3.org/2000/svg">
<path d="M5.70117 18.2997L2.95117 17.6997C2.70117 17.6497 2.50117 17.5204 2.35117 17.3117C2.20117 17.1037 2.14284 16.8747 2.17617 16.6247L2.45117 13.7997L0.576172 11.6497C0.409505 11.4664 0.326172 11.2497 0.326172 10.9997C0.326172 10.7497 0.409505 10.5331 0.576172 10.3497L2.45117 8.19972L2.17617 5.37472C2.14284 5.12472 2.20117 4.89572 2.35117 4.68772C2.50117 4.47905 2.70117 4.34972 2.95117 4.29972L5.70117 3.69972L7.15117 1.24972C7.2845 1.03305 7.46784 0.891385 7.70117 0.824718C7.9345 0.758051 8.16784 0.766385 8.40117 0.849718L11.0012 1.94972L13.6012 0.849718C13.8345 0.766385 14.0678 0.758051 14.3012 0.824718C14.5345 0.891385 14.7178 1.03305 14.8512 1.24972L16.3012 3.69972L19.0512 4.29972C19.3012 4.34972 19.5012 4.47905 19.6512 4.68772C19.8012 4.89572 19.8595 5.12472 19.8262 5.37472L19.5512 8.19972L21.4262 10.3497C21.5928 10.5331 21.6762 10.7497 21.6762 10.9997C21.6762 11.2497 21.5928 11.4664 21.4262 11.6497L19.5512 13.7997L19.8262 16.6247C19.8595 16.8747 19.8012 17.1037 19.6512 17.3117C19.5012 17.5204 19.3012 17.6497 19.0512 17.6997L16.3012 18.2997L14.8512 20.7497C14.7178 20.9664 14.5345 21.108 14.3012 21.1747C14.0678 21.2414 13.8345 21.2331 13.6012 21.1497L11.0012 20.0497L8.40117 21.1497C8.16784 21.2331 7.9345 21.2414 7.70117 21.1747C7.46784 21.108 7.2845 20.9664 7.15117 20.7497L5.70117 18.2997ZM9.25117 13.8497C9.43451 14.0331 9.66784 14.1247 9.95117 14.1247C10.2345 14.1247 10.4678 14.0331 10.6512 13.8497L14.9012 9.59972C15.1012 9.39972 15.2012 9.16205 15.2012 8.88672C15.2012 8.61205 15.1012 8.37472 14.9012 8.17472C14.7012 7.97472 14.4638 7.87472 14.1892 7.87472C13.9138 7.87472 13.6762 7.97472 13.4762 8.17472L9.95117 11.6997L8.50117 10.2747C8.30117 10.0914 8.06384 10.0037 7.78917 10.0117C7.51384 10.0204 7.28451 10.1164 7.10117 10.2997C6.91784 10.4831 6.82617 10.7164 6.82617 10.9997C6.82617 11.2831 6.91784 11.5164 7.10117 11.6997L9.25117 13.8497Z" fill="#F77A09"/>
</svg>
