<svg width="20" height="20" viewBox="0 0 20 20" fill="none" xmlns="http://www.w3.org/2000/svg">
<path d="M9.99 -0.000488281C4.47 -0.000488281 0 4.47951 0 9.99951C0 15.5195 4.47 19.9995 9.99 19.9995C15.52 19.9995 20 15.5195 20 9.99951C20 4.47951 15.52 -0.000488281 9.99 -0.000488281ZM14 13.9995C13.9075 14.0922 13.7976 14.1658 13.6766 14.2159C13.5557 14.2661 13.426 14.292 13.295 14.292C13.164 14.292 13.0343 14.2661 12.9134 14.2159C12.7924 14.1658 12.6825 14.0922 12.59 13.9995L9.3 10.7095C9.20551 10.6169 9.13034 10.5065 9.07885 10.3846C9.02735 10.2627 9.00055 10.1318 9 9.99951V5.99951C9 5.44951 9.45 4.99951 10 4.99951C10.55 4.99951 11 5.44951 11 5.99951V9.58951L14 12.5895C14.39 12.9795 14.39 13.6095 14 13.9995Z" fill="#F77A09"/>
</svg>
