<svg width="20" height="20" viewBox="0 0 20 20" fill="none" xmlns="http://www.w3.org/2000/svg">
<path fill-rule="evenodd" clip-rule="evenodd" d="M9.55424 1.41644C10.0099 1.41331 10.2867 1.43269 10.2867 1.43269C14.0724 1.44269 15.8792 2.58206 16.3055 2.96581C17.6955 4.15706 18.4117 7.01206 17.8874 11.2083C17.3892 15.2771 14.4142 15.5346 13.8636 15.7102C13.6292 15.7852 11.4642 16.3189 8.73674 16.1433C8.73674 16.1433 6.70549 18.5946 6.07049 19.2258C5.96987 19.3364 5.85237 19.3689 5.77737 19.3527C5.66987 19.3264 5.63737 19.1933 5.64362 19.0108L5.66299 15.6614C1.68487 14.5614 1.91924 10.4108 1.96174 8.24269C2.01049 6.07456 2.41737 4.30081 3.62862 3.09956C5.25924 1.62519 8.18924 1.42644 9.55299 1.41644H9.55424ZM9.75867 3.60204C9.78902 3.58976 9.8215 3.58361 9.85424 3.58394C11.3286 3.58394 12.5824 4.08144 13.5717 5.04831C14.0794 5.57279 14.4751 6.19501 14.7348 6.87717C14.9945 7.55932 15.1127 8.28716 15.0824 9.01644C15.0817 9.08242 15.055 9.14546 15.008 9.19182C14.9611 9.23818 14.8977 9.26411 14.8317 9.26394V9.27394C14.6917 9.27394 14.5811 9.16019 14.5811 9.02331C14.5642 7.47394 14.1217 6.28894 13.2136 5.40706C12.7688 4.97542 12.243 4.63612 11.6664 4.4087C11.0898 4.18129 10.4739 4.07028 9.85424 4.08206C9.71737 4.08206 9.60362 3.97144 9.60362 3.83144C9.6037 3.79869 9.61026 3.76629 9.62292 3.7361C9.63558 3.7059 9.6541 3.67851 9.6774 3.6555C9.70069 3.63249 9.72831 3.61433 9.75867 3.60204ZM6.04862 4.25769C6.20254 4.16672 6.38296 4.13121 6.55987 4.15706L6.55862 4.15581C6.72381 4.18718 6.87258 4.27596 6.97862 4.40644C7.46368 4.95991 7.89324 5.55966 8.26112 6.19706C8.50174 6.62394 8.34549 7.05644 8.12112 7.23894L7.65237 7.61644C7.41174 7.79894 7.44424 8.15706 7.44424 8.15706C7.44424 8.15706 8.13799 10.7902 10.7386 11.4546L10.7486 11.4483C10.7486 11.4483 11.0974 11.4808 11.2892 11.2464L11.6636 10.7746C11.8392 10.5402 12.2724 10.4002 12.6986 10.6314C13.3351 11.0019 13.9348 11.4324 14.4892 11.9171C14.7661 12.1483 14.8311 12.4902 14.6392 12.8514V12.8577C14.4348 13.2168 14.173 13.54 13.8642 13.8146C13.6108 14.0447 13.2875 14.1833 12.9461 14.2083C12.8386 14.2083 12.7317 14.1921 12.6142 14.1564V14.1502C12.2136 14.0327 11.5461 13.7496 10.4461 13.1508C9.48367 12.6185 8.59314 11.9656 7.79612 11.2077L7.76987 11.1852L7.74737 11.1589L7.71174 11.1327L7.68924 11.1002C6.93359 10.306 6.28363 9.41766 5.75549 8.45706C5.34549 7.77331 5.00987 7.04706 4.75299 6.29206L4.73674 6.28206C4.69112 6.13581 4.67799 5.98269 4.69737 5.82956C4.72987 5.57269 4.85362 5.30581 5.08174 5.04206C5.35625 4.73189 5.67816 4.46715 6.03549 4.25769H6.04862ZM10.2899 5.40081C9.95487 5.40081 9.95487 4.89956 10.2867 4.89956H10.3224C11.4067 4.97394 12.2561 5.34831 12.8649 6.01581C13.4705 6.68331 13.7792 7.51644 13.7567 8.50956C13.7563 8.57588 13.7297 8.63934 13.6828 8.68624C13.6359 8.73313 13.5724 8.7597 13.5061 8.76019L13.4961 8.74706C13.4303 8.74675 13.3672 8.72067 13.3203 8.67441C13.2735 8.62815 13.2466 8.56539 13.2455 8.49956C13.2703 8.11061 13.2169 7.72063 13.0883 7.35271C12.9597 6.9848 12.7585 6.64644 12.4967 6.35769C12.2098 6.06103 11.8672 5.82383 11.4885 5.65965C11.1099 5.49546 10.7025 5.40751 10.2899 5.40081ZM10.6811 6.75831C10.3424 6.74831 10.3555 6.23706 10.6974 6.24706L10.7074 6.24769C11.788 6.30581 12.3967 6.93456 12.4555 8.05081C12.4575 8.0842 12.4529 8.11766 12.4418 8.14923C12.4308 8.18081 12.4135 8.20987 12.3911 8.23471C12.3687 8.25955 12.3416 8.27969 12.3114 8.29393C12.2811 8.30818 12.2483 8.31626 12.2149 8.31769H12.2049C12.1399 8.31737 12.0776 8.29162 12.0313 8.24595C11.9851 8.20027 11.9585 8.13831 11.9574 8.07331C11.9049 7.21706 11.5049 6.80081 10.6811 6.75831Z" fill="white"/>
<path fill-rule="evenodd" clip-rule="evenodd" d="M9.49924 0.0033122C7.89424 0.0226872 4.44362 0.286437 2.51362 2.05706C1.07799 3.47956 0.576744 5.58269 0.517994 8.18331C0.469244 10.7746 0.410494 15.6408 5.10112 16.9658V18.9839C5.10112 18.9839 5.07174 19.7914 5.60549 19.9571C6.26299 20.1652 6.63737 19.5439 7.26237 18.8764L8.42799 17.5583C11.6374 17.8252 14.0955 17.2102 14.3786 17.1189C15.0299 16.9108 18.698 16.4421 19.2974 11.5752C19.9124 6.54894 18.998 3.38206 17.3474 1.94956H17.3374C16.8392 1.49081 14.8374 0.0320622 10.3649 0.0158122C10.3649 0.0158122 10.033 -0.0060628 9.49924 0.0033122ZM10.2867 1.43269C10.2867 1.43269 10.0099 1.41331 9.55424 1.41644H9.55299C8.18924 1.42644 5.25924 1.62519 3.62862 3.09956C2.41737 4.30081 2.01049 6.07456 1.96174 8.24269C1.91924 10.4108 1.68487 14.5614 5.66299 15.6614L5.64362 19.0108C5.63737 19.1933 5.66987 19.3264 5.77737 19.3527C5.85237 19.3689 5.96987 19.3364 6.07049 19.2258C6.70549 18.5946 8.73674 16.1433 8.73674 16.1433C11.4642 16.3189 13.6292 15.7852 13.8636 15.7102C14.4142 15.5346 17.3892 15.2771 17.8874 11.2083C18.4117 7.01206 17.6955 4.15706 16.3055 2.96581C15.8792 2.58206 14.0724 1.44269 10.2867 1.43269Z" fill="white"/>
</svg>
