<svg width="16" height="16" viewBox="0 0 16 16" fill="none" xmlns="http://www.w3.org/2000/svg">
<path fill-rule="evenodd" clip-rule="evenodd" d="M7.64535 1.1331C8.00985 1.1306 8.23135 1.1461 8.23135 1.1461C11.2598 1.1541 12.7053 2.0656 13.0463 2.3726C14.1583 3.3256 14.7313 5.6096 14.3118 8.9666C13.9133 12.2216 11.5333 12.4276 11.0928 12.5681C10.9053 12.6281 9.17335 13.0551 6.99135 12.9146C6.99135 12.9146 5.36635 14.8756 4.85835 15.3806C4.77785 15.4691 4.68385 15.4951 4.62385 15.4821C4.53785 15.4611 4.51185 15.3546 4.51685 15.2086L4.53235 12.5291C1.34985 11.6491 1.53735 8.3286 1.57135 6.5941C1.61035 4.8596 1.93585 3.4406 2.90485 2.4796C4.20935 1.3001 6.55335 1.1411 7.64435 1.1331H7.64535ZM7.80889 2.88159C7.83317 2.87176 7.85916 2.86684 7.88535 2.8671C9.06485 2.8671 10.0678 3.2651 10.8593 4.0386C11.2655 4.45818 11.582 4.95596 11.7898 5.50168C11.9975 6.04741 12.0921 6.62968 12.0678 7.2131C12.0673 7.26588 12.0459 7.31632 12.0084 7.35341C11.9708 7.3905 11.9201 7.41124 11.8673 7.4111V7.4191C11.7553 7.4191 11.6668 7.3281 11.6668 7.2186C11.6533 5.9791 11.2993 5.0311 10.5728 4.3256C10.217 3.98029 9.79633 3.70884 9.33507 3.52691C8.87381 3.34498 8.3811 3.25617 7.88535 3.2656C7.77585 3.2656 7.68485 3.1771 7.68485 3.0651C7.68491 3.03891 7.69016 3.01298 7.70029 2.98883C7.71042 2.96467 7.72523 2.94276 7.74387 2.92435C7.76251 2.90595 7.78461 2.89141 7.80889 2.88159ZM4.84085 3.4061C4.96398 3.33333 5.10832 3.30492 5.24985 3.3256L5.24885 3.3246C5.381 3.3497 5.50001 3.42072 5.58485 3.5251C5.9729 3.96788 6.31655 4.44768 6.61085 4.9576C6.80335 5.2991 6.67835 5.6451 6.49885 5.7911L6.12385 6.0931C5.93135 6.2391 5.95735 6.5256 5.95735 6.5256C5.95735 6.5256 6.51235 8.6321 8.59285 9.1636L8.60085 9.1586C8.60085 9.1586 8.87985 9.1846 9.03335 8.9971L9.33285 8.6196C9.47335 8.4321 9.81985 8.3201 10.1608 8.5051C10.6701 8.80145 11.1498 9.14585 11.5933 9.5336C11.8148 9.7186 11.8668 9.9921 11.7133 10.2811V10.2861C11.5498 10.5734 11.3404 10.8319 11.0933 11.0516C10.8906 11.2357 10.632 11.3466 10.3588 11.3666C10.2728 11.3666 10.1873 11.3536 10.0933 11.3251V11.3201C9.77285 11.2261 9.23885 10.9996 8.35885 10.5206C7.58889 10.0948 6.87646 9.5724 6.23885 8.9661L6.21785 8.9481L6.19985 8.9271L6.17135 8.9061L6.15335 8.8801C5.54882 8.24479 5.02886 7.53408 4.60635 6.7656C4.27835 6.2186 4.00985 5.6376 3.80435 5.0336L3.79135 5.0256C3.75485 4.9086 3.74435 4.7861 3.75985 4.6636C3.78585 4.4581 3.88485 4.2446 4.06735 4.0336C4.28696 3.78546 4.54448 3.57367 4.83035 3.4061H4.84085ZM8.23385 4.3206C7.96585 4.3206 7.96585 3.9196 8.23135 3.9196H8.25985C9.12735 3.9791 9.80685 4.2786 10.2938 4.8126C10.7783 5.3466 11.0253 6.0131 11.0073 6.8076C11.007 6.86066 10.9857 6.91143 10.9482 6.94894C10.9107 6.98646 10.8599 7.00771 10.8068 7.0081L10.7988 6.9976C10.7462 6.99735 10.6957 6.97648 10.6582 6.93948C10.6208 6.90247 10.5993 6.85226 10.5983 6.7996C10.6182 6.48844 10.5755 6.17645 10.4726 5.88212C10.3697 5.58779 10.2088 5.31711 9.99935 5.0861C9.76979 4.84878 9.49571 4.65902 9.19277 4.52767C8.88984 4.39632 8.56399 4.32596 8.23385 4.3206ZM8.54685 5.4066C8.27585 5.3986 8.28635 4.9896 8.55985 4.9976L8.56785 4.9981C9.43235 5.0446 9.91935 5.5476 9.96635 6.4406C9.96797 6.46731 9.96425 6.49408 9.95541 6.51934C9.94657 6.5446 9.93279 6.56784 9.91487 6.58772C9.89695 6.60759 9.87525 6.6237 9.85104 6.6351C9.82682 6.64649 9.80058 6.65296 9.77385 6.6541H9.76585C9.71384 6.65385 9.66401 6.63325 9.627 6.59671C9.58999 6.56017 9.56876 6.5106 9.56785 6.4586C9.52585 5.7736 9.20585 5.4406 8.54685 5.4066Z" fill="white"/>
<path fill-rule="evenodd" clip-rule="evenodd" d="M7.80889 2.88159C7.83317 2.87176 7.85916 2.86684 7.88535 2.8671C9.06485 2.8671 10.0678 3.2651 10.8593 4.0386C11.2655 4.45818 11.582 4.95596 11.7898 5.50168C11.9975 6.04741 12.0921 6.62968 12.0678 7.2131C12.0673 7.26588 12.0459 7.31632 12.0084 7.35341C11.9708 7.3905 11.9201 7.41124 11.8673 7.4111V7.4191C11.7553 7.4191 11.6668 7.3281 11.6668 7.2186C11.6533 5.9791 11.2993 5.0311 10.5728 4.3256C10.217 3.98029 9.79633 3.70884 9.33507 3.52691C8.87381 3.34498 8.3811 3.25617 7.88535 3.2656C7.77585 3.2656 7.68485 3.1771 7.68485 3.0651C7.68491 3.03891 7.69016 3.01298 7.70029 2.98883C7.71042 2.96467 7.72523 2.94276 7.74387 2.92435C7.76251 2.90595 7.78461 2.89141 7.80889 2.88159ZM4.84085 3.4061C4.96398 3.33333 5.10832 3.30492 5.24985 3.3256L5.24885 3.3246C5.381 3.3497 5.50001 3.42072 5.58485 3.5251C5.9729 3.96788 6.31655 4.44768 6.61085 4.9576C6.80335 5.2991 6.67835 5.6451 6.49885 5.7911L6.12385 6.0931C5.93135 6.2391 5.95735 6.5256 5.95735 6.5256C5.95735 6.5256 6.51235 8.6321 8.59285 9.1636L8.60085 9.1586C8.60085 9.1586 8.87985 9.1846 9.03335 8.9971L9.33285 8.6196C9.47335 8.4321 9.81985 8.3201 10.1608 8.5051C10.6701 8.80145 11.1498 9.14585 11.5933 9.5336C11.8148 9.7186 11.8668 9.9921 11.7133 10.2811V10.2861C11.5498 10.5734 11.3404 10.8319 11.0933 11.0516C10.8906 11.2357 10.632 11.3466 10.3588 11.3666C10.2728 11.3666 10.1873 11.3536 10.0933 11.3251V11.3201C9.77285 11.2261 9.23885 10.9996 8.35885 10.5206C7.58889 10.0948 6.87646 9.5724 6.23885 8.9661L6.21785 8.9481L6.19985 8.9271L6.17135 8.9061L6.15335 8.8801C5.54882 8.24479 5.02886 7.53408 4.60635 6.7656C4.27835 6.2186 4.00985 5.6376 3.80435 5.0336L3.79135 5.0256C3.75485 4.9086 3.74435 4.7861 3.75985 4.6636C3.78585 4.4581 3.88485 4.2446 4.06735 4.0336C4.28696 3.78546 4.54448 3.57367 4.83035 3.4061H4.84085ZM8.23385 4.3206C7.96585 4.3206 7.96585 3.9196 8.23135 3.9196H8.25985C9.12735 3.9791 9.80685 4.2786 10.2938 4.8126C10.7783 5.3466 11.0253 6.0131 11.0073 6.8076C11.007 6.86066 10.9857 6.91143 10.9482 6.94894C10.9107 6.98646 10.8599 7.00771 10.8068 7.0081L10.7988 6.9976C10.7462 6.99735 10.6957 6.97648 10.6582 6.93948C10.6208 6.90247 10.5993 6.85226 10.5983 6.7996C10.6182 6.48844 10.5755 6.17645 10.4726 5.88212C10.3697 5.58779 10.2088 5.31711 9.99935 5.0861C9.76979 4.84878 9.49571 4.65902 9.19277 4.52767C8.88984 4.39632 8.56399 4.32596 8.23385 4.3206ZM8.54685 5.4066C8.27585 5.3986 8.28635 4.9896 8.55985 4.9976L8.56785 4.9981C9.43235 5.0446 9.91935 5.5476 9.96635 6.4406C9.96797 6.46731 9.96425 6.49408 9.95541 6.51934C9.94657 6.5446 9.93279 6.56784 9.91487 6.58772C9.89695 6.60759 9.87525 6.6237 9.85104 6.6351C9.82682 6.64649 9.80058 6.65296 9.77385 6.6541H9.76585C9.71384 6.65385 9.66401 6.63325 9.627 6.59671C9.58999 6.56017 9.56876 6.5106 9.56785 6.4586C9.52585 5.7736 9.20585 5.4406 8.54685 5.4066Z" fill="#2E2E2F"/>
<path fill-rule="evenodd" clip-rule="evenodd" d="M7.60135 0.00260093C6.31735 0.0181009 3.55685 0.229101 2.01285 1.6456C0.864348 2.7836 0.463348 4.4661 0.416348 6.5466C0.377348 8.6196 0.330348 12.5126 4.08285 13.5726V15.1871C4.08285 15.1871 4.05935 15.8331 4.48635 15.9656C5.01235 16.1321 5.31185 15.6351 5.81185 15.1011L6.74435 14.0466C9.31185 14.2601 11.2783 13.7681 11.5048 13.6951C12.0258 13.5286 14.9603 13.1536 15.4398 9.2601C15.9318 5.2391 15.2003 2.7056 13.8798 1.5596H13.8718C13.4733 1.1926 11.8718 0.0256009 8.29385 0.0126009C8.29385 0.0126009 8.02835 -0.00489907 7.60135 0.00260093ZM8.23135 1.1461C8.23135 1.1461 8.00985 1.1306 7.64535 1.1331H7.64435C6.55335 1.1411 4.20935 1.3001 2.90485 2.4796C1.93585 3.4406 1.61035 4.8596 1.57135 6.5941C1.53735 8.3286 1.34985 11.6491 4.53235 12.5291L4.51685 15.2086C4.51185 15.3546 4.53785 15.4611 4.62385 15.4821C4.68385 15.4951 4.77785 15.4691 4.85835 15.3806C5.36635 14.8756 6.99135 12.9146 6.99135 12.9146C9.17335 13.0551 10.9053 12.6281 11.0928 12.5681C11.5333 12.4276 13.9133 12.2216 14.3118 8.9666C14.7313 5.6096 14.1583 3.3256 13.0463 2.3726C12.7053 2.0656 11.2598 1.1541 8.23135 1.1461Z" fill="white"/>
</svg>
