<svg width="21" height="20" viewBox="0 0 21 20" fill="none" xmlns="http://www.w3.org/2000/svg">
<path d="M20.8506 7.9472C20.742 7.29533 20.1444 6.86075 19.3296 6.86075C19.058 6.86075 18.8407 6.86075 18.5691 6.86075C18.0802 6.80643 17.9716 6.9694 17.9716 7.34966C17.9716 9.25093 17.9716 11.0979 17.9716 12.9991C17.9716 13.9769 16.9938 15.0091 15.853 15.2264C12.2678 16.0412 8.68249 16.8017 5.09723 17.6165C4.71698 17.7252 4.28241 17.7252 3.84783 17.7252C3.68486 17.7252 3.41326 17.6165 3.35893 17.4536C3.30461 17.3449 3.46757 17.1276 3.57622 17.019C3.73918 16.9103 3.95648 16.8017 4.17376 16.6931C4.82563 16.4758 5.53181 16.2585 6.18367 16.0412C8.84545 15.172 11.5072 14.3029 14.169 13.3794C15.3641 12.9991 16.016 12.1843 16.016 11.1522C16.0703 7.89288 16.016 4.57923 16.016 1.3199C16.016 0.776683 15.7444 0.342108 15.1468 0.12482C14.4406 -0.146791 13.7888 0.0704941 13.1912 0.342105C9.38867 2.13473 5.64045 3.92737 1.83791 5.71999C0.751464 6.26322 0.0996094 7.02372 0.0996094 8.11016C0.0996094 11.2065 0.0996094 14.3029 0.0996094 17.3992C0.0996094 17.5622 0.0995961 17.7252 0.153918 17.8338C0.534173 18.8659 1.51198 19.5178 2.81571 19.5178C5.47749 19.5178 8.13927 19.5178 10.801 19.5178C13.4628 19.5178 16.0703 19.5178 18.7321 19.5178C19.3296 19.5178 19.8185 19.4092 20.2531 19.0289C20.7963 18.5943 20.7963 17.9968 20.7963 17.4536C20.7963 14.4115 20.7963 11.4238 20.7963 8.38177C20.9049 8.32745 20.905 8.11016 20.8506 7.9472ZM9.76893 6.9694C10.0405 6.26322 10.6381 5.82864 11.5072 5.71999C12.1048 5.66567 12.5937 5.99161 12.7023 6.53483C12.811 7.34966 11.8332 8.32746 10.801 8.32746C9.98622 8.32746 9.49732 7.72991 9.76893 6.9694Z" fill="#F1F1F1"/>
</svg>
